<svg width="54" height="72" viewBox="0 0 18 24" fill="none" xmlns="http://www.w3.org/2000/svg">
<path d="M17.1094 5.90625L12.0938 0.890625C11.5312 0.328125 10.7812 0 9.98438 0H3C1.3125 0 0 1.35938 0 3V21C0 22.6875 1.3125 24 3 24H15C16.6406 24 18 22.6875 18 21V8.01562C18 7.21875 17.6719 6.46875 17.1094 5.90625ZM10.5 1.64062C10.6875 1.6875 10.875 1.78125 11.0625 1.96875L16.0312 6.9375C16.2188 7.125 16.3125 7.3125 16.3594 7.5H11.25C10.8281 7.5 10.5 7.17188 10.5 6.75V1.64062ZM16.5 21C16.5 21.8438 15.7969 22.5 15 22.5H3C2.15625 22.5 1.5 21.8438 1.5 21V3C1.5 2.20312 2.15625 1.5 3 1.5H9V6.75C9 8.01562 9.98438 9 11.25 9H16.5V21ZM4.5 12.75C4.5 13.1719 4.82812 13.5 5.25 13.5H12.75C13.125 13.5 13.5 13.1719 13.5 12.75C13.5 12.375 13.125 12 12.75 12H5.25C4.82812 12 4.5 12.375 4.5 12.75ZM12.75 15H5.25C4.82812 15 4.5 15.375 4.5 15.75C4.5 16.1719 4.82812 16.5 5.25 16.5H12.75C13.125 16.5 13.5 16.1719 13.5 15.75C13.5 15.375 13.125 15 12.75 15ZM12.75 18H5.25C4.82812 18 4.5 18.375 4.5 18.75C4.5 19.1719 4.82812 19.5 5.25 19.5H12.75C13.125 19.5 13.5 19.1719 13.5 18.75C13.5 18.375 13.125 18 12.75 18Z" fill="#194CBB"/>
</svg>
