<svg width="84" height="102" viewBox="0 0 28 34" fill="none" xmlns="http://www.w3.org/2000/svg">
<path d="M17.1094 5.90625L12.0938 0.890625C11.5312 0.328125 10.7812 0 9.98438 0H3C1.3125 0 0 1.35938 0 3V21C0 22.6875 1.3125 24 3 24H15C16.6406 24 18 22.6875 18 21V8.01562C18 7.21875 17.6719 6.46875 17.1094 5.90625ZM10.5 1.64062C10.6875 1.6875 10.875 1.78125 11.0625 1.96875L16.0312 6.9375C16.2188 7.125 16.3125 7.3125 16.3594 7.5H11.25C10.8281 7.5 10.5 7.17188 10.5 6.75V1.64062ZM16.5 21C16.5 21.8438 15.7969 22.5 15 22.5H3C2.15625 22.5 1.5 21.8438 1.5 21V3C1.5 2.20312 2.15625 1.5 3 1.5H9V6.75C9 8.01562 9.98438 9 11.25 9H16.5V21ZM3.75 4.5H6.75C7.125 4.5 7.5 4.17188 7.5 3.75C7.5 3.375 7.125 3 6.75 3H3.75C3.32812 3 3 3.375 3 3.75C3 4.17188 3.32812 4.5 3.75 4.5ZM3.75 7.5H6.75C7.125 7.5 7.5 7.17188 7.5 6.75C7.5 6.375 7.125 6 6.75 6H3.75C3.32812 6 3 6.375 3 6.75C3 7.17188 3.32812 7.5 3.75 7.5ZM8.4375 17.0625L7.78125 15.0938C7.64062 14.625 7.21875 14.3438 6.75 14.3438C6.23438 14.3438 5.8125 14.625 5.67188 15.0938L4.82812 17.6719C4.73438 17.8594 4.54688 18 4.3125 18H3.75C3.32812 18 3 18.375 3 18.75C3 19.1719 3.32812 19.5 3.75 19.5H4.3125C5.20312 19.5 5.95312 18.9844 6.23438 18.1406L6.75 16.6406L7.5 18.9844C7.59375 19.3125 7.875 19.5 8.15625 19.5H8.25C8.48438 19.5 8.76562 19.3594 8.90625 19.125L9.28125 18.375C9.375 18.1406 9.60938 18.0938 9.75 18.0938C9.84375 18.0938 10.0781 18.1406 10.2188 18.4219C10.5469 19.0781 11.25 19.5 12 19.5H14.25C14.625 19.5 15 19.1719 15 18.75C15 18.375 14.625 18 14.25 18H12C11.8125 18 11.625 17.9062 11.5312 17.7188C10.9688 16.5938 9.375 16.3125 8.4375 17.0625Z" fill="#194CBB"/>
<path d="M19.2188 18.25C19.7188 18.0625 20.2812 18.0625 20.7812 18.25L26.2812 20.5938C26.9688 20.9062 27.5 21.5625 27.5 22.375C27.4688 25.5 26.1875 31.1562 20.8125 33.75C20.2812 34 19.6875 34 19.1562 33.75C13.7812 31.1562 12.5 25.5 12.5 22.375C12.4688 21.5625 13 20.9062 13.6875 20.5938L19.2188 18.25ZM20.375 19.1875C20.125 19.0625 19.8438 19.0625 19.5938 19.1875L14.0625 21.5312C13.7188 21.6562 13.4688 22 13.5 22.375C13.5 25.3125 14.7188 30.5 19.5938 32.8438C19.8438 32.9688 20.125 32.9688 20.375 32.8438C25.25 30.5 26.4688 25.3125 26.5 22.375C26.5 22 26.25 21.6562 25.9062 21.5312L20.375 19.1875Z" fill="#194CBB"/>
</svg>
