<svg width="35" height="30" viewBox="0 0 35 30" fill="none" xmlns="http://www.w3.org/2000/svg">
<path d="M28.4986 21.4084C28.4986 21.245 28.6243 21.1067 28.8003 21.1067H31.0127C31.1761 21.1067 31.3144 21.245 31.3144 21.4084V23.6208C31.3144 23.7968 31.1761 23.9225 31.0127 23.9225C30.8367 23.9225 30.711 23.7968 30.711 23.6208V22.1375L28.2974 24.5385C28.1843 24.6642 27.9957 24.6642 27.8826 24.5385L26.4873 23.1432L24.5766 25.0413C24.4634 25.167 24.2749 25.167 24.1617 25.0413C24.036 24.9282 24.036 24.7396 24.1617 24.6139L26.2736 22.5021C26.3867 22.3889 26.5753 22.3889 26.6884 22.5021L28.0963 23.91L30.2836 21.7101H28.8003C28.6243 21.7101 28.4986 21.5844 28.4986 21.4084Z" fill="#194CBB"/>
<path fill-rule="evenodd" clip-rule="evenodd" d="M27.6909 28.6586C30.7492 28.6586 33.2284 26.1794 33.2284 23.1211C33.2284 20.0629 30.7492 17.5837 27.6909 17.5837C24.6327 17.5837 22.1535 20.0629 22.1535 23.1211C22.1535 26.1794 24.6327 28.6586 27.6909 28.6586ZM27.6909 29.6586C31.3014 29.6586 34.2284 26.7317 34.2284 23.1211C34.2284 19.5106 31.3014 16.5837 27.6909 16.5837C24.0804 16.5837 21.1535 19.5106 21.1535 23.1211C21.1535 26.7317 24.0804 29.6586 27.6909 29.6586Z" fill="#194CBB"/>
<path fill-rule="evenodd" clip-rule="evenodd" d="M26.2479 3.14388C26.897 3.40281 27.3266 4.05891 27.3266 4.7915V15.9745C23.1608 16.176 20.414 19.3423 20.414 23.0533C20.414 23.6078 20.414 23.5994 20.414 24.2713H18.0462C17.1248 24.2713 16.3778 23.4827 16.3778 22.51V2.43395L10.1898 4.91762V8.80962L12.4877 9.70681C12.945 9.88535 13.2476 10.3378 13.2476 10.8429V23.0608C13.2476 23.7316 12.7214 24.2753 12.0723 24.2753H9.47454C9.43568 24.2812 9.39596 24.2842 9.35557 24.2842C9.31518 24.2842 9.27546 24.2812 9.2366 24.2753H6.70989C6.06078 24.2753 5.53457 23.7316 5.53457 23.0608V9.21727L1.17532 10.9299V23.6769C1.17532 24.0123 0.91222 24.2842 0.587663 24.2842C0.263106 24.2842 0 24.0123 0 23.6769V10.5111C0 10.259 0.150761 10.0331 0.37882 9.94349L6.18642 7.66184C6.47692 7.51249 6.81713 7.49281 7.12531 7.61314L8.52137 8.15821V4.31029C8.52137 3.94466 8.73538 3.61706 9.05912 3.48713L17.3031 0.178249C17.7155 -0.0383351 18.1984 -0.0668741 18.6359 0.107623L26.2479 3.14388Z" fill="#194CBB"/>
</svg>
