<svg width="75" height="75" viewBox="0 0 25 25" fill="none" xmlns="http://www.w3.org/2000/svg">
<path d="M18.0938 2.07812C19.2656 0.90625 21.1875 0.90625 22.3594 2.07812L22.9219 2.64062C24.0938 3.8125 24.0938 5.73438 22.9219 6.90625L12.6094 17.2188C12.1875 17.6406 11.6719 17.875 11.1562 18.0156L6.89062 19C6.65625 19.0469 6.375 19 6.1875 18.8125C6 18.625 5.95312 18.3438 6 18.1094L6.98438 13.8438C7.125 13.3281 7.35938 12.8125 7.78125 12.3906L18.0938 2.07812ZM21.2812 3.15625C20.7188 2.54688 19.7344 2.54688 19.1719 3.15625L17.9062 4.375L20.625 7.09375L21.8438 5.82812C22.4531 5.26562 22.4531 4.28125 21.8438 3.71875L21.2812 3.15625ZM8.4375 14.1719L7.73438 17.2656L10.7812 16.5625C11.0625 16.5156 11.3438 16.375 11.5312 16.1406L19.5469 8.125L16.875 5.45312L8.85938 13.4688C8.625 13.6562 8.48438 13.9375 8.4375 14.1719ZM9.75 4C10.125 4 10.5 4.375 10.5 4.75C10.5 5.17188 10.125 5.5 9.75 5.5H3.75C2.48438 5.5 1.5 6.53125 1.5 7.75V21.25C1.5 22.5156 2.48438 23.5 3.75 23.5H17.25C18.4688 23.5 19.5 22.5156 19.5 21.25V15.25C19.5 14.875 19.8281 14.5 20.25 14.5C20.625 14.5 21 14.875 21 15.25V21.25C21 23.3594 19.3125 25 17.25 25H3.75C1.64062 25 0 23.3594 0 21.25V7.75C0 5.6875 1.64062 4 3.75 4H9.75Z" fill="#194CBB"/>
</svg>
