<svg width="63" height="66" viewBox="0 0 21 22" fill="none" xmlns="http://www.w3.org/2000/svg">
<path d="M9.51562 16.8125C9.23438 17.0938 8.71875 17.0938 8.4375 16.8125L5.8125 14.1875C5.53125 13.9062 5.53125 13.3906 5.8125 13.1094C6.09375 12.8281 6.60938 12.8281 6.89062 13.1094L9 15.2188L13.6875 10.4844C13.9688 10.2031 14.4844 10.2031 14.7656 10.4844C15.0469 10.7656 15.0469 11.2812 14.7656 11.5625L9.51562 16.8125ZM20.7188 6.6875C20.9062 7.0625 21 7.48438 21 7.90625V18.5C21 20.1875 19.6406 21.5 18 21.5H3C1.3125 21.5 0 20.1875 0 18.5V7.90625C0 7.48438 0.046875 7.0625 0.234375 6.6875L2.20312 2.32812C2.67188 1.20312 3.75 0.5 4.92188 0.5H16.0312C17.2031 0.5 18.2812 1.20312 18.75 2.32812L20.7188 6.6875ZM11.25 6.5H18.9844L17.3906 2.89062C17.1562 2.375 16.6406 2 16.0312 2H11.25V6.5ZM1.5 8V18.5C1.5 19.3438 2.15625 20 3 20H18C18.7969 20 19.5 19.3438 19.5 18.5V8H1.5ZM9.75 2H4.92188C4.3125 2 3.79688 2.375 3.5625 2.89062L1.96875 6.5H9.75V2Z" fill="#194CBB"/>
</svg>
