<svg xmlns="http://www.w3.org/2000/svg" height="64" width="64" viewBox="0 0 64 64"><path fill="none" d="M0 0h64v64H0z"/><path fill="#194cbb" d="M51.06 46.5c.41 0 .84.32 1.18.92v.02l5.21 9.01c.34.59.41 1.13.21 1.48-.21.36-.71.56-1.39.56H45.84c-.68 0-1.18-.21-1.39-.56s-.13-.9.21-1.48l5.21-9.03c.34-.59.77-.92 1.18-.92m.01-2c-1.14 0-2.2.7-2.91 1.92l-5.22 9.04c-.7 1.22-.78 2.49-.21 3.48.57 1 1.71 1.57 3.12 1.57h10.43c1.41 0 2.55-.57 3.12-1.57.57-.99.49-2.26-.21-3.48l-5.21-9.02c-.7-1.23-1.76-1.93-2.92-1.93Zm1 8.86v-3.5c0-.55-.45-1-1-1s-1 .45-1 1v3.5c0 .55.45 1 1 1s1-.45 1-1M31.07 46.5s2.09 1.78 4.82 1.78c0 0 .02 4.56 0 4.74-.12.88-.49 1.7-1.01 2.36-.84 1.16-2.24 2.19-3.81 3.11h-.02c-1.57-.92-2.97-1.95-3.81-3.11-.52-.66-.88-1.48-1.01-2.36-.02-.18 0-4.74 0-4.74 2.73 0 4.83-1.78 4.83-1.78m0-2.6-1.28 1.07s-1.62 1.32-3.55 1.32h-1.99v1.99c-.03 4.66 0 4.82 0 4.94v.08c.17 1.19.65 2.33 1.4 3.29.91 1.25 2.35 2.44 4.4 3.64l.47.27h1.08l.48-.27c2.05-1.2 3.49-2.39 4.4-3.64.74-.97 1.22-2.1 1.39-3.29v-.08c.02-.12.04-.28.02-4.94v-1.99h-2c-1.93 0-3.51-1.3-3.53-1.31l-1.29-1.07Zm-19.99 2.6s2.09 1.78 4.82 1.78c0 0 .02 4.56 0 4.74-.12.88-.49 1.7-1.01 2.36-.84 1.16-2.24 2.19-3.81 3.11h-.02c-1.57-.92-2.97-1.95-3.81-3.11-.52-.66-.88-1.48-1.01-2.36-.02-.18 0-4.74 0-4.74 2.73 0 4.83-1.78 4.83-1.78m0-2.6-1.28 1.07s-1.62 1.32-3.55 1.32H4.24v1.99c-.03 4.66 0 4.82 0 4.94v.08c.16 1.19.64 2.33 1.39 3.29.91 1.25 2.35 2.44 4.4 3.64l.47.27h1.08l.48-.27c2.05-1.2 3.49-2.39 4.4-3.64.74-.97 1.22-2.1 1.39-3.29v-.08c.01-.12.03-.28 0-4.94v-1.99h-2c-1.93 0-3.51-1.3-3.53-1.31l-1.29-1.07Zm41-2.49v-1c0-.55-.45-1-1-1s-1 .45-1 1v1c0 .55.45 1 1 1s1-.45 1-1m0-4.85v-1c0-.55-.45-1-1-1h-1c-.55 0-1 .45-1 1s.45 1 1 1c0 .55.45 1 1 1s1-.45 1-1m-4.2-1c0-.55-.45-1-1-1h-1.6c-.55 0-1 .45-1 1s.45 1 1 1h1.6c.55 0 1-.45 1-1m-4.8 0c0-.55-.45-1-1-1 0-.55-.45-1-1-1s-1 .45-1 1v1c0 .55.45 1 1 1h1c.55 0 1-.45 1-1m-2.99-5.86s-.01.03-.01.05v1.6c0 .55.45 1 1 1s1-.45 1-1v-1.6c0-.2-.08-.38-.18-.54-.57.26-1.18.43-1.81.49m-20.01-.58v5.43h-9c-.55 0-1 .45-1 1v5.86c0 .55.45 1 1 1s1-.45 1-1v-4.86h9c.55 0 1-.45 1-1V29.7c-.7-.07-1.37-.27-2-.58m10 4.44v7.86c0 .55.45 1 1 1s1-.45 1-1v-7.86zm1-11.6c-2.72 0-4.94-2.21-4.94-4.94s2.21-4.94 4.94-4.94S36 14.29 36 17.02s-2.21 4.94-4.94 4.94m0-7.87c-1.62 0-2.94 1.32-2.94 2.94s1.32 2.94 2.94 2.94S34 18.65 34 17.03s-1.32-2.94-2.94-2.94M19.99 18.2c.42-.24.68-.68.68-1.17s-.25-.93-.68-1.17l-.59-.34a2.687 2.687 0 0 1-.98-3.65l1.85-3.21a2.687 2.687 0 0 1 3.65-.98l.59.34c.42.24.93.25 1.35 0 .42-.24.68-.68.68-1.17v-.68c0-1.47 1.2-2.67 2.67-2.67h3.71c1.47 0 2.67 1.2 2.67 2.67v.68c0 .49.25.93.68 1.17.42.25.93.25 1.35 0l.59-.34c1.28-.74 2.91-.3 3.65.98l1.85 3.21c.73 1.27.3 2.91-.98 3.65l-.59.34c-.42.24-.68.68-.68 1.17s.25.93.68 1.17l.59.34c1.27.74 1.71 2.37.98 3.65l-1.85 3.21a2.687 2.687 0 0 1-3.65.98l-.59-.34c-.42-.25-.93-.24-1.35 0s-.68.68-.68 1.17v.68c0 1.47-1.2 2.67-2.67 2.67h-3.71c-1.47 0-2.67-1.2-2.67-2.67v-.68c0-.49-.25-.93-.68-1.17-.42-.25-.93-.24-1.35 0l-.59.34c-1.28.74-2.91.3-3.65-.98l-1.85-3.21a2.68 2.68 0 0 1 .98-3.65zm9.22-12.7c-.37 0-.67.3-.67.67v.68c0 1.21-.63 2.3-1.68 2.9-1.05.61-2.3.61-3.35 0l-.59-.34a.68.68 0 0 0-.92.24l-1.85 3.21a.67.67 0 0 0 .25.91l.59.34c1.05.61 1.68 1.69 1.68 2.9s-.63 2.3-1.68 2.9l-.59.34c-.32.19-.43.59-.25.91L22 24.37c.19.32.59.43.91.25l.59-.34c1.05-.61 2.3-.61 3.35 0s1.68 1.69 1.68 2.9v.68c0 .37.3.67.67.67h3.71c.37 0 .67-.3.67-.67v-.68c0-1.21.63-2.3 1.68-2.9 1.05-.61 2.3-.61 3.35 0l.59.34c.32.18.73.08.91-.25l1.85-3.21a.66.66 0 0 0-.25-.91s-.59-.34-.59-.34c-1.05-.61-1.68-1.69-1.68-2.9s.63-2.3 1.68-2.9l.59-.34a.67.67 0 0 0 .25-.91l-1.85-3.21a.667.667 0 0 0-.92-.24l-.59.34c-1.05.61-2.3.61-3.35 0a3.32 3.32 0 0 1-1.68-2.9v-.68c0-.37-.3-.67-.67-.67h-3.7Zm21.85 50.08c-.55 0-1 .45-1 1s.45 1 1 1 1-.45 1-1-.45-1-1-1"/></svg>
