<svg width="78" height="78" viewBox="0 0 26 26" fill="none" xmlns="http://www.w3.org/2000/svg">
<path d="M18.4844 1.79688C19.5156 0.8125 21.1562 0.8125 22.1875 1.79688L24.2031 3.8125C25.1875 4.84375 25.1875 6.48438 24.2031 7.51562L9.53125 22.1875C8.96875 22.7031 8.3125 23.125 7.60938 23.3125L1.9375 25C1.65625 25.0469 1.375 25 1.1875 24.8125C1 24.625 0.90625 24.3438 1 24.0625L2.6875 18.3906C2.875 17.6875 3.29688 17.0312 3.8125 16.4688L18.4844 1.79688ZM21.1094 2.875C20.6875 2.45312 19.9844 2.45312 19.5156 2.875L16.9844 5.45312L20.5469 9.01562L23.125 6.48438C23.5469 6.01562 23.5469 5.3125 23.125 4.89062L21.1094 2.875ZM4.09375 18.8125L2.82812 23.1719L7.1875 21.9062C7.65625 21.7188 8.125 21.4844 8.45312 21.1094L19.4688 10.0938L15.9062 6.48438L4.89062 17.5469C4.51562 17.875 4.23438 18.3438 4.09375 18.8125ZM9.10938 2.3125L12.4375 5.64062L11.3594 6.67188L9.85938 5.17188L8.26562 6.8125C7.98438 7.09375 7.46875 7.09375 7.1875 6.8125C6.90625 6.53125 6.90625 6.01562 7.1875 5.73438L8.82812 4.14062L8.03125 3.34375C7.46875 2.78125 6.48438 2.78125 5.92188 3.34375L3.29688 5.96875C2.73438 6.53125 2.73438 7.51562 3.29688 8.07812L6.625 11.4062L5.59375 12.4844L2.26562 9.15625C1.09375 7.98438 1.09375 6.0625 2.26562 4.89062L4.84375 2.3125C6.01562 1.14062 7.9375 1.14062 9.10938 2.3125ZM16.8438 23.7344L13.5156 20.4062L14.5938 19.375L17.9219 22.7031C18.4844 23.2656 19.4688 23.2656 20.0312 22.7031L22.6562 20.0781C23.2188 19.5156 23.2188 18.5312 22.6562 17.9688L21.8594 17.1719L20.2656 18.8125C19.9844 19.0938 19.4688 19.0938 19.1875 18.8125C18.9062 18.5312 18.9062 18.0156 19.1875 17.7344L20.8281 16.1406L19.3281 14.6406L20.3594 13.5625L23.6875 16.8906C24.8594 18.0625 24.8594 19.9844 23.6875 21.1562L21.1094 23.7344C19.9375 24.9062 18.0156 24.9062 16.8438 23.7344Z" fill="#194CBB"/>
</svg>
