<svg width="90" height="72" viewBox="0 0 30 24" fill="none" xmlns="http://www.w3.org/2000/svg">
<path d="M14.9531 15C17.6719 15 19.8281 12.8438 19.8281 10.125C19.8281 7.45312 17.625 5.25 14.9531 5.25C12.2812 5.25 10.125 7.45312 10.125 10.125C10.0781 12.8438 12.2812 15 14.9531 15ZM14.9531 6.75C16.8281 6.75 18.3281 8.29688 18.3281 10.125C18.3281 12 16.8281 13.5 14.9531 13.5C13.125 13.5 11.5781 12 11.5781 10.125C11.5781 8.29688 13.125 6.75 14.9531 6.75ZM23.25 9C22.7344 9 22.2188 9.14062 21.75 9.32812C21.375 9.51562 21.1875 9.9375 21.3281 10.3125C21.4688 10.7344 21.9375 10.9219 22.3594 10.7344C22.6406 10.5938 22.9219 10.5 23.25 10.5H26.2969C27.0469 10.5 27.75 10.9688 28.125 11.625C28.2656 11.8594 28.5 12 28.7812 12C29.3906 12 29.7188 11.3906 29.4375 10.875C28.7812 9.75 27.6094 9 26.2969 9H23.25ZM24 7.5C26.0625 7.5 27.75 5.85938 27.75 3.75C27.75 1.6875 26.0625 0 24 0C21.8906 0 20.25 1.6875 20.25 3.75C20.25 5.85938 21.8906 7.5 24 7.5ZM24 1.5C25.2188 1.5 26.25 2.53125 26.25 3.75C26.25 5.01562 25.2188 6 24 6C22.7344 6 21.75 5.01562 21.75 3.75C21.75 2.53125 22.7344 1.5 24 1.5ZM29.25 18.6562L28.7812 18.375C28.7812 18.1406 28.7812 17.9062 28.7812 17.6719L29.25 17.4375C29.625 17.2031 29.8594 16.6875 29.7188 16.2188C29.4375 15.375 28.9688 14.625 28.4062 13.9688C28.0781 13.5938 27.5625 13.5469 27.1406 13.7812L26.6719 14.0156C26.4844 13.9219 26.2969 13.7812 26.0625 13.6875V13.125C26.0625 12.6094 25.7344 12.2344 25.3125 12.1406C24.4219 11.9531 23.4844 11.9531 22.6875 12.1406C22.2188 12.2344 21.8906 12.6094 21.8906 13.125V13.6406C21.6562 13.7344 21.4688 13.875 21.2812 14.0156L20.8125 13.7344C20.4375 13.5 19.875 13.5469 19.5469 13.9219C18.9844 14.625 18.5156 15.375 18.2344 16.2656C18.0938 16.6875 18.2812 17.2031 18.7031 17.3906L19.1719 17.6719C19.1719 17.9062 19.1719 18.1406 19.1719 18.375L18.7031 18.6094C18.2812 18.8438 18.0938 19.3125 18.2344 19.8281C18.5156 20.625 18.9375 21.4219 19.5938 22.0781C19.875 22.4531 20.3906 22.5 20.8125 22.2656L21.2812 22.0312C21.4688 22.125 21.6562 22.2656 21.8906 22.3594V22.9219C21.8906 23.3906 22.2188 23.8125 22.6406 23.8594C23.1094 23.9531 23.5312 24 24 24C24.4219 24 24.8438 23.9531 25.2656 23.8594C25.7344 23.8125 26.0625 23.3906 26.0625 22.9219V22.3594C26.2969 22.2656 26.4844 22.125 26.6719 22.0312L27.1406 22.2656C27.5625 22.5469 28.0781 22.4531 28.3594 22.0781C28.9688 21.4688 29.4375 20.6719 29.7188 19.7812C29.8594 19.3594 29.625 18.8438 29.25 18.6562ZM27.2344 17.4375C27.3281 17.8125 27.3281 18.2344 27.2344 18.6094L27.1406 19.125L28.125 19.7344C27.9844 20.1094 27.7969 20.4375 27.5156 20.7656L26.5312 20.2031L26.1562 20.5312C25.8281 20.8125 25.4531 21 25.0781 21.1406L24.5625 21.3281V22.5C24.1875 22.5469 23.7656 22.5469 23.3906 22.5V21.3281L22.875 21.1406C22.5 21 22.125 20.8125 21.8438 20.5312L21.4219 20.2031L20.4375 20.7656C20.1562 20.4375 19.9688 20.1094 19.8281 19.7344L20.8125 19.125L20.7188 18.6094C20.625 18.2344 20.625 17.8125 20.7188 17.3906L20.8125 16.875L19.8281 16.3125C19.9688 15.9375 20.1562 15.6094 20.4375 15.2812L21.4219 15.8438L21.8438 15.5156C22.125 15.2344 22.5 15.0469 22.875 14.9062L23.3906 14.7188V13.5469C23.7656 13.5 24.1875 13.5 24.5625 13.5469V14.7188L25.0781 14.9062C25.4531 15.0469 25.8281 15.2344 26.1094 15.5156L26.5312 15.8438L27.5156 15.2812C27.7969 15.6094 27.9844 15.9375 28.125 16.3125L27.1406 16.9219L27.2344 17.4375ZM6 7.5C8.0625 7.5 9.75 5.85938 9.75 3.75C9.75 1.6875 8.0625 0 6 0C3.89062 0 2.25 1.6875 2.25 3.75C2.25 5.85938 3.89062 7.5 6 7.5ZM6 1.5C7.21875 1.5 8.25 2.53125 8.25 3.75C8.25 5.01562 7.21875 6 6 6C4.73438 6 3.75 5.01562 3.75 3.75C3.75 2.53125 4.73438 1.5 6 1.5ZM18 22.5H7.5C7.64062 20.0156 9.89062 18 12.6094 18H15.75C16.125 18 16.5 17.6719 16.5 17.25C16.5 16.875 16.125 16.5 15.75 16.5H12.6562C8.95312 16.5 6 19.3125 6 22.7812C6 23.4844 6.5625 24 7.3125 24H18C18.375 24 18.75 23.6719 18.75 23.25C18.75 22.875 18.375 22.5 18 22.5ZM24 15.75C22.7344 15.75 21.75 16.7812 21.75 18C21.75 19.2656 22.7344 20.25 24 20.25C25.2188 20.25 26.25 19.2656 26.25 18C26.25 16.7812 25.2188 15.75 24 15.75ZM24 18.75C23.5781 18.75 23.25 18.4219 23.25 18C23.25 17.625 23.5781 17.25 24 17.25C24.375 17.25 24.75 17.625 24.75 18C24.75 18.4219 24.375 18.75 24 18.75ZM7.59375 10.7344C7.96875 10.9219 8.4375 10.7344 8.625 10.3594C8.76562 9.98438 8.625 9.5625 8.25 9.375C7.78125 9.14062 7.26562 9 6.75 9H3.65625C1.64062 9 0 10.7812 0 12.8906V13.5C0 13.9219 0.328125 14.25 0.75 14.25C1.125 14.25 1.5 13.9219 1.5 13.5V12.8906C1.5 11.5781 2.48438 10.5 3.65625 10.5H6.75C7.03125 10.5 7.3125 10.5938 7.59375 10.7344Z" fill="#194CBB"/>
</svg>
