<svg xmlns="http://www.w3.org/2000/svg" width="32" height="32" 
fill="#194cbb" stroke="#194cbb" stroke-width="0.5">
<path d="M28 4C23.993 4 20.207 4 16.354.145a.5.5 0 0 0-.708 0C11.793 3.999 8.007 3.999 4 3.999a.5.5 0 0 0-.5.5v13c0 8.215 11.775 14.198 12.276 14.448q.008.001.014.004.096.047.21.049c.114.002.145-.02.21-.05.004-.002.01 0 .013-.003.502-.25 12.277-6.233 12.277-14.447v-13A.5.5 0 0 0 28 4m-.5 13.5c0 6.484-8.45 11.727-11 13.161V25.5h-1v5.161c-2.55-1.435-11-6.677-11-13.161V4.999c3.601-.006 7.307-.157 11-3.358v3.858h1V1.641c3.693 3.201 7.399 3.352 11 3.358zM17.183 24h-2.366a1.57 1.57 0 0 1-1.566-1.566v-.437a.99.99 0 0 0-.5-.867 1 1 0 0 0-1.003 0l-.378.218c-.362.21-.785.265-1.188.157a1.56 1.56 0 0 1-.951-.73l-1.184-2.05a1.57 1.57 0 0 1 .573-2.138l.38-.22a.99.99 0 0 0 .5-.867.99.99 0 0 0-.5-.868l-.379-.218a1.57 1.57 0 0 1-.573-2.14l1.183-2.05a1.57 1.57 0 0 1 2.139-.572l.377.218a.99.99 0 0 0 1.002 0 .99.99 0 0 0 .501-.867v-.437c0-.864.703-1.566 1.566-1.566h2.367c.863 0 1.566.702 1.566 1.566v.437c0 .361.187.686.5.867a.99.99 0 0 0 1.002 0l.38-.22a1.56 1.56 0 0 1 1.187-.155c.404.108.742.367.95.73l1.184 2.049c.21.362.265.784.157 1.188a1.55 1.55 0 0 1-.73.95l-.38.22a.99.99 0 0 0-.5.868c0 .362.187.686.5.867l.38.219a1.563 1.563 0 0 1 .573 2.139l-1.183 2.05a1.57 1.57 0 0 1-2.139.573l-.379-.219a.99.99 0 0 0-1.001 0 .99.99 0 0 0-.501.868v.437c0 .863-.703 1.565-1.566 1.565Zm-4.934-4.008c.344 0 .688.09 1.002.272.626.362 1 1.01 1 1.733v.437c0 .312.254.566.566.566h2.366a.566.566 0 0 0 .566-.566v-.437c0-.723.374-1.372 1.001-1.734a1.98 1.98 0 0 1 2.002 0l.379.22c.27.155.616.062.772-.208l1.183-2.05a.563.563 0 0 0-.207-.773l-.38-.219c-.626-.362-1-1.01-1-1.733s.374-1.372 1-1.734l.38-.22a.56.56 0 0 0 .208-.772l-1.184-2.05a.56.56 0 0 0-.773-.207l-.379.219a1.98 1.98 0 0 1-2.001 0 1.98 1.98 0 0 1-1.001-1.733v-.437A.566.566 0 0 0 17.183 8h-2.367a.566.566 0 0 0-.566.566v.437c0 .723-.374 1.371-1 1.733a1.98 1.98 0 0 1-2.002 0l-.378-.218a.566.566 0 0 0-.773.207l-1.183 2.05a.566.566 0 0 0 .207.772l.379.22a1.98 1.98 0 0 1 1 1.733 1.98 1.98 0 0 1-1.001 1.733l-.38.22a.566.566 0 0 0-.206.772l1.183 2.05a.56.56 0 0 0 .772.207l.38-.219c.312-.18.656-.27 1-.27M16 18.512c-1.662 0-3.013-1.35-3.013-3.012s1.351-3.014 3.013-3.014 3.013 1.352 3.013 3.014-1.351 3.013-3.013 3.013m0-5.026a2.015 2.015 0 0 0 0 4.027c1.11 0 2.013-.903 2.013-2.013S17.11 13.487 16 13.487"/>
</svg>