<svg width="56" height="54" viewBox="0 0 56 54" fill="none" xmlns="http://www.w3.org/2000/svg">
<path d="M35 36H36V44.5H42.0415C42.2795 43.0811 43.5135 42 45 42C46.6569 42 48 43.3431 48 45C48 46.6569 46.6569 48 45 48C43.5135 48 42.2795 46.9189 42.0415 45.5H35V36Z" fill="#194CBB"/>
<path d="M28.5 40.0415C29.9189 40.2795 31 41.5135 31 43C31 44.6569 29.6569 46 28 46C26.3431 46 25 44.6569 25 43C25 41.5135 26.0811 40.2795 27.5 40.0415V36H28.5V40.0415Z" fill="#194CBB"/>
<path d="M21 48.5V36H20V47.5H13.9585C13.7205 46.0811 12.4865 45 11 45C9.34315 45 8 46.3431 8 48C8 49.6569 9.34315 51 11 51C12.4865 51 13.7205 49.9189 13.9585 48.5H21Z" fill="#194CBB"/>
<path fill-rule="evenodd" clip-rule="evenodd" d="M35.8369 7.21043C29.5483 -2.68813 10.4139 -1.18099 10.4139 14.8216C-2.60205 17.4071 -2.09972 35.9952 11.7897 37H45.5096C55.6625 37 58.7934 22.0257 49.3147 18.9926C48.6698 18.7863 47.9666 18.6352 47.2033 18.5479C47.6564 17.9284 48.0061 17.3035 48.2623 16.681C51.0944 9.80055 42.5081 3.20085 35.8369 7.21043ZM11.8645 35C6.05152 34.5495 3.20106 30.5548 3.01017 26.4115C2.81624 22.2021 5.36235 17.8641 10.8036 16.7832L12.4139 16.4634V14.8216C12.4139 11.2383 13.4763 8.61652 15.0289 6.78086C16.5939 4.93065 18.7627 3.75472 21.1681 3.26247C26.0686 2.25964 31.5232 4.15019 34.1488 8.28291L35.195 9.92969L36.8672 8.92464C39.6187 7.27092 42.8586 7.96175 44.9291 9.89981C45.9491 10.8546 46.6022 12.0451 46.7726 13.2842C46.9386 14.4913 46.6687 15.8908 45.589 17.3672L43.5582 20.1438L46.9759 20.5349C49.4591 20.819 50.9881 21.8754 51.8781 23.1528C52.7976 24.4724 53.1643 26.2177 52.9327 28.0353C52.4616 31.7323 49.6879 35 45.5096 35H11.8645Z" fill="#194CBB"/>
<path d="M35 36H36V44.5H42.0415C42.2795 43.0811 43.5135 42 45 42C46.6569 42 48 43.3431 48 45C48 46.6569 46.6569 48 45 48C43.5135 48 42.2795 46.9189 42.0415 45.5H35V36Z" stroke="#194CBB"/>
<path d="M28.5 40.0415C29.9189 40.2795 31 41.5135 31 43C31 44.6569 29.6569 46 28 46C26.3431 46 25 44.6569 25 43C25 41.5135 26.0811 40.2795 27.5 40.0415V36H28.5V40.0415Z" stroke="#194CBB"/>
<path d="M21 48.5V36H20V47.5H13.9585C13.7205 46.0811 12.4865 45 11 45C9.34315 45 8 46.3431 8 48C8 49.6569 9.34315 51 11 51C12.4865 51 13.7205 49.9189 13.9585 48.5H21Z" stroke="#194CBB"/>
<path fill-rule="evenodd" clip-rule="evenodd" d="M35.8369 7.21043C29.5483 -2.68813 10.4139 -1.18099 10.4139 14.8216C-2.60205 17.4071 -2.09972 35.9952 11.7897 37H45.5096C55.6625 37 58.7934 22.0257 49.3147 18.9926C48.6698 18.7863 47.9666 18.6352 47.2033 18.5479C47.6564 17.9284 48.0061 17.3035 48.2623 16.681C51.0944 9.80055 42.5081 3.20085 35.8369 7.21043ZM11.8645 35C6.05152 34.5495 3.20106 30.5548 3.01017 26.4115C2.81624 22.2021 5.36235 17.8641 10.8036 16.7832L12.4139 16.4634V14.8216C12.4139 11.2383 13.4763 8.61652 15.0289 6.78086C16.5939 4.93065 18.7627 3.75472 21.1681 3.26247C26.0686 2.25964 31.5232 4.15019 34.1488 8.28291L35.195 9.92969L36.8672 8.92464C39.6187 7.27092 42.8586 7.96175 44.9291 9.89981C45.9491 10.8546 46.6022 12.0451 46.7726 13.2842C46.9386 14.4913 46.6687 15.8908 45.589 17.3672L43.5582 20.1438L46.9759 20.5349C49.4591 20.819 50.9881 21.8754 51.8781 23.1528C52.7976 24.4724 53.1643 26.2177 52.9327 28.0353C52.4616 31.7323 49.6879 35 45.5096 35H11.8645Z" stroke="#194CBB"/>
</svg>
