<svg width="54" height="54" viewBox="0 0 54 54" fill="none" xmlns="http://www.w3.org/2000/svg">
<path d="M35.4234 47.3298C32.8289 48.406 29.9838 49 27 49C14.8497 49 5 39.1503 5 27C5 14.8497 14.8497 5 27 5C39.1503 5 49 14.8497 49 27C49 27.1161 48.9991 27.232 48.9973 27.3477C49.5984 27.4724 50.2974 27.5938 50.9685 27.6997C50.9756 27.7009 50.9828 27.702 50.9899 27.7031C50.9966 27.4696 51 27.2352 51 27C51 13.7452 40.2548 3 27 3C13.7452 3 3 13.7452 3 27C3 40.2548 13.7452 51 27 51C30.8531 51 34.494 50.092 37.7207 48.4784L35.4234 47.3298Z" fill="#194CBB"/>
<path fill-rule="evenodd" clip-rule="evenodd" d="M38.5 28C37 28.5 33 29 33 29V45L43 50L53 45V29C53 29 49 28.5 47.5 28C46 27.5 43 26 43 26C43 26 40 27.5 38.5 28ZM47.7569 33.216C48.0457 32.9236 48.5088 32.9285 48.7914 33.2279C49.0739 33.5271 49.0688 34.0069 48.78 34.2997L41.3935 41.784C41.2511 41.9282 41.0665 42 40.882 42C40.6919 42 40.5023 41.924 40.3589 41.772C40.3553 41.7684 40.3525 41.7644 40.3497 41.7604C40.3474 41.7571 40.345 41.7538 40.3424 41.7508L40.3371 41.7464C40.309 41.7233 40.281 41.7002 40.2559 41.672L37.1934 38.2262C36.9198 37.9183 36.9388 37.4389 37.236 37.1554C37.533 36.8716 37.9961 36.8913 38.2698 37.1994L40.9021 40.1612L47.7569 33.216Z" fill="#194CBB"/>
<path d="M33 18.5C33 20.433 31.433 22 29.5 22C28.3421 22 27.3156 21.4378 26.6785 20.5714L17.7927 25.3105C17.9269 25.6818 18 26.0824 18 26.5C18 26.9801 17.9033 27.4376 17.7284 27.8541L26.7867 33.289C27.4285 32.5023 28.4056 32 29.5 32C30.4793 32 31.3647 32.4022 32 33.0505V37.9495C31.3647 38.5978 30.4793 39 29.5 39C27.567 39 26 37.433 26 35.5C26 35.02 26.0966 34.5626 26.2715 34.1461L17.2132 28.7111C16.5714 29.4977 15.5944 30 14.5 30C12.567 30 11 28.433 11 26.5C11 24.567 12.567 23 14.5 23C15.6578 23 16.6843 23.5622 17.3214 24.4285L26.2073 19.6894C26.0731 19.3181 26 18.9176 26 18.5C26 16.567 27.567 15 29.5 15C31.433 15 33 16.567 33 18.5Z" fill="#194CBB"/>
<path d="M35.4234 47.3298C32.8289 48.406 29.9838 49 27 49C14.8497 49 5 39.1503 5 27C5 14.8497 14.8497 5 27 5C39.1503 5 49 14.8497 49 27C49 27.1161 48.9991 27.232 48.9973 27.3477C49.5984 27.4724 50.2974 27.5938 50.9685 27.6997C50.9756 27.7009 50.9828 27.702 50.9899 27.7031C50.9966 27.4696 51 27.2352 51 27C51 13.7452 40.2548 3 27 3C13.7452 3 3 13.7452 3 27C3 40.2548 13.7452 51 27 51C30.8531 51 34.494 50.092 37.7207 48.4784L35.4234 47.3298Z" stroke="#194CBB"/>
<path fill-rule="evenodd" clip-rule="evenodd" d="M38.5 28C37 28.5 33 29 33 29V45L43 50L53 45V29C53 29 49 28.5 47.5 28C46 27.5 43 26 43 26C43 26 40 27.5 38.5 28ZM47.7569 33.216C48.0457 32.9236 48.5088 32.9285 48.7914 33.2279C49.0739 33.5271 49.0688 34.0069 48.78 34.2997L41.3935 41.784C41.2511 41.9282 41.0665 42 40.882 42C40.6919 42 40.5023 41.924 40.3589 41.772C40.3553 41.7684 40.3525 41.7644 40.3497 41.7604C40.3474 41.7571 40.345 41.7538 40.3424 41.7508L40.3371 41.7464C40.309 41.7233 40.281 41.7002 40.2559 41.672L37.1934 38.2262C36.9198 37.9183 36.9388 37.4389 37.236 37.1554C37.533 36.8716 37.9961 36.8913 38.2698 37.1994L40.9021 40.1612L47.7569 33.216Z" stroke="#194CBB"/>
<path d="M33 18.5C33 20.433 31.433 22 29.5 22C28.3421 22 27.3156 21.4378 26.6785 20.5714L17.7927 25.3105C17.9269 25.6818 18 26.0824 18 26.5C18 26.9801 17.9033 27.4376 17.7284 27.8541L26.7867 33.289C27.4285 32.5023 28.4056 32 29.5 32C30.4793 32 31.3647 32.4022 32 33.0505V37.9495C31.3647 38.5978 30.4793 39 29.5 39C27.567 39 26 37.433 26 35.5C26 35.02 26.0966 34.5626 26.2715 34.1461L17.2132 28.7111C16.5714 29.4977 15.5944 30 14.5 30C12.567 30 11 28.433 11 26.5C11 24.567 12.567 23 14.5 23C15.6578 23 16.6843 23.5622 17.3214 24.4285L26.2073 19.6894C26.0731 19.3181 26 18.9176 26 18.5C26 16.567 27.567 15 29.5 15C31.433 15 33 16.567 33 18.5Z" stroke="#194CBB"/>
</svg>
