<svg xmlns="http://www.w3.org/2000/svg" width="360" height="280" viewBox="0 0 360 256" version="1.1">
<path d="" fill="#194CBB" fill-rule="evenodd"/>
<path d="M 164.124 1.578 C 157.048 3.481, 146.635 9.033, 140.878 13.972 C 134.975 19.036, 127.580 29.869, 125.004 37.225 C 118.717 55.183, 121.021 73.508, 131.512 88.992 C 142.451 105.137, 159.216 114, 178.816 114 C 195.167 114, 207.038 108.998, 219.086 97.034 C 230.549 85.650, 236 72.748, 236 57 C 236 41.252, 230.549 28.350, 219.086 16.966 C 206.871 4.835, 195.077 -0.058, 178.356 0.066 C 173.485 0.102, 167.081 0.782, 164.124 1.578 M 171 13.126 C 153.196 16.013, 137.891 31.735, 134.815 50.296 C 130.897 73.941, 148.116 97.256, 172.258 100.995 C 191.286 103.941, 210.758 93.288, 219.299 75.259 C 222.323 68.873, 222.500 67.865, 222.500 57 C 222.500 46.135, 222.323 45.127, 219.299 38.741 C 212.992 25.429, 199.690 15.292, 185.500 12.986 C 178.757 11.891, 178.605 11.892, 171 13.126 M 53.103 51.547 C 36.799 55.083, 23.407 69.508, 21.158 85.954 C 19.345 99.208, 23.229 111.195, 32.479 120.892 C 52.479 141.860, 86.693 136.610, 99.548 110.601 C 111.877 85.654, 97.002 56.169, 69.526 51.089 C 62.342 49.761, 61.184 49.794, 53.103 51.547 M 284.949 51.768 C 268.799 56.126, 256.744 69.441, 254.104 85.836 C 250.312 109.383, 268.304 131.892, 292.373 133.712 C 321.200 135.892, 343.556 107.943, 335.142 80.243 C 328.651 58.871, 306.079 46.066, 284.949 51.768 M 55.332 63.959 C 42.892 66.922, 33.674 78.821, 33.611 92 C 33.509 113.272, 55.357 127.216, 74.558 118.132 C 85.325 113.039, 91 103.840, 91 91.482 C 91 73.332, 73.305 59.678, 55.332 63.959 M 288.500 63.880 C 275.070 67.426, 266.456 78.700, 266.633 92.500 C 266.742 101.063, 268.599 105.587, 274.664 112.072 C 286.633 124.867, 307.482 123.674, 318.132 109.584 C 322.792 103.418, 324.411 97.707, 323.768 89.701 C 322.601 75.156, 311.622 64.339, 297.113 63.437 C 294.026 63.245, 290.150 63.444, 288.500 63.880 M 137.634 124.586 C 129.468 126.563, 120.799 131.431, 114.626 137.505 C 108.458 143.576, 104.948 149.249, 102.063 157.812 C 100.135 163.535, 99.985 165.914, 100.231 186.736 L 100.500 209.425 103.250 210.962 C 105.723 212.345, 106.277 212.345, 108.750 210.964 L 111.500 209.428 112.088 187.464 C 112.608 168.076, 112.935 164.836, 114.877 159.839 C 118.488 150.547, 125.554 143.100, 135 138.630 C 139.352 136.570, 140.783 136.500, 178.520 136.500 L 217.540 136.500 224.143 139.750 C 231.970 143.603, 238.114 149.878, 241.840 157.825 C 244.410 163.308, 244.517 164.257, 245 185.841 C 245.492 207.832, 245.537 208.212, 247.861 210.091 C 250.890 212.541, 253.488 212.512, 256 210 C 257.866 208.134, 258 206.667, 258 188.049 C 258 177.076, 257.503 165.714, 256.895 162.799 C 252.987 144.059, 236.941 128.013, 218.201 124.105 C 209.979 122.391, 145.105 122.778, 137.634 124.586 M 27.286 144.451 C 17.038 147.653, 7.872 155.774, 3.160 165.825 C 0.573 171.344, 0.500 172.020, 0.500 190.458 L 0.500 209.417 3.250 210.958 C 5.724 212.345, 6.276 212.346, 8.750 210.965 L 11.500 209.430 12.080 192.465 C 12.495 180.318, 13.106 174.466, 14.233 171.860 C 16.523 166.562, 22.367 160.531, 27.779 157.882 C 32.290 155.674, 33.712 155.554, 59.706 155.191 C 89.483 154.776, 89.333 154.808, 89.333 148.805 C 89.333 143.170, 88.387 142.993, 58.559 143.067 C 39.144 143.115, 30.310 143.506, 27.286 144.451 M 269.704 144.774 C 267.502 147.207, 267.524 151.265, 269.750 153.255 C 271.223 154.572, 275.699 154.874, 298 155.160 L 324.500 155.500 330.208 158.303 C 333.456 159.898, 337.232 162.768, 338.970 164.963 C 344.059 171.388, 345 175.604, 345 191.991 C 345 205.388, 345.189 206.970, 347.073 209.365 C 349.579 212.552, 352.830 212.738, 355.906 209.873 C 358.145 207.787, 358.183 207.401, 357.845 190.123 C 357.504 172.702, 357.463 172.423, 354.307 165.759 C 350.370 157.449, 343.438 150.333, 335.478 146.431 L 329.500 143.500 300.454 143.196 C 273.064 142.909, 271.311 142.999, 269.704 144.774 M 158.591 164.023 C 151.229 170.809, 148.346 180.643, 150.316 192.250 C 151.031 196.463, 150.918 197.001, 149.311 197.010 C 145.534 197.030, 137.284 201.870, 133.287 206.411 C 128.342 212.029, 126 218.332, 126 226.023 C 126 232.367, 127.811 235, 132.174 235 C 135.959 235, 138 232.072, 138 226.639 C 138 220.469, 139.884 216.187, 144.309 212.302 C 157.670 200.570, 178.423 215.952, 171.215 232.246 C 168.223 239.011, 163.412 242.165, 154.894 242.946 C 147.371 243.635, 146.041 244.576, 146.015 249.227 C 145.991 253.543, 149.728 255.376, 157.309 254.767 C 164.167 254.217, 170.014 251.682, 175.462 246.900 L 178.979 243.811 183.545 247.831 C 188.961 252.598, 195.371 255, 202.678 255 C 206.667 255, 208.501 254.499, 210 253 C 214.543 248.457, 210.896 243, 203.316 243 C 196.605 243, 190.532 239.764, 187.486 234.566 C 181.601 224.524, 186.582 212.303, 197.949 208.897 C 209.194 205.528, 220 214.758, 220 227.733 C 220 232.449, 220.284 233.172, 222.540 234.200 C 224.251 234.980, 225.955 235.050, 227.756 234.417 C 231.501 233.100, 232.642 228.554, 231.189 220.740 C 229.139 209.718, 222.126 201.458, 211.795 197.899 C 208.466 196.751, 206.653 195.596, 206.911 194.787 C 207.137 194.079, 207.523 190.500, 207.769 186.834 C 208.385 177.644, 206.101 171.135, 200.060 164.868 C 194.943 159.560, 191.531 158.650, 188.655 161.829 C 186.011 164.750, 186.690 167.940, 190.938 172.548 C 197.074 179.206, 197.737 188.723, 192.538 195.538 C 189.015 200.158, 185.155 202, 179 202 C 173.062 202, 169.264 200.291, 165.645 195.990 C 159.665 188.883, 160.165 180.397, 167.032 172.463 C 171.477 167.327, 171.928 164.928, 169 162 C 166.037 159.037, 163.455 159.539, 158.591 164.023 M 168.500 185.195 C 164.430 187.503, 163.776 191.776, 167 195 C 169.791 197.791, 173.437 197.532, 175.927 194.365 C 178.613 190.951, 178.540 189.449, 175.545 186.455 C 172.836 183.746, 171.483 183.504, 168.500 185.195 M 182.455 186.455 C 179.692 189.217, 179.507 190.194, 181.150 193.316 C 182.653 196.172, 183.940 196.966, 187.095 196.985 C 192.861 197.019, 195.039 189.749, 190.365 186.073 C 186.951 183.387, 185.449 183.460, 182.455 186.455 M 151.394 212.521 C 149.257 215.783, 150.389 219.887, 153.911 221.643 C 156.978 223.172, 160.087 222.020, 162 218.645 C 163.336 216.289, 163.333 215.700, 161.969 213.250 C 159.731 209.231, 153.817 208.823, 151.394 212.521 M 196.655 211.829 C 193.038 215.826, 195.832 222, 201.257 222 C 204.663 222, 207 219.558, 207 216 C 207 214.429, 206.293 212.436, 205.429 211.571 C 203.307 209.450, 198.685 209.585, 196.655 211.829 M 160.223 224.557 C 157.394 226.538, 157.282 231.282, 160 234 C 162.403 236.403, 164.786 236.538, 167.777 234.443 C 172.296 231.278, 169.563 223, 164 223 C 163.145 223, 161.445 223.701, 160.223 224.557 M 189 225 C 187.900 226.100, 187 228.125, 187 229.500 C 187 232.523, 190.234 236, 193.045 236 C 195.599 236, 200 231.718, 200 229.234 C 200 226.522, 196.305 223, 193.461 223 C 192.107 223, 190.100 223.900, 189 225" 
      stroke="#194CBB" stroke-width="5" fill="#194CBB" fill-rule="evenodd"/>
</svg>