<svg width="54" height="72" viewBox="0 0 18 24" fill="none" xmlns="http://www.w3.org/2000/svg">
<path d="M8.25 10.5V15C8.25 15.4219 8.57812 15.75 9 15.75H13.5C13.875 15.75 14.25 15.4219 14.25 15C14.25 12.1406 11.8594 9.75 9 9.75C8.57812 9.75 8.25 10.125 8.25 10.5ZM9.75 11.3438C11.2031 11.625 12.375 12.7969 12.6562 14.25H9.75V11.3438ZM8.625 19.125C6.51562 19.125 4.875 17.4844 4.875 15.375C4.875 13.875 5.76562 12.5625 7.125 11.9531V10.4062C4.92188 11.0625 3.375 13.0312 3.375 15.375C3.375 18.2812 5.71875 20.625 8.625 20.625C10.9688 20.625 12.9375 19.0781 13.5938 16.875H12.0469C11.4375 18.2344 10.125 19.125 8.625 19.125ZM17.1094 5.90625L12.0938 0.890625C11.5312 0.328125 10.7812 0 9.98438 0H3C1.3125 0 0 1.35938 0 3V21C0 22.6875 1.3125 24 3 24H15C16.6406 24 18 22.6875 18 21V8.01562C18 7.21875 17.6719 6.46875 17.1094 5.90625ZM10.5 1.64062C10.6875 1.6875 10.875 1.78125 11.0625 1.96875L16.0312 6.9375C16.2188 7.125 16.3125 7.3125 16.3594 7.5H11.25C10.8281 7.5 10.5 7.17188 10.5 6.75V1.64062ZM16.5 21C16.5 21.8438 15.7969 22.5 15 22.5H3C2.15625 22.5 1.5 21.8438 1.5 21V3C1.5 2.20312 2.15625 1.5 3 1.5H9V6.75C9 8.01562 9.98438 9 11.25 9H16.5V21Z" fill="#194CBB"/>
</svg>
