<svg xmlns="http://www.w3.org/2000/svg" width="40" height="40" viewBox="0 0 40 40" fill="none">
<path d="M4 20C4 11.1634 11.1634 4 20 4C28.8366 4 36 11.1634 36 20C36 28.8366 28.8366 36 20 36C11.1634 36 4 28.8366 4 20Z" fill="#194CBB"/>
<path d="M31.8659 23.615C31.9151 23.5922 31.96 23.5713 32 23.5526C32.04 23.5713 32.0849 23.5922 32.1341 23.615C32.3491 23.7148 32.647 23.8514 32.9782 23.9986C33.6329 24.2895 34.4439 24.6338 34.9987 24.8099C35.5679 24.9906 36.5703 25.1622 37.3944 25.2861C37.8141 25.3492 38.2002 25.4017 38.4813 25.4385C38.4876 25.4393 38.4938 25.4401 38.5 25.4409V35.351L32 38.4462L25.5 35.351V25.4409C25.5062 25.4401 25.5124 25.4393 25.5187 25.4385C25.7998 25.4017 26.1859 25.3492 26.6056 25.2861C27.4297 25.1622 28.4321 24.9906 29.0013 24.8099C29.5561 24.6338 30.3671 24.2895 31.0218 23.9986C31.353 23.8514 31.6509 23.7148 31.8659 23.615Z" fill="#194CBB" stroke="white"/>
<path d="M36.0538 27.8186C35.8559 27.619 35.5318 27.6157 35.3296 27.8106L30.5313 32.4408L28.6886 30.4662C28.4971 30.2608 28.1729 30.2477 27.965 30.4369C27.757 30.6259 27.7436 30.9455 27.9352 31.1508L30.0789 33.448C30.0976 33.4679 30.1186 33.4841 30.1395 33.5005C30.1436 33.505 30.1465 33.5103 30.151 33.5147C30.2514 33.616 30.3842 33.6667 30.5172 33.6667C30.6464 33.6667 30.7755 33.6188 30.8753 33.5226L36.0458 28.5331C36.248 28.3379 36.2516 28.0181 36.0538 27.8186Z" fill="white"/>
<path d="M20.4339 11.2377C20.1622 11.345 19.8734 11.3944 19.5863 11.3865L20.0052 15.5423C20.2881 15.4917 20.575 15.4698 20.8612 15.4763L20.4339 11.2377Z" fill="white"/>
<path d="M12.6739 17.6464C12.6538 17.9317 12.5932 18.2145 12.4924 18.4854L16.4868 19.418C16.51 19.1327 16.5616 18.8494 16.6414 18.5727L12.6739 17.6464Z" fill="white"/>
<path d="M24.47 17.6008C24.6169 17.8515 24.736 18.1137 24.8275 18.383L27.4904 16.9532C27.3004 16.7278 27.149 16.4815 27.036 16.223L24.47 17.6008Z" fill="white"/>
<path d="M19.8641 23.9631C19.5849 23.9034 19.3107 23.8158 19.0461 23.7004L18.0157 26.4779C18.292 26.5461 18.5613 26.6491 18.8166 26.7865L19.8641 23.9631Z" fill="white"/>
<path fill-rule="evenodd" clip-rule="evenodd" d="M22.2339 21.3299C23.0973 20.5182 23.1392 19.1602 22.3275 18.2968C21.5157 17.4334 20.1578 17.3916 19.2944 18.2033C18.431 19.015 18.3891 20.373 19.2009 21.2364C20.0126 22.0998 21.3705 22.1417 22.2339 21.3299ZM23.7037 22.8932C25.4305 21.2698 25.5143 18.5539 23.8908 16.8271C22.2673 15.1003 19.5514 15.0165 17.8246 16.64C16.0978 18.2634 16.0141 20.9794 17.6375 22.7062C19.261 24.4329 21.9769 24.5167 23.7037 22.8932Z" fill="white"/>
<path fill-rule="evenodd" clip-rule="evenodd" d="M31.406 16.7388C32.3557 15.8459 32.4018 14.3522 31.5088 13.4024C30.6159 12.4527 29.1222 12.4066 28.1725 13.2995C27.2227 14.1924 27.1767 15.6862 28.0696 16.6359C28.9625 17.5857 30.4562 17.6317 31.406 16.7388ZM31.8469 17.2078C33.0556 16.0714 33.1143 14.1702 31.9778 12.9615C30.8414 11.7527 28.9403 11.6941 27.7315 12.8305C26.5228 13.967 26.4641 15.8681 27.6006 17.0769C28.737 18.2856 30.6381 18.3442 31.8469 17.2078Z" fill="white"/>
<path fill-rule="evenodd" clip-rule="evenodd" d="M20.8209 10.4922C21.5116 9.84284 21.5451 8.75648 20.8957 8.06576C20.2463 7.37505 19.16 7.34154 18.4693 7.99093C17.7785 8.64031 17.745 9.72668 18.3944 10.4174C19.0438 11.1081 20.1302 11.1416 20.8209 10.4922ZM21.1149 10.8049C21.9782 9.99316 22.0201 8.6352 21.2084 7.77181C20.3967 6.90841 19.0387 6.86653 18.1753 7.67826C17.3119 8.49 17.27 9.84796 18.0818 10.7113C18.8935 11.5747 20.2515 11.6166 21.1149 10.8049Z" fill="white"/>
<path fill-rule="evenodd" clip-rule="evenodd" d="M11.294 19.1545C12.2438 18.2616 12.2898 16.7679 11.3969 15.8181C10.504 14.8684 9.01028 14.8223 8.06054 15.7152C7.11081 16.6081 7.06474 18.1019 7.95765 19.0516C8.85055 20.0014 10.3443 20.0474 11.294 19.1545ZM11.735 19.6235C12.9437 18.4871 13.0024 16.586 11.8659 15.3772C10.7295 14.1685 8.82836 14.1098 7.61961 15.2462C6.41086 16.3827 6.35223 18.2838 7.48865 19.4926C8.62508 20.7013 10.5262 20.76 11.735 19.6235Z" fill="white"/>
<path fill-rule="evenodd" clip-rule="evenodd" d="M19.0999 31.8427C20.2223 30.7875 20.2767 29.0221 19.2215 27.8997C18.1662 26.7773 16.4009 26.7229 15.2784 27.7781C14.156 28.8334 14.1016 30.5987 15.1568 31.7211C16.2121 32.8436 17.9774 32.898 19.0999 31.8427ZM19.5408 32.3117C20.9222 31.013 20.9892 28.8402 19.6905 27.4588C18.3917 26.0774 16.2189 26.0104 14.8375 27.3091C13.4561 28.6079 13.3891 30.7806 14.6878 32.1621C15.9866 33.5435 18.1594 33.6105 19.5408 32.3117Z" fill="white"/>
<circle cx="17.1891" cy="29.8104" r="1.71659" transform="rotate(-52.689 17.1891 29.8104)" fill="white"/>
<circle cx="29.7892" cy="15.0194" r="1.50201" transform="rotate(-52.689 29.7892 15.0194)" fill="white"/>
<circle cx="19.645" cy="9.24148" r="0.858294" transform="rotate(-52.689 19.645 9.24148)" fill="white"/>
<circle cx="9.6773" cy="17.435" r="1.50201" transform="rotate(-52.689 9.6773 17.435)" fill="white"/>
</svg>