<svg width="63" height="72" viewBox="0 0 21 24" fill="none" xmlns="http://www.w3.org/2000/svg">
<path d="M10.4531 4.5H10.5C12.2812 4.5 13.875 5.57812 14.5781 7.17188C15.3281 8.8125 15 10.6875 13.8281 12C13.8281 12.0469 13.8281 12 13.8281 12H14.25C15 12 15.7031 11.625 16.125 10.9688C16.3594 10.3594 16.5 9.70312 16.5 9C16.5 5.71875 13.7812 3 10.5 3C7.17188 3 4.5 5.71875 4.5 9C4.5 10.9219 5.39062 12.5625 6.75 13.6875C6.75 13.6406 6.75 13.5938 6.75 13.5C6.75 12.9844 6.89062 12.4688 7.125 12C5.95312 10.6875 5.625 8.8125 6.375 7.17188C7.07812 5.57812 8.67188 4.5 10.4531 4.5ZM2.25 10.5C2.625 10.5 3 10.1719 3 9.75V9C3 4.875 6.32812 1.5 10.5 1.5C14.625 1.5 18 4.875 18 9V9.75C18 11.8594 16.3125 13.5 14.25 13.5H12.75C12.75 12.7031 12.0469 12 11.25 12H9.75C8.90625 12 8.25 12.7031 8.25 13.5C8.25 14.3438 8.90625 15 9.75 15H14.25C17.1094 15 19.4531 12.6562 19.5 9.75V9C19.5 4.07812 15.4219 0 10.5 0C5.53125 0 1.5 4.07812 1.5 9V9.75C1.5 10.1719 1.82812 10.5 2.25 10.5ZM14.7188 16.5H6.23438C2.76562 16.5 0 19.3125 0 22.7812C0 23.4844 0.515625 24 1.21875 24H19.7344C20.4375 24 21 23.4844 21 22.7812C21 19.3125 18.1875 16.5 14.7188 16.5ZM1.5 22.5C1.59375 20.0156 3.70312 18 6.23438 18H14.7188C17.25 18 19.3594 20.0156 19.4531 22.5H1.5Z" fill="#194CBB"/>
</svg>
