<svg xmlns="http://www.w3.org/2000/svg" width="45" height="50" data-name="Layer_1" viewBox="0 0 83 100"><path d="M24.22 90H12c-3.37 0-6-2.62-6-6V12c0-3.19 2.62-6 6-6h6v3c0 3.37 2.62 6 6 6h12c3.19 0 6-2.62 6-6V6h6c3.19 0 6 2.81 6 6v21.56c1.4.08 2.79.22 4.15.47.65.13 1.26.36 1.85.63V12c0-6.56-5.44-12-12-12H12C5.25 0 0 5.44 0 12v72c0 6.75 5.25 12 12 12h18.07a34.97 34.97 0 0 1-5.85-6ZM24 6h12v3H24V6Zm57.78 57.54a2.66 2.66 0 0 0-.37-1 5.58 5.58 0 0 0-3.67-2.59L75 59.4s-.04-.03-.06-.08c-.08-.18-.15-.44-.15-.4l1.57-2.31c.87-1.3 1.15-2.9.77-4.42-.1-.37-.25-.69-.44-.94a29.74 29.74 0 0 0-7.21-7.21c-.27-.2-.59-.35-.98-.46a5.56 5.56 0 0 0-4.4.77l-2.36 1.54c-.07 0-.33-.12-.4-.14l-.07-.04-.56-2.76c-.4-1.81-1.69-3.58-3.57-4.03a30.52 30.52 0 0 0-10.18 0c-.37.06-.72.19-1 .37a5.58 5.58 0 0 0-2.59 3.67l-.55 2.74s-.02.03-.08.06l-.4.15-2.32-1.56c-1.52-1.01-3.77-1.35-5.35-.34a29.61 29.61 0 0 0-7.22 7.21c-.2.27-.35.59-.46.98a5.57 5.57 0 0 0 .78 4.4l1.56 2.32-.14.42-.04.07-2.76.56c-1.83.39-3.58 1.69-4.03 3.56a29.8 29.8 0 0 0-.02 10.19c.06.37.19.72.37 1a5.58 5.58 0 0 0 3.67 2.59l2.74.55s.04.03.06.08l.1.26c.04.09.03.16.05.14-.14.22-1.7 2.5-1.76 2.66-.83 1.47-1.09 3.56-.14 5.02a30.23 30.23 0 0 0 7.22 7.23c1.59 1.03 3.84.69 5.38-.33l2.34-1.56c.07 0 .33.12.4.14l.07.04.56 2.76c.4 1.81 1.69 3.59 3.57 4.03 3.39.58 6.82.58 10.2 0 .37-.06.72-.19 1-.37a5.58 5.58 0 0 0 2.59-3.67l.55-2.74s.02-.03.08-.06c.08-.04.33-.11.39-.16l2.31 1.58c1.52 1.01 3.77 1.35 5.36.34a30.14 30.14 0 0 0 7.22-7.21c.2-.27.35-.59.46-.98.37-1.5.08-3.11-.78-4.4l-1.56-2.32.14-.43.04-.07 2.77-.56c1.83-.39 3.58-1.69 4.03-3.57.58-3.36.58-6.81 0-10.2ZM64.89 86.65c-3.27-2.28-8.43-.12-9.1 3.78l-.49 2.48c-2.12.28-4.27.28-6.39 0l-.51-2.47a5.85 5.85 0 0 0-3.66-4.24 5.78 5.78 0 0 0-5.44.47l-2.08 1.43a24.45 24.45 0 0 1-4.55-4.54l1.41-2.11a5.86 5.86 0 0 0 .4-5.6 5.83 5.83 0 0 0-4.18-3.5l-2.49-.49c-.3-2.07-.29-4.29-.02-6.39l2.5-.5a5.8 5.8 0 0 0 4.24-3.66 5.77 5.77 0 0 0-.46-5.44l-1.43-2.11a24.87 24.87 0 0 1 4.55-4.56l2.11 1.41c3.22 2.25 8.34.16 9.08-3.65l.03-.1.49-2.49c2.08-.29 4.28-.27 6.38 0l.5 2.5a5.8 5.8 0 0 0 3.67 4.24c1.75.75 3.87.6 5.44-.47l2.08-1.43a24.65 24.65 0 0 1 4.54 4.53l-1.42 2.11a5.8 5.8 0 0 0-.4 5.6 5.75 5.75 0 0 0 4.18 3.5l2.49.49c.27 2.1.28 4.27 0 6.39l-2.46.52a5.8 5.8 0 0 0-4.24 3.67 5.77 5.77 0 0 0 .46 5.44l1.43 2.08a24.76 24.76 0 0 1-4.54 4.55l-2.11-1.41Zm2.85-20c.53.53.82 1.24.82 1.99s-.29 1.46-.82 1.99l-4.55 4.55c-2.69 2.55-6.55-1.29-3.99-3.99l2.56-2.56-2.56-2.56c-2.56-2.7 1.3-6.54 3.99-3.99l4.55 4.55Zm-22.77-.57-2.56 2.56 2.56 2.56c2.56 2.7-1.29 6.54-3.99 3.99l-4.55-4.55a2.82 2.82 0 0 1 0-3.99l4.55-4.55c1.66-1.78 4.9-.44 4.81 1.99a2.8 2.8 0 0 1-.82 1.99Zm11.72-7.9L54 74.31l-.95 5.72c-.68 3.67-6.12 2.76-5.57-.93l3.64-21.85a2.82 2.82 0 1 1 5.57.92Z" style="fill:#194cbb"/></svg>