<svg width="64" height="96" viewBox="0 0 16 24" fill="none" xmlns="http://www.w3.org/2000/svg">
<path d="M12.5 0H3.5C1.8125 0 0.5 1.35938 0.5 3V21C0.5 22.6875 1.8125 24 3.5 24H12.5C14.1406 24 15.5 22.6875 15.5 21V3C15.5 1.35938 14.1406 0 12.5 0ZM6.5 1.5H9.5V2.25H6.5V1.5ZM14 21C14 21.8438 13.2969 22.5 12.5 22.5H3.5C2.65625 22.5 2 21.8438 2 21V3C2 2.20312 2.65625 1.5 3.5 1.5H5V2.25C5 3.09375 5.65625 3.75 6.5 3.75H9.5C10.2969 3.75 11 3.09375 11 2.25V1.5H12.5C13.2969 1.5 14 2.20312 14 3V21ZM9.5 18.75H6.5C6.07812 18.75 5.75 19.125 5.75 19.5C5.75 19.9219 6.07812 20.25 6.5 20.25H9.5C9.875 20.25 10.25 19.9219 10.25 19.5C10.25 19.125 9.875 18.75 9.5 18.75Z" fill="#194CBB"/>
</svg>
