<svg width="68" height="80" viewBox="0 0 68 80" fill="none" xmlns="http://www.w3.org/2000/svg">
  <path fill-rule="evenodd" clip-rule="evenodd" d="M34.0349 54L34 54C22.9543 54 14 45.0457 14 34C14 22.9543 22.9543 14 34 14C45.0457 14 54 22.9543 54 34C54 37.7413 52.9727 41.2426 51.1849 44.2373L51.1851 44.2495C51.1851 44.4064 51.092 44.5429 50.9548 44.6133C47.4264 50.2381 41.1765 53.9822 34.0509 53.9999L34.0349 54ZM33.5579 51.9947V44.6638H26.3606C27.2179 46.5568 28.247 48.0716 29.2714 49.2672C30.26 50.421 31.2472 51.2811 32.0775 51.8985C32.5654 51.9503 33.0591 51.9827 33.5579 51.9947ZM30.4104 51.6421C29.8236 51.1253 29.2025 50.5104 28.5818 49.7861C27.4476 48.4623 26.3187 46.7771 25.403 44.6638H19.4974C22.0975 48.194 25.9557 50.7405 30.4104 51.6421ZM18.922 43.8351H25.0638C24.1108 41.3654 23.4535 38.3571 23.3767 34.7188H16.0141C16.1459 38.0752 17.1968 41.1955 18.922 43.8351ZM16.0003 33.8901H23.3693C23.3809 30.2801 23.9656 27.2687 24.8548 24.7738H18.5411C16.945 27.4425 16.0202 30.559 16.0003 33.8901ZM19.068 23.945H25.1686C26.122 21.5699 27.3486 19.7005 28.5812 18.2553C29.2172 17.5096 29.8537 16.8782 30.4533 16.3493C25.728 17.2936 21.6705 20.0879 19.068 23.945ZM32.1097 16.0981C31.2727 16.7243 30.273 17.5992 29.272 18.7728C28.1478 20.0908 27.0181 21.7902 26.116 23.945H33.5579V16.0053C33.0701 16.0171 32.5871 16.0482 32.1097 16.0981ZM36.0179 51.8882C35.499 51.946 34.9735 51.9819 34.4422 51.9947V44.6638H41.7202C40.8633 46.5552 39.835 48.0692 38.8114 49.2645C37.8278 50.413 36.8455 51.2709 36.0179 51.8882ZM48.5026 44.6638C45.923 48.1661 42.1052 50.7003 37.695 51.6204C38.2752 51.1074 38.8884 50.4987 39.5011 49.7832C40.6344 48.4597 41.7625 46.7754 42.6778 44.6638H48.5026ZM49.078 43.8351C50.8032 41.1955 51.8541 38.0752 51.9859 34.7188H44.7051C44.6283 38.3569 43.9706 41.3652 43.0171 43.8351H49.078ZM51.9997 33.8901C51.9798 30.559 51.055 27.4425 49.4589 24.7738H43.2273C44.1163 27.2687 44.7009 30.2801 44.7125 33.8901H51.9997ZM48.932 23.945C46.3494 20.1174 42.3338 17.3363 37.6547 16.3713C38.2469 16.8956 38.8745 17.5199 39.5016 18.2553C40.734 19.7005 41.9604 21.5699 42.9136 23.945H48.932ZM34.4422 16.0053C34.9631 16.0179 35.4785 16.0526 35.9876 16.1085C36.8215 16.734 37.8155 17.6056 38.8108 18.7727C39.9348 20.0908 41.0643 21.7902 41.9662 23.945H34.4422V16.0053ZM34.4422 24.7738H42.293C43.2054 27.2348 43.8161 30.242 43.8282 33.8901H34.4422V24.7738ZM34.4422 34.7188H43.8206C43.741 38.3989 43.0531 41.4024 42.0744 43.8351H34.4422V34.7188ZM33.5579 43.8351H26.0065C25.0282 41.4026 24.3407 38.3992 24.2612 34.7188H33.5579V43.8351ZM33.5579 33.8901H24.2537C24.2657 30.242 24.8765 27.2348 25.7891 24.7738H33.5579V33.8901Z" fill="#194CBB"/>
  <path d="M14 64C14 62.8954 14.8954 62 16 62H52C53.1046 62 54 62.8954 54 64C54 65.1046 53.1046 66 52 66H16C14.8954 66 14 65.1046 14 64Z" fill="#194CBB"/>
  <path fill-rule="evenodd" clip-rule="evenodd" d="M0 8C0 3.58172 3.58172 0 8 0H60C64.4183 0 68 3.58172 68 8V72C68 76.4183 64.4183 80 60 80H8C3.58172 80 0 76.4183 0 72V8ZM8 2H60C63.3137 2 66 4.68629 66 8V72C66 75.3137 63.3137 78 60 78H8C4.68629 78 2 75.3137 2 72V8C2 4.68629 4.68629 2 8 2Z" fill="#194CBB"/>
</svg>
