<svg xmlns="http://www.w3.org/2000/svg" height="50" width="44" viewBox="0 0 32 32">
  <path d="M11.94 26.07c-.25 0-.46-.18-.49-.43a.49.49 0 0 1 .43-.56L20 23.94c.27-.04.53.15.56.43s-.15.53-.43.56l-8.12 1.14zm.07 2.25 8.12-1.14c.27-.04.46-.29.43-.56s-.29-.46-.56-.43l-8.12 1.14a.51.51 0 0 0-.43.56c.04.25.25.43.49.43zm5.84 1.18c0-.28-.22-.5-.5-.5h-2.7c-.28 0-.5.22-.5.5s.22.5.5.5h2.7c.28 0 .5-.22.5-.5m7.65-18c0 3.41-1.32 4.97-2.59 6.47-1.07 1.27-2.09 2.46-2.32 4.83a.5.5 0 0 1-.5.45h-8.17c-.26 0-.47-.2-.5-.45-.23-2.37-1.25-3.56-2.32-4.83-1.27-1.5-2.59-3.06-2.59-6.47 0-5.24 4.26-9.5 9.5-9.5s9.5 4.26 9.5 9.5ZM7.57 10.47c2.77-2.01 6.11-3.12 9.56-3.12.62 0 1.27.04 2.04.14l1.84.23-1.71.73a15.3 15.3 0 0 0-6.06 4.67c3.39-1.89 7.35-2.66 11.23-2.16-.29-4.43-3.97-7.95-8.47-7.95s-7.92 3.27-8.43 7.47Zm16.91 1.49c-.76-.1-1.53-.17-2.29-.17-3.75 0-7.35 1.19-10.39 3.44l-1.86 1.38 1.13-2.03c1.45-2.61 3.61-4.77 6.18-6.24a15.18 15.18 0 0 0-9.73 3.42c.07 2.85 1.17 4.17 2.34 5.55 1.06 1.25 2.16 2.54 2.5 4.93h7.29c.34-2.39 1.44-3.68 2.5-4.93 1.15-1.35 2.22-2.65 2.33-5.36Z" fill="#194CBB"/></svg>
