<svg width="75" height="66" viewBox="0 0 25 22" fill="none" xmlns="http://www.w3.org/2000/svg">
<path d="M14.0312 5H11.7344C10.375 5 9.25 6.17188 9.25 7.53125C9.25 7.95312 9.57812 8.28125 10 8.28125C10.375 8.28125 10.75 7.95312 10.75 7.53125C10.75 6.96875 11.1719 6.5 11.7344 6.5H14.0312C14.6875 6.5 15.25 7.0625 15.25 7.71875C15.25 8.1875 14.9688 8.60938 14.5469 8.84375L12.625 9.82812C12.3906 9.96875 12.25 10.2031 12.25 10.4844V11.75C12.25 12.1719 12.5781 12.5 13 12.5C13.375 12.5 13.75 12.1719 13.75 11.75V10.9531L15.25 10.1562C16.1406 9.6875 16.75 8.75 16.75 7.71875C16.75 6.21875 15.5312 5 14.0312 5ZM13 13.625C12.4375 13.625 12.0625 14.0469 12.0625 14.5625C12.0625 15.0781 12.4375 15.5 13 15.5C13.5156 15.5 13.9375 15.125 13.9375 14.5625C13.9375 14.0469 13.5156 13.625 13 13.625ZM13 0.5C6.34375 0.5 1 4.85938 1 10.25C1 12.4531 1.9375 14.5156 3.48438 16.1562C2.78125 17.9844 1.32812 19.5781 1.32812 19.5781C1 19.9062 0.953125 20.375 1.09375 20.7969C1.23438 21.2656 1.65625 21.5 2.125 21.5C4.98438 21.5 7.23438 20.3281 8.64062 19.3438C9.95312 19.7656 11.4531 20 13 20C19.6094 20 24.9531 15.6406 24.9531 10.25C24.9531 4.90625 19.6094 0.5 13 0.5ZM13 18.5C11.6406 18.5 10.3281 18.3125 9.0625 17.9375C8.64062 17.7969 8.125 17.8438 7.75 18.125C6.71875 18.875 5.03125 19.7656 2.92188 20C3.48438 19.2969 4.32812 18.0781 4.84375 16.7188C5.07812 16.2031 4.9375 15.6406 4.5625 15.1719C3.20312 13.7188 2.5 12.0312 2.5 10.25C2.5 5.70312 7.1875 2 12.9531 2C18.7188 2 23.4062 5.70312 23.4062 10.25C23.4062 14.7969 18.7656 18.5 13 18.5Z" fill="#194CBB"/>
</svg>
