<svg width="96" height="72" viewBox="0 0 32 24" fill="none" xmlns="http://www.w3.org/2000/svg">
<path d="M30.3906 16.8281L29.5938 16.4062C29.5938 16.1719 29.6406 15.9844 29.6406 15.7969C29.6406 15.5625 29.5938 15.375 29.5938 15.1406L30.3906 14.7188C30.8594 14.4375 31.0938 13.8281 30.9062 13.3125C30.5781 12.2812 30.0625 11.3438 29.3594 10.5469C28.9844 10.1719 28.3281 10.0781 27.8594 10.3125L27.0625 10.7812C26.7344 10.5469 26.3594 10.3594 25.9844 10.2188V9.28125C25.9844 8.71875 25.6094 8.20312 25.0469 8.10938C24.0156 7.875 22.9375 7.875 21.9062 8.10938C21.3438 8.20312 20.9688 8.71875 20.9688 9.28125V10.2188C20.5938 10.3594 20.2188 10.5469 19.8906 10.7812L19.0938 10.3125C18.625 10.0781 17.9688 10.1719 17.5938 10.5469C16.8906 11.3438 16.375 12.2812 16.0469 13.3125C15.8594 13.8281 16.0938 14.4375 16.5625 14.7188L17.3594 15.1406C17.3594 15.375 17.3125 15.5625 17.3125 15.7969C17.3125 15.9844 17.3594 16.1719 17.3594 16.4062L16.5625 16.8281C16.0938 17.1094 15.8594 17.7188 16.0469 18.2344C16.375 19.2656 16.8906 20.2031 17.5938 20.9531C17.9688 21.375 18.625 21.4688 19.0938 21.2344L19.8906 20.7656C20.2188 21 20.5938 21.1875 20.9688 21.375V22.2656C20.9688 22.8281 21.3438 23.3438 21.9062 23.4375C22.4219 23.5781 22.9375 23.625 23.4531 23.625C24.0156 23.625 24.5312 23.5781 25.0469 23.4375C25.6094 23.3438 25.9844 22.8281 25.9844 22.2656V21.375C26.3594 21.1875 26.7344 21 27.0625 20.7656L27.8594 21.2344C28.3281 21.4688 28.9844 21.375 29.3594 21C30.0625 20.2031 30.5781 19.2656 30.9062 18.2344C31.0938 17.7188 30.8594 17.1094 30.3906 16.8281ZM28.0469 14.9062C28.0938 15.1875 28.1406 15.4688 28.1406 15.7969C28.1406 16.0781 28.0938 16.3594 28.0469 16.6406L27.9531 17.1562L29.4062 18C29.1719 18.6562 28.8438 19.2656 28.375 19.7812L26.9219 18.9375L26.5 19.2656C26.0781 19.6875 25.5625 19.9688 25 20.1562L24.4844 20.3438V22.0312C23.8281 22.1719 23.125 22.1719 22.4688 22.0312V20.3438L21.9531 20.1562C21.3906 19.9688 20.875 19.6875 20.4531 19.2656L20.0312 18.9375L18.5781 19.7812C18.1094 19.2656 17.7812 18.6562 17.5469 18L19 17.1562L18.9062 16.6406C18.8594 16.3594 18.8125 16.0781 18.8125 15.7969C18.8125 15.4688 18.8594 15.1875 18.9062 14.9062L19 14.3906L17.5469 13.5469C17.7812 12.8906 18.1094 12.2812 18.5781 11.7656L20.0781 12.6094L20.4531 12.2812C20.9219 11.9062 21.3906 11.625 21.9531 11.3906L22.4688 11.25V9.51562C23.125 9.375 23.8281 9.375 24.4844 9.51562V11.25L25 11.3906C25.5625 11.625 26.0312 11.9062 26.5 12.2812L26.875 12.6094L28.375 11.7656C28.8438 12.2812 29.1719 12.8906 29.4062 13.5469L27.9531 14.3906L28.0469 14.9062ZM23.5 13.125C22.0469 13.125 20.875 14.3438 20.875 15.75C20.875 17.2031 22.0938 18.375 23.5 18.375C24.8594 18.375 26.0781 17.2031 26.0781 15.75C26.0781 14.3438 24.9062 13.125 23.5 13.125ZM23.5 16.875C22.8438 16.875 22.375 16.4062 22.375 15.75C22.375 15.1406 22.8438 14.625 23.5 14.625C24.1094 14.625 24.5781 15.1406 24.5781 15.75C24.5781 16.4062 24.1094 16.875 23.5 16.875ZM18.25 22.5H2.59375C2.54688 22.5 2.5 22.4531 2.5 22.4062C2.45312 18.75 5.45312 15.75 9.10938 15.75H13.75C14.125 15.75 14.5 15.4219 14.5 15C14.5 14.625 14.125 14.25 13.75 14.25H9.10938C4.60938 14.25 0.953125 17.9062 1 22.4062C1 23.2969 1.70312 24 2.59375 24H18.25C18.625 24 19 23.6719 19 23.25C19 22.875 18.625 22.5 18.25 22.5ZM11.5 12C14.7812 12 17.5 9.32812 17.5 6C17.5 2.71875 14.7812 0 11.5 0C8.17188 0 5.5 2.71875 5.5 6C5.5 9.32812 8.17188 12 11.5 12ZM11.5 1.5C13.9375 1.5 16 3.5625 16 6C16 8.48438 13.9375 10.5 11.5 10.5C9.01562 10.5 7 8.48438 7 6C7 3.5625 9.01562 1.5 11.5 1.5Z" fill="#194CBB"/>
</svg>
