<svg width="48" height="50" viewBox="0 0 48 50" fill="none" xmlns="http://www.w3.org/2000/svg">
<path d="M21.5005 0.494071C23.1669 -0.16469 24.8332 -0.16469 26.4995 0.494071L44.1956 7.90514C45.3287 8.36627 46.2285 9.09091 46.895 10.0791C47.6282 11.0672 47.9947 12.1871 47.9947 13.4387C48.0614 16.8643 47.4948 20.8498 46.2951 25.3953C45.0954 29.8748 42.9292 34.2885 39.7965 38.6364C36.7305 42.9842 32.3315 46.5744 26.5994 49.4071C24.8665 50.1976 23.1335 50.1976 21.4006 49.4071C15.6685 46.5744 11.2695 42.9842 8.20346 38.6364C5.07082 34.2885 2.90463 29.8748 1.70489 25.3953C0.505152 20.8498 -0.06139 16.8643 0.005262 13.4387C0.005262 12.1871 0.371848 11.0672 1.10502 10.0791C1.77154 9.09091 2.67134 8.36627 3.80443 7.90514L21.5005 0.494071ZM25.8996 1.97628C25.5663 1.77866 25.1997 1.6469 24.7998 1.58103V21.0474H45.6952C46.1618 18.2148 46.3951 15.7115 46.3951 13.5376C46.2618 11.5613 45.3287 10.1779 43.5957 9.38735L25.8996 1.97628ZM22.1004 48.0237C22.4337 48.1555 22.8003 48.2543 23.2002 48.3202V22.6285H12.9524H2.70467C3.6378 27.3057 5.60403 31.9499 8.60338 36.5613C11.6694 41.2385 16.1684 45.0593 22.1004 48.0237Z" fill="#194CBB"/>
</svg>
