<svg width="56" height="54" viewBox="0 0 56 54" fill="none" xmlns="http://www.w3.org/2000/svg">
<path d="M35.8369 7.21043C29.5483 -2.68813 10.414 -1.18099 10.414 14.8216C-2.60199 17.4071 -2.5997 35.9952 11.2897 37H33.5L38.1156 35H11.8645C6.05158 34.5495 3.20112 30.5548 3.01023 26.4115C2.8163 22.2021 5.36241 17.8641 10.8036 16.7832L12.414 16.4634V14.8216C12.414 11.2383 13.4763 8.61652 15.029 6.78086C16.5939 4.93065 18.7628 3.75472 21.1682 3.26247C26.0686 2.25964 31.5233 4.15019 34.1488 8.28291L35.195 9.92969L36.8672 8.92464C39.6187 7.27092 42.8587 7.96175 44.9291 9.89981C45.9491 10.8546 46.6023 12.0451 46.7727 13.2842C46.9387 14.4913 46.6688 15.8908 45.589 17.3672L43.5583 20.1438L46.976 20.5349C49.4591 20.819 50.9882 21.8754 51.8782 23.1528C52.7976 24.4724 53.1643 26.2177 52.9327 28.0353C52.8316 28.8287 52.6245 29.6023 52.3202 30.3281L54.1726 31.069C56.068 26.5274 54.8121 20.7517 49.3147 18.9926C48.6699 18.7863 47.9667 18.6352 47.2034 18.5479C47.6564 17.9284 48.0061 17.3035 48.2624 16.681C51.0945 9.80055 42.5081 3.20085 35.8369 7.21043Z" fill="#194CBB"/>
<path d="M45.3407 29.5088L52.85 32.683C53.0536 32.7691 53.0536 33.0575 52.85 33.1436L45.3407 36.3178C45.1229 36.4098 44.8771 36.4098 44.6594 36.3178L37.1492 33.1432C36.9468 33.0568 36.9477 32.7694 37.15 32.683L44.6594 29.5088C44.7693 29.4623 44.8865 29.4393 45.0035 29.4398C45.1182 29.4402 45.2329 29.4632 45.3407 29.5088Z" fill="#194CBB"/>
<path d="M49.7314 35.8189L45.8274 37.4691C45.2985 37.6927 44.7016 37.6927 44.1727 37.4691L40.2686 35.8189L37.1472 37.1383C36.9465 37.2259 36.9474 37.512 37.15 37.5977L44.6594 40.7719C44.8771 40.8639 45.1229 40.8639 45.3407 40.7719L52.85 37.5977C53.0527 37.512 53.0536 37.2256 52.8526 37.1382L52.85 37.1371L49.7314 35.8189Z" fill="#194CBB"/>
<path d="M49.7315 40.273L45.8274 41.9232C45.2985 42.1468 44.7016 42.1468 44.1727 41.9232L40.2686 40.273L37.15 41.5912C36.9475 41.6768 36.9465 41.9627 37.1469 42.0504L44.6594 45.2259C44.8771 45.318 45.1229 45.318 45.3407 45.2259L52.85 42.0518L52.8529 42.0505C53.0536 41.963 53.0526 41.6768 52.85 41.5912L49.7315 40.273Z" fill="#194CBB"/>
<path d="M35.8369 7.21043C29.5483 -2.68813 10.414 -1.18099 10.414 14.8216C-2.60199 17.4071 -2.5997 35.9952 11.2897 37H33.5L38.1156 35H11.8645C6.05158 34.5495 3.20112 30.5548 3.01023 26.4115C2.8163 22.2021 5.36241 17.8641 10.8036 16.7832L12.414 16.4634V14.8216C12.414 11.2383 13.4763 8.61652 15.029 6.78086C16.5939 4.93065 18.7628 3.75472 21.1682 3.26247C26.0686 2.25964 31.5233 4.15019 34.1488 8.28291L35.195 9.92969L36.8672 8.92464C39.6187 7.27092 42.8587 7.96175 44.9291 9.89981C45.9491 10.8546 46.6023 12.0451 46.7727 13.2842C46.9387 14.4913 46.6688 15.8908 45.589 17.3672L43.5583 20.1438L46.976 20.5349C49.4591 20.819 50.9882 21.8754 51.8782 23.1528C52.7976 24.4724 53.1643 26.2177 52.9327 28.0353C52.8316 28.8287 52.6245 29.6023 52.3202 30.3281L54.1726 31.069C56.068 26.5274 54.8121 20.7517 49.3147 18.9926C48.6699 18.7863 47.9667 18.6352 47.2034 18.5479C47.6564 17.9284 48.0061 17.3035 48.2624 16.681C51.0945 9.80055 42.5081 3.20085 35.8369 7.21043Z" stroke="#194CBB"/>
<path d="M45.3407 29.5088L52.85 32.683C53.0536 32.7691 53.0536 33.0575 52.85 33.1436L45.3407 36.3178C45.1229 36.4098 44.8771 36.4098 44.6594 36.3178L37.1492 33.1432C36.9468 33.0568 36.9477 32.7694 37.15 32.683L44.6594 29.5088C44.7693 29.4623 44.8865 29.4393 45.0035 29.4398C45.1182 29.4402 45.2329 29.4632 45.3407 29.5088Z" stroke="#194CBB"/>
<path d="M49.7314 35.8189L45.8274 37.4691C45.2985 37.6927 44.7016 37.6927 44.1727 37.4691L40.2686 35.8189L37.1472 37.1383C36.9465 37.2259 36.9474 37.512 37.15 37.5977L44.6594 40.7719C44.8771 40.8639 45.1229 40.8639 45.3407 40.7719L52.85 37.5977C53.0527 37.512 53.0536 37.2256 52.8526 37.1382L52.85 37.1371L49.7314 35.8189Z" stroke="#194CBB"/>
<path d="M49.7315 40.273L45.8274 41.9232C45.2985 42.1468 44.7016 42.1468 44.1727 41.9232L40.2686 40.273L37.15 41.5912C36.9475 41.6768 36.9465 41.9627 37.1469 42.0504L44.6594 45.2259C44.8771 45.318 45.1229 45.318 45.3407 45.2259L52.85 42.0518L52.8529 42.0505C53.0536 41.963 53.0526 41.6768 52.85 41.5912L49.7315 40.273Z" stroke="#194CBB"/>
</svg>
