<svg width="63" height="72" viewBox="0 0 21 24" fill="none" xmlns="http://www.w3.org/2000/svg">
<path d="M18.6562 16.125L18.1406 15.6094L20.1562 11.625C20.25 11.3906 20.25 11.1094 20.1094 10.875C19.9688 10.6406 19.7344 10.5 19.5 10.5H16.2656C16.4062 10.0312 16.4531 9.5625 16.4531 9C16.4531 8.625 16.125 8.25 15.75 8.25C15.375 8.25 15 8.625 15 9C15 11.4844 12.9375 13.5 10.5 13.5C8.01562 13.5 6 11.4844 6 9C6 8.625 5.625 8.25 5.25 8.25C4.82812 8.25 4.5 8.625 4.5 9.04688C4.5 9.5625 4.54688 10.0312 4.6875 10.5H1.5C1.21875 10.5 0.984375 10.6406 0.84375 10.875C0.703125 11.1094 0.703125 11.3906 0.796875 11.625L2.8125 15.6094L2.29688 16.125C0.796875 17.625 0 19.6406 0 21.75C0 23.0156 0.984375 24 2.25 24H8.25C8.48438 24 8.67188 23.9062 8.8125 23.7188C8.95312 23.5312 9 23.2969 8.95312 23.0625L7.45312 17.8125C7.3125 17.4375 6.9375 17.2031 6.51562 17.2969C6.14062 17.4375 5.90625 17.8125 6 18.2344L7.21875 22.5H2.25C1.82812 22.5 1.5 22.1719 1.5 21.75C1.5 20.0156 2.15625 18.4219 3.375 17.2031L4.26562 16.3125C4.5 16.0781 4.54688 15.7031 4.40625 15.4219L2.67188 12H5.25H5.29688C6.32812 13.7812 8.25 15 10.4531 15C12.6094 15 14.5781 13.7812 15.6094 12C15.6562 12 15.7031 12 15.75 12H18.2812L16.5469 15.4219C16.4062 15.7031 16.4531 16.0781 16.6875 16.3125L17.5781 17.2031C18.7969 18.4219 19.5 20.0156 19.5 21.75C19.5 22.1719 19.125 22.5 18.75 22.5H13.7344L14.9531 18.2344C15.0469 17.8125 14.8125 17.4375 14.4375 17.2969C14.0156 17.2031 13.6406 17.4375 13.5 17.8125L12 23.0625C11.9531 23.2969 12 23.5312 12.1406 23.7188C12.2812 23.9062 12.4688 24 12.75 24H18.75C19.9688 24 21 23.0156 21 21.75C21 19.6406 20.1562 17.625 18.6562 16.125ZM10.5 7.5C16.9219 7.5 19.1719 5.34375 19.2656 5.25C19.5469 4.96875 19.5469 4.5 19.2656 4.17188C18.9844 3.89062 18.5156 3.89062 18.1875 4.17188C18.1875 4.17188 17.5312 4.82812 15.8438 5.34375C15.2812 2.76562 14.3438 0 12.9844 0C12.5156 0 12.0938 0.1875 11.6719 0.5625C10.9688 1.17188 9.98438 1.17188 9.28125 0.5625C8.85938 0.1875 8.39062 0 7.96875 0C6.60938 0 5.67188 2.76562 5.10938 5.34375C3.46875 4.82812 2.76562 4.21875 2.76562 4.17188C2.4375 3.89062 1.96875 3.89062 1.6875 4.17188C1.40625 4.45312 1.40625 4.96875 1.6875 5.25C1.78125 5.34375 4.03125 7.5 10.5 7.5ZM8.0625 1.54688C8.10938 1.59375 8.20312 1.64062 8.29688 1.6875C9.5625 2.8125 11.3906 2.8125 12.6562 1.6875C12.75 1.64062 12.7969 1.59375 12.8438 1.54688C13.0781 1.82812 13.7344 2.8125 14.3438 5.67188C13.3125 5.85938 12.0469 6 10.5 6C8.90625 6 7.64062 5.85938 6.60938 5.67188C7.21875 2.71875 7.875 1.78125 8.0625 1.54688ZM12.75 17.25C12.75 16.875 12.375 16.5 12 16.5H9C8.57812 16.5 8.25 16.875 8.25 17.25C8.25 17.6719 8.57812 18 9 18H9.75V23.25C9.75 23.6719 10.0781 24 10.5 24C10.875 24 11.25 23.6719 11.25 23.25V18H12C12.375 18 12.75 17.6719 12.75 17.25Z" fill="#194CBB"/>
</svg>
