<svg width="43" height="41" viewBox="0 0 43 41" fill="none" xmlns="http://www.w3.org/2000/svg">
<path d="M24.7331 15.5617C23.8394 15.0367 22.7956 14.7305 21.6831 14.7305C18.3706 14.7305 15.6831 17.418 15.6831 20.7305C15.6831 24.043 18.3706 26.7305 21.6831 26.7305C24.9956 26.7305 27.6831 24.043 27.6831 20.7305H31.6831C31.6831 25.3242 28.5831 29.1992 24.3581 30.368C23.8581 29.3992 22.8519 28.7305 21.6831 28.7305C20.5144 28.7305 19.5081 29.3992 19.0081 30.368C15.7769 29.4742 13.2081 26.9992 12.1706 23.8305C13.0706 23.3117 13.6769 22.343 13.6769 21.2242C13.6769 20.0117 12.9581 18.968 11.9269 18.493C12.9456 14.0492 16.9269 10.7305 21.6831 10.7305C23.9019 10.7305 25.9519 11.4555 27.6144 12.6805L29.0394 11.2555C27.0081 9.66797 24.4581 8.73047 21.6831 8.73047C15.8769 8.73047 11.0394 12.8492 9.92686 18.3305C8.63311 18.6617 7.68311 19.8367 7.68311 21.2305C7.68311 22.718 8.76436 23.9555 10.1894 24.193C11.3956 28.2117 14.6581 31.343 18.7519 32.3742C19.0456 33.718 20.2456 34.7305 21.6831 34.7305C23.1206 34.7305 24.3206 33.718 24.6144 32.368C29.8269 31.0617 33.6831 26.3492 33.6831 20.7305H37.6831C37.6831 29.568 30.5206 36.7305 21.6831 36.7305C12.8456 36.7305 5.68311 29.568 5.68311 20.7305C5.68311 11.893 12.8456 4.73047 21.6831 4.73047C25.5644 4.73047 29.1144 6.11172 31.8894 8.40547L34.6206 5.66797C35.2081 5.08047 36.1581 5.08047 36.7394 5.66797C37.3206 6.25547 37.3269 7.20547 36.7394 7.78672L25.3644 19.1617C25.5706 19.643 25.6831 20.168 25.6831 20.7242C25.6831 22.9305 23.8894 24.7242 21.6831 24.7242C19.4769 24.7242 17.6831 22.9305 17.6831 20.7242C17.6831 18.518 19.4769 16.7242 21.6831 16.7242C22.2394 16.7242 22.7644 16.8367 23.2456 17.043L24.7331 15.5555V15.5617Z" fill="#2160E1"/>
</svg>
