<svg xmlns="http://www.w3.org/2000/svg" width="50" height="44" viewBox="0 0 32 32"><path fill="none" d="M0 0h32v32H0z"/><path fill="#194cbb" d="m29.5 9.7-3.9-7.2c-.3-.5-.8-.8-1.4-.8s-1.1.3-1.4.8l-3.9 7.2c-.3.5-.3 1.1 0 1.6s.8.8 1.4.8h2.5l-.7 3.6c-1.2 0-2.3.8-2.8 2l-5.7-2.2v-.4c0-1.9-1.5-3.4-3.4-3.4s-3.4 1.5-3.4 3.4.6 2.3 1.7 2.9l-2.1 5.4h-.3c-1.9 0-3.4 1.5-3.4 3.4s1.5 3.4 3.4 3.4 3.4-1.5 3.4-3.4-.7-2.4-1.8-3l2.1-5.4h.4c1.2 0 2.3-.6 2.9-1.6l5.9 2.3c0 1.9 1.5 3.5 3.4 3.5s3.4-1.5 3.4-3.4-.9-2.7-2.3-3.2l.7-3.8h3.9c.6 0 1.1-.3 1.4-.8s.3-1.1 0-1.6Zm-5.2 9.4c0 1.1-.9 2-2 2s-2-.9-2-2 .9-2 2-2 2 .9 2 2m3.9-8.5H20v-.2l3.9-7.2s0-.1.2-.1.1 0 .2.1l3.9 7.2zM8.1 26.8c0 1.1-.9 2-2 2s-2-.9-2-2 .9-2 2-2 2 .9 2 2m4-11.7c0 1.1-.9 2-2 2s-2-.9-2-2 .9-2 2-2 2 .9 2 2"/><circle fill="#194cbb" cx="4" cy="20" r="2"/><circle fill="#194cbb" cx="14" cy="22" r="2"/><circle fill="#194cbb" cx="6.2" cy="8" r="2"/><circle fill="#194cbb" cx="22" cy="28" r="2"/><circle fill="#194cbb" cx="28" cy="24" r="2"/><circle fill="#194cbb" cx="14" cy="4" r="2"/><path fill="#194cbb" d="M24.1 8.3c.2 0 .5-.2.5-.5V5.1c0-.2-.2-.5-.5-.5s-.5.2-.5.5v2.7c0 .2.2.5.5.5"/><circle fill="#194cbb" cx="24.1" cy="9.6" r=".7"/></svg>
