<svg width="90" height="72" viewBox="0 0 30 24" fill="none" xmlns="http://www.w3.org/2000/svg">
<path d="M15.75 11.25H29.25C29.625 11.25 30 11.625 30 12C30 12.4219 29.625 12.75 29.25 12.75H23.25V15H26.25C27.4688 15 28.5 16.0312 28.5 17.25V21.75C28.5 23.0156 27.4688 24 26.25 24H18.75C17.4844 24 16.5 23.0156 16.5 21.75V17.25C16.5 16.0312 17.4844 15 18.75 15H21.75V12.75H8.25V15H11.25C12.4688 15 13.5 16.0312 13.5 17.25V21.75C13.5 23.0156 12.4688 24 11.25 24H3.75C2.48438 24 1.5 23.0156 1.5 21.75V17.25C1.5 16.0312 2.48438 15 3.75 15H6.75V12.75H0.75C0.328125 12.75 0 12.4219 0 12C0 11.625 0.328125 11.25 0.75 11.25H14.25V9H11.25C9.98438 9 9 8.01562 9 6.75V2.25C9 1.03125 9.98438 0 11.25 0H18.75C19.9688 0 21 1.03125 21 2.25V6.75C21 8.01562 19.9688 9 18.75 9H15.75V11.25ZM18.75 1.5H11.25C10.8281 1.5 10.5 1.875 10.5 2.25V6.75C10.5 7.17188 10.8281 7.5 11.25 7.5H18.75C19.125 7.5 19.5 7.17188 19.5 6.75V2.25C19.5 1.875 19.125 1.5 18.75 1.5ZM18.75 16.5C18.3281 16.5 18 16.875 18 17.25V21.75C18 22.1719 18.3281 22.5 18.75 22.5H26.25C26.625 22.5 27 22.1719 27 21.75V17.25C27 16.875 26.625 16.5 26.25 16.5H18.75ZM3.75 16.5C3.32812 16.5 3 16.875 3 17.25V21.75C3 22.1719 3.32812 22.5 3.75 22.5H11.25C11.625 22.5 12 22.1719 12 21.75V17.25C12 16.875 11.625 16.5 11.25 16.5H3.75Z" fill="#194CBB"/>
</svg>
