<svg width="54" height="49" viewBox="0 0 54 49" fill="none" xmlns="http://www.w3.org/2000/svg">
<g opacity="0.9">
<path d="M9.41391 13.8216C9.41391 -2.18099 28.5483 -3.68813 34.8369 6.21043C41.5081 2.20085 50.0944 8.80055 47.2623 15.681C47.0061 16.3035 46.6564 16.9284 46.2033 17.5479C46.9666 17.6352 47.6698 17.7863 48.3147 17.9926C52.6638 19.3843 54.3582 23.2899 53.9378 27.1094L53.1137 27.0064L53.0813 27.0023L52.9545 26.9859C52.8442 26.9715 52.6843 26.9504 52.4875 26.9234C52.3308 26.9018 52.151 26.8767 51.9544 26.8484C52.1384 25.0983 51.766 23.4271 50.8781 22.1528C49.9881 20.8754 48.4591 19.819 45.9759 19.5349L42.5582 19.1438L44.589 16.3672C45.6687 14.8908 45.9386 13.4913 45.7726 12.2842C45.6022 11.0451 44.9491 9.85457 43.9291 8.89981C41.8586 6.96175 38.6187 6.27092 35.8672 7.92464L34.195 8.92969L33.1488 7.28291C30.5232 3.15018 25.0686 1.25964 20.1681 2.26247C17.7627 2.75472 15.5939 3.93065 14.0289 5.78086C12.4763 7.61652 11.4139 10.2383 11.4139 13.8216V15.4634L9.80358 15.7832C4.36235 16.8641 1.81624 21.2021 2.01017 25.4115C2.20106 29.5548 5.05152 33.5495 10.8645 34H32V36H10.7897C-3.09972 34.9952 -3.60205 16.4071 9.41391 13.8216Z" fill="#194CBB"/>
<path fill-rule="evenodd" clip-rule="evenodd" d="M33 28C33 28 37 27.5 38.5 27C40 26.5 43 25 43 25C43 25 46 26.5 47.5 27C49 27.5 53 28 53 28V44L43 49L33 44V28ZM48.7914 32.2279C48.5088 31.9285 48.0457 31.9236 47.7569 32.216L40.9021 39.1612L38.2698 36.1994C37.9961 35.8913 37.533 35.8716 37.236 36.1554C36.9388 36.4389 36.9198 36.9183 37.1934 37.2262L40.2559 40.672C40.281 40.7001 40.309 40.7233 40.337 40.7464L40.3424 40.7508C40.3441 40.7528 40.3457 40.7549 40.3473 40.757C40.3481 40.7581 40.3489 40.7593 40.3497 40.7604C40.3525 40.7644 40.3554 40.7684 40.3589 40.772C40.5023 40.924 40.6919 41 40.882 41C41.0665 41 41.2511 40.9282 41.3935 40.784L48.78 33.2997C49.0688 33.0069 49.0739 32.5271 48.7914 32.2279Z" fill="#194CBB"/>
</g>
</svg>
