<svg width="54" height="54" viewBox="0 0 54 54" fill="none" xmlns="http://www.w3.org/2000/svg">
<path fill-rule="evenodd" clip-rule="evenodd" d="M17.999 20C20.9204 20 24 16.857 24 12C24 9.28147 23.6879 7.29097 22.8695 5.99997C22.1831 4.91713 20.9225 4 17.999 4C15.0756 4 13.8156 4.91708 13.1297 5.99964C12.3117 7.29064 12 9.28114 12 12C12 16.8574 15.0799 20 17.999 20ZM26 12C26 17.5221 22.4183 22 17.999 22C13.5817 22 10 17.5221 10 12C10 6.47785 11.1744 2 17.999 2C24.8236 2 26 6.47785 26 12Z" fill="#194CBB"/>
<path d="M18.001 24.7133C21.2474 24.7133 23 23 23 23C31.4793 23 33.4224 28.9421 33.8676 33.0395C33.1941 33.0865 32.5321 33.1753 31.8841 33.3032C31.7487 32.0141 31.4555 30.5652 30.8207 29.2379C30.2624 28.0706 29.4588 27.0433 28.2856 26.2967C27.2245 25.6215 25.7516 25.106 23.6722 25.0145C23.3983 25.2056 23.0481 25.4244 22.6231 25.6401C21.5452 26.1872 19.9872 26.7133 18.001 26.7133C16.015 26.7133 14.4565 26.1872 13.3784 25.6403C12.9529 25.4245 12.6023 25.2056 12.3282 25.0145C10.2486 25.1059 8.77551 25.6214 7.71437 26.2967C6.54113 27.0433 5.73756 28.0706 5.17927 29.2379C4.02312 31.6553 4 34.4761 4 36C4 36.4736 4.08747 36.5749 4.1094 36.6003L4.11136 36.6026C4.17016 36.6724 4.44033 36.9314 5.40928 37.1953C7.40184 37.738 11.1292 38 18 38C20.0964 38 21.9001 37.9756 23.4512 37.9263C22.844 38.5595 22.2883 39.2424 21.7909 39.9685C20.6358 39.9898 19.3753 40 18 40C4.35642 40 2 39 2 36C2 33 2 23 13 23C13 23 14.7546 24.7133 18.001 24.7133Z" fill="#194CBB"/>
<path fill-rule="evenodd" clip-rule="evenodd" d="M19.0001 48.9499L19.0027 49H51C51 40.1634 43.8366 33 35 33C26.1801 33 19.0271 40.1364 19.0001 48.9499ZM17 49C17 39.0589 25.0589 31 35 31C44.9411 31 53 39.0589 53 49C53 49.2147 52.9969 49.4274 52.9908 49.6381C52.9684 50.4114 52.3162 51 51.5426 51H18.5278C17.7294 51 17.0709 50.3746 17.0298 49.5773L17 49Z" fill="#194CBB"/>
<path d="M46.2727 39.1361C45.8465 38.4912 44.9738 38.3121 44.32 38.7128L34.1664 44.9348C33.5019 45.342 33.2933 46.2072 33.7273 46.8639C34.1535 47.5088 35.0262 47.6879 35.68 47.2872L45.8336 41.0652C46.4981 40.658 46.7067 39.7928 46.2727 39.1361Z" fill="#194CBB"/>
<path d="M22.8695 5.99997L22.4472 6.26766L22.4472 6.26766L22.8695 5.99997ZM13.1297 5.99964L12.7074 5.73203L12.7074 5.73203L13.1297 5.99964ZM23 23V22.5H22.7962L22.6504 22.6425L23 23ZM33.8676 33.0395L33.9025 33.5382L34.4208 33.502L34.3647 32.9854L33.8676 33.0395ZM31.8841 33.3032L31.3868 33.3554L31.444 33.8997L31.9809 33.7938L31.8841 33.3032ZM30.8207 29.2379L30.3696 29.4536L30.3696 29.4536L30.8207 29.2379ZM28.2856 26.2967L28.554 25.8749L28.554 25.8749L28.2856 26.2967ZM23.6722 25.0145L23.6942 24.515L23.5249 24.5075L23.386 24.6045L23.6722 25.0145ZM22.6231 25.6401L22.8494 26.086L22.8494 26.086L22.6231 25.6401ZM13.3784 25.6403L13.6046 25.1944L13.6046 25.1944L13.3784 25.6403ZM12.3282 25.0145L12.6143 24.6044L12.4754 24.5075L12.3062 24.515L12.3282 25.0145ZM7.71437 26.2967L7.44593 25.8749L7.44593 25.8749L7.71437 26.2967ZM5.17927 29.2379L4.7282 29.0222L4.7282 29.0222L5.17927 29.2379ZM4.1094 36.6003L4.48911 36.275L4.48778 36.2734L4.1094 36.6003ZM4.11136 36.6026L4.49387 36.2805L4.49107 36.2773L4.11136 36.6026ZM5.40928 37.1953L5.27787 37.6777L5.27787 37.6777L5.40928 37.1953ZM23.4512 37.9263L23.8121 38.2724L24.6607 37.3876L23.4353 37.4266L23.4512 37.9263ZM21.7909 39.9685L21.8001 40.4684L22.0578 40.4636L22.2034 40.2511L21.7909 39.9685ZM13 23L13.3493 22.6423L13.2036 22.5H13V23ZM19.0027 49L18.5033 49.0258C18.517 49.2915 18.7365 49.5 19.0027 49.5V49ZM19.0001 48.9499L18.5001 48.9484C18.5001 48.9575 18.5003 48.9666 18.5007 48.9757L19.0001 48.9499ZM51 49V49.5C51.2761 49.5 51.5 49.2761 51.5 49H51ZM17 49H16.5C16.5 49.0086 16.5002 49.0172 16.5007 49.0258L17 49ZM52.9908 49.6381L53.4906 49.6526L53.4906 49.6526L52.9908 49.6381ZM17.0298 49.5773L17.5291 49.5515L17.5291 49.5515L17.0298 49.5773ZM44.32 38.7128L44.5813 39.1391L44.32 38.7128ZM46.2727 39.1361L45.8556 39.4118L45.8556 39.4118L46.2727 39.1361ZM34.1664 44.9348L33.9051 44.5085L33.9051 44.5085L34.1664 44.9348ZM33.7273 46.8639L33.3101 47.1396L33.3101 47.1396L33.7273 46.8639ZM35.68 47.2872L35.4187 46.8609L35.4187 46.8609L35.68 47.2872ZM45.8336 41.0652L46.0949 41.4915L46.0949 41.4915L45.8336 41.0652ZM23.5 12C23.5 16.6814 20.5534 19.5 17.999 19.5V20.5C21.2873 20.5 24.5 17.0327 24.5 12H23.5ZM22.4472 6.26766C23.1832 7.4287 23.5 9.2914 23.5 12H24.5C24.5 9.27154 24.1926 7.15324 23.2918 5.73228L22.4472 6.26766ZM17.999 4.5C19.4112 4.5 20.3784 4.72188 21.0584 5.04542C21.7298 5.36491 22.1483 5.79615 22.4472 6.26766L23.2918 5.73228C22.9043 5.12094 22.3493 4.5522 21.488 4.14242C20.6352 3.73668 19.5103 3.5 17.999 3.5V4.5ZM13.5521 6.26726C13.8507 5.7959 14.2689 5.36476 14.9402 5.04535C15.6199 4.72187 16.5868 4.5 17.999 4.5V3.5C16.4878 3.5 15.363 3.73667 14.5105 4.14238C13.6494 4.55214 13.0946 5.12083 12.7074 5.73203L13.5521 6.26726ZM12.5 12C12.5 9.29098 12.8164 7.42828 13.5521 6.26726L12.7074 5.73203C11.807 7.15299 11.5 9.27129 11.5 12H12.5ZM17.999 19.5C15.4469 19.5 12.5 16.6818 12.5 12H11.5C11.5 17.0329 14.7129 20.5 17.999 20.5V19.5ZM17.999 22.5C22.7927 22.5 26.5 17.6884 26.5 12H25.5C25.5 17.3559 22.0438 21.5 17.999 21.5V22.5ZM9.5 12C9.5 17.6883 13.2072 22.5 17.999 22.5V21.5C13.9563 21.5 10.5 17.356 10.5 12H9.5ZM17.999 1.5C14.4645 1.5 12.2798 2.67006 11.0179 4.66158C9.78908 6.601 9.5 9.22837 9.5 12H10.5C10.5 9.24948 10.7981 6.87685 11.8626 5.19681C12.8941 3.56887 14.7089 2.5 17.999 2.5V1.5ZM26.5 12C26.5 9.22829 26.2104 6.60091 24.981 4.6615C23.7187 2.67005 21.5335 1.5 17.999 1.5V2.5C21.2891 2.5 23.1045 3.56888 24.1364 5.19689C25.2014 6.87694 25.5 9.24956 25.5 12H26.5ZM23 23C22.6504 22.6425 22.6506 22.6423 22.6507 22.6422C22.6508 22.6421 22.6509 22.642 22.651 22.6419C22.6512 22.6418 22.6513 22.6416 22.6514 22.6415C22.6516 22.6413 22.6518 22.6412 22.6518 22.6412C22.6518 22.6411 22.6514 22.6415 22.6506 22.6423C22.649 22.6438 22.6457 22.6469 22.6408 22.6514C22.631 22.6605 22.6145 22.6753 22.5916 22.6952C22.5456 22.7348 22.4737 22.7943 22.3762 22.8671C22.1811 23.0128 21.8849 23.2112 21.4916 23.4108C20.7062 23.8094 19.5335 24.2133 18.001 24.2133V25.2133C19.715 25.2133 21.0418 24.7605 21.9442 24.3025C22.3949 24.0738 22.7397 23.8438 22.9746 23.6683C23.0922 23.5805 23.1825 23.5061 23.2451 23.4521C23.2764 23.4251 23.3008 23.4031 23.3182 23.3871C23.3269 23.379 23.3339 23.3725 23.3391 23.3675C23.3417 23.3651 23.3439 23.363 23.3456 23.3613C23.3465 23.3605 23.3472 23.3597 23.3479 23.3591C23.3482 23.3588 23.3485 23.3585 23.3488 23.3582C23.3489 23.3581 23.3491 23.3579 23.3492 23.3579C23.3493 23.3577 23.3495 23.3575 23 23ZM34.3647 32.9854C34.1377 30.8967 33.5245 28.2761 31.8367 26.1705C30.1292 24.0403 27.3724 22.5 23 22.5V23.5C27.1069 23.5 29.5613 24.9307 31.0564 26.7959C32.5713 28.6857 33.1523 31.0848 33.3705 33.0935L34.3647 32.9854ZM33.8327 32.5407C33.1383 32.5892 32.4556 32.6808 31.7873 32.8127L31.9809 33.7938C32.6085 33.6699 33.2499 33.5839 33.9025 33.5382L33.8327 32.5407ZM32.3814 33.251C32.2427 31.9304 31.9402 30.4197 31.2718 29.0222L30.3696 29.4536C30.9709 30.7107 31.2548 32.0979 31.3868 33.3554L32.3814 33.251ZM31.2718 29.0222C30.6811 27.7872 29.8206 26.6809 28.554 25.8749L28.0172 26.7185C29.0971 27.4058 29.8437 28.354 30.3696 29.4536L31.2718 29.0222ZM28.554 25.8749C27.4088 25.1461 25.8481 24.6098 23.6942 24.515L23.6502 25.514C25.655 25.6023 27.0402 26.0968 28.0172 26.7185L28.554 25.8749ZM23.386 24.6045C23.1294 24.7836 22.799 24.9901 22.3968 25.1942L22.8494 26.086C23.2971 25.8587 23.6673 25.6276 23.9583 25.4245L23.386 24.6045ZM22.3968 25.1942C21.3774 25.7116 19.8964 26.2133 18.001 26.2133V27.2133C20.0779 27.2133 21.7131 26.6627 22.8494 26.086L22.3968 25.1942ZM18.001 26.2133C16.1057 26.2133 14.6243 25.7117 13.6046 25.1944L13.1522 26.0862C14.2887 26.6627 15.9242 27.2133 18.001 27.2133V26.2133ZM13.6046 25.1944C13.2018 24.9901 12.8711 24.7835 12.6143 24.6044L12.0422 25.4246C12.3334 25.6277 12.704 25.8589 13.1522 26.0862L13.6046 25.1944ZM12.3062 24.515C10.152 24.6097 8.59122 25.146 7.44593 25.8749L7.98281 26.7185C8.9598 26.0968 10.3452 25.6022 12.3502 25.514L12.3062 24.515ZM7.44593 25.8749C6.17939 26.6809 5.31886 27.7872 4.7282 29.0222L5.63033 29.4536C6.15626 28.354 6.90288 27.4058 7.98281 26.7185L7.44593 25.8749ZM4.7282 29.0222C3.51718 31.5543 3.5 34.483 3.5 36H4.5C4.5 34.4691 4.52906 31.7563 5.63033 29.4536L4.7282 29.0222ZM3.5 36C3.5 36.5284 3.59652 36.7714 3.73101 36.9271L4.48778 36.2734C4.48661 36.2721 4.49372 36.2802 4.50161 36.2909C4.50943 36.3016 4.51586 36.3118 4.5209 36.3209C4.53081 36.3389 4.53139 36.3456 4.52788 36.3331C4.51983 36.3044 4.5 36.2099 4.5 36H3.5ZM3.72969 36.9256L3.73165 36.9279L4.49107 36.2773L4.48911 36.275L3.72969 36.9256ZM3.72886 36.9246C3.88135 37.1057 4.26403 37.4016 5.27787 37.6777L5.54068 36.7129C4.61663 36.4612 4.45896 36.2391 4.49386 36.2805L3.72886 36.9246ZM5.27787 37.6777C7.34605 38.2411 11.1418 38.5 18 38.5V37.5C11.1165 37.5 7.45763 37.235 5.54068 36.7129L5.27787 37.6777ZM18 38.5C20.1 38.5 21.9092 38.4756 23.4671 38.4261L23.4353 37.4266C21.891 37.4757 20.0928 37.5 18 37.5V38.5ZM23.0904 37.5802C22.4643 38.233 21.8913 38.9372 21.3784 39.6859L22.2034 40.2511C22.6853 39.5476 23.2237 38.8859 23.8121 38.2724L23.0904 37.5802ZM18 40.5C19.3776 40.5 20.6414 40.4898 21.8001 40.4684L21.7816 39.4686C20.6303 39.4899 19.3729 39.5 18 39.5V40.5ZM1.5 36C1.5 36.8152 1.66075 37.5735 2.19887 38.2126C2.72679 38.8397 3.56039 39.2828 4.75225 39.6074C7.1223 40.253 11.1905 40.5 18 40.5V39.5C11.1659 39.5 7.23412 39.247 5.01506 38.6426C3.91237 38.3422 3.30414 37.9728 2.96387 37.5686C2.6338 37.1765 2.5 36.6848 2.5 36H1.5ZM13 22.5C10.1723 22.5 8.01277 23.1435 6.37218 24.1875C4.7319 25.2314 3.64373 26.6542 2.92393 28.1593C1.49422 31.1487 1.5 34.506 1.5 36H2.5C2.5 34.494 2.50578 31.3513 3.82606 28.5907C4.48126 27.2208 5.45559 25.9561 6.90905 25.0312C8.3622 24.1065 10.3277 23.5 13 23.5V22.5ZM18.001 24.2133C16.4685 24.2133 15.2953 23.8094 14.5093 23.4107C14.1157 23.2111 13.8192 23.0127 13.6239 22.867C13.5263 22.7942 13.4543 22.7347 13.4083 22.695C13.3853 22.6752 13.3688 22.6603 13.3589 22.6512C13.354 22.6467 13.3507 22.6436 13.3491 22.6421C13.3483 22.6413 13.3479 22.6409 13.348 22.641C13.348 22.641 13.3481 22.6411 13.3483 22.6413C13.3484 22.6414 13.3486 22.6415 13.3487 22.6417C13.3488 22.6418 13.3489 22.6419 13.349 22.642C13.3491 22.6421 13.3493 22.6423 13 23C12.6507 23.3577 12.6508 23.3579 12.651 23.3581C12.6511 23.3581 12.6513 23.3583 12.6514 23.3585C12.6517 23.3587 12.652 23.359 12.6523 23.3593C12.6529 23.3599 12.6537 23.3607 12.6546 23.3615C12.6563 23.3632 12.6585 23.3653 12.6611 23.3677C12.6663 23.3727 12.6733 23.3792 12.682 23.3873C12.6994 23.4033 12.7238 23.4252 12.7552 23.4523C12.8178 23.5063 12.9082 23.5806 13.0258 23.6684C13.261 23.8439 13.606 24.0739 14.0569 24.3026C14.9598 24.7605 16.2871 25.2133 18.001 25.2133V24.2133ZM19.502 48.9742L19.4994 48.9242L18.5007 48.9757L18.5033 49.0258L19.502 48.9742ZM51 48.5H19.0027V49.5H51V48.5ZM35 33.5C43.5604 33.5 50.5 40.4396 50.5 49H51.5C51.5 39.8873 44.1127 32.5 35 32.5V33.5ZM19.5001 48.9515C19.5262 40.4134 26.4558 33.5 35 33.5V32.5C25.9045 32.5 18.5279 39.8594 18.5001 48.9484L19.5001 48.9515ZM35 30.5C24.7827 30.5 16.5 38.7827 16.5 49H17.5C17.5 39.335 25.335 31.5 35 31.5V30.5ZM53.5 49C53.5 38.7827 45.2173 30.5 35 30.5V31.5C44.665 31.5 52.5 39.335 52.5 49H53.5ZM53.4906 49.6526C53.4969 49.437 53.5 49.2195 53.5 49H52.5C52.5 49.2099 52.497 49.4178 52.491 49.6236L53.4906 49.6526ZM51.5426 51.5C52.5656 51.5 53.4598 50.717 53.4906 49.6526L52.491 49.6236C52.4771 50.1059 52.0669 50.5 51.5426 50.5V51.5ZM18.5278 51.5H51.5426V50.5H18.5278V51.5ZM16.5304 49.603C16.5853 50.6661 17.4633 51.5 18.5278 51.5V50.5C17.9955 50.5 17.5565 50.0831 17.5291 49.5515L16.5304 49.603ZM16.5007 49.0258L16.5304 49.603L17.5291 49.5515L17.4993 48.9742L16.5007 49.0258ZM44.5813 39.1391C45.012 38.8751 45.5823 38.9982 45.8556 39.4118L46.6899 38.8604C46.1108 37.9841 44.9355 37.7491 44.0588 38.2864L44.5813 39.1391ZM34.4276 45.3611L44.5813 39.1391L44.0588 38.2864L33.9051 44.5085L34.4276 45.3611ZM34.1444 46.5882C33.8712 46.1748 33.9967 45.6252 34.4276 45.3611L33.9051 44.5085C33.0071 45.0588 32.7153 46.2395 33.3101 47.1396L34.1444 46.5882ZM35.4187 46.8609C34.988 47.1249 34.4177 47.0018 34.1444 46.5882L33.3101 47.1396C33.8892 48.0159 35.0645 48.2509 35.9412 47.7136L35.4187 46.8609ZM45.5724 40.6389L35.4187 46.8609L35.9412 47.7136L46.0949 41.4915L45.5724 40.6389ZM45.8556 39.4118C46.1288 39.8252 46.0033 40.3748 45.5724 40.6389L46.0949 41.4915C46.9929 40.9412 47.2847 39.7605 46.6899 38.8604L45.8556 39.4118Z" fill="#194CBB"/>
</svg>
