<svg width="90" height="72" viewBox="0 0 30 24" fill="none" xmlns="http://www.w3.org/2000/svg">
<path d="M21 7.5H3C2.15625 7.5 1.5 8.20312 1.5 9V21C1.5 21.8438 2.15625 22.5 3 22.5H16.875C17.3438 23.1094 17.8594 23.5781 18.4688 24H3C1.3125 24 0 22.6875 0 21V9C0 7.35938 1.3125 6 3 6H21C22.6406 6 24 7.35938 24 9V9.04688C23.7188 9.04688 23.4844 9 23.25 9C22.9688 9 22.7344 9.04688 22.5 9.04688V9C22.5 8.20312 21.7969 7.5 21 7.5ZM21 3C21.375 3 21.75 3.375 21.75 3.75C21.75 4.17188 21.375 4.5 21 4.5H3C2.57812 4.5 2.25 4.17188 2.25 3.75C2.25 3.375 2.57812 3 3 3H21ZM18.75 0C19.125 0 19.5 0.375 19.5 0.75C19.5 1.17188 19.125 1.5 18.75 1.5H5.25C4.82812 1.5 4.5 1.17188 4.5 0.75C4.5 0.375 4.82812 0 5.25 0H18.75ZM20.625 16.125C20.625 14.7188 21.7969 13.5 23.25 13.5C24.6562 13.5 25.875 14.7188 25.875 16.125C25.875 17.5781 24.6562 18.75 23.25 18.75C21.7969 18.75 20.625 17.5781 20.625 16.125ZM23.25 17.25C23.8594 17.25 24.375 16.7812 24.375 16.125C24.375 15.5156 23.8594 15 23.25 15C22.5938 15 22.125 15.5156 22.125 16.125C22.125 16.7812 22.5938 17.25 23.25 17.25ZM30 17.25C30 21 26.9531 24 23.25 24C19.5 24 16.5 21 16.5 17.25C16.5 13.5469 19.5 10.5 23.25 10.5C26.9531 10.5 30 13.5469 30 17.25ZM24.5625 21H21.8906C21.3281 21 20.7656 21.2812 20.4375 21.7031C21.2344 22.2188 22.1719 22.5 23.25 22.5C24.2812 22.5 25.2188 22.2188 26.0156 21.7031C25.6875 21.2812 25.125 21 24.5625 21ZM28.5 17.25C28.5 14.3906 26.1094 12 23.25 12C20.3438 12 18 14.3906 18 17.25C18 18.6094 18.4688 19.8281 19.2656 20.7188C19.9219 19.9688 20.8594 19.5 21.8906 19.5H24.5625C25.5938 19.5 26.5312 19.9688 27.1875 20.7188C27.9844 19.8281 28.5 18.6094 28.5 17.25Z" fill="#194CBB"/>
</svg>
