<svg width="75" height="75" viewBox="0 0 25 25" fill="none" xmlns="http://www.w3.org/2000/svg">
<path d="M12.3906 15.9375C12.8594 15.4219 13.0469 14.7188 12.8594 14.0156C12.7656 13.4062 12.7188 13.6406 12.9062 13.0312C13.0938 12.3281 12.9062 11.625 12.3906 11.1094C11.9688 10.6406 11.9688 10.7344 11.8281 10.0781C11.6406 9.42188 11.125 8.85938 10.4688 8.71875C9.8125 8.53125 9.90625 8.57812 9.4375 8.10938C8.96875 7.59375 8.21875 7.40625 7.5625 7.59375C6.90625 7.78125 7.04688 7.78125 6.39062 7.59375C5.73438 7.40625 4.98438 7.59375 4.51562 8.10938C4.04688 8.57812 4.14062 8.53125 3.48438 8.71875C2.82812 8.85938 2.3125 9.42188 2.125 10.0781C1.98438 10.7344 1.98438 10.6406 1.5625 11.1094C1.04688 11.625 0.859375 12.3281 1.04688 13.0312C1.23438 13.6406 1.1875 13.4062 1.04688 14.0156C0.859375 14.7188 1.04688 15.4219 1.5625 15.9375C2.03125 16.4062 1.9375 16.3125 2.125 16.9688C2.3125 17.625 2.82812 18.1875 3.48438 18.3281C3.76562 18.4219 3.85938 18.4688 3.95312 18.5156V23.25C3.95312 23.5312 4.09375 23.7656 4.32812 23.9062C4.5625 24.0469 4.84375 24.0469 5.07812 23.9531L7 22.9688L8.875 23.9531C9.01562 24 9.10938 24 9.25 24C9.34375 24 9.48438 24 9.625 23.9062C9.85938 23.7656 10 23.5312 10 23.25V18.5156C10.0938 18.4688 10.1875 18.4688 10.4688 18.375C11.125 18.1875 11.6406 17.6719 11.8281 17.0156C12.0156 16.3125 11.9219 16.4062 12.3906 15.9375ZM8.5 22.0781L7.32812 21.4688C7.09375 21.375 6.85938 21.375 6.625 21.4688L5.45312 22.0781V19.4531C5.78125 19.5469 6.10938 19.5469 6.39062 19.4531C7.04688 19.2656 6.90625 19.2656 7.5625 19.4531C7.84375 19.5469 8.17188 19.5469 8.5 19.4531V22.0781ZM11.4062 14.2031C11.5 14.5781 11.5469 14.6719 11.2188 15C10.6562 15.5625 10.6094 15.6562 10.375 16.5469C10.3281 16.8281 10.0938 16.875 9.90625 16.9219C9.15625 17.1562 9.01562 17.2031 8.5 17.7656C8.21875 18.0469 8.17188 18.0469 7.79688 17.9531C7.04688 17.7656 6.90625 17.7656 6.15625 17.9531C5.78125 18.0469 5.73438 18.0469 5.45312 17.7656C4.9375 17.2031 4.79688 17.1562 4.04688 16.9219C3.85938 16.875 3.67188 16.8281 3.57812 16.5469C3.34375 15.6562 3.29688 15.5625 2.73438 15C2.40625 14.6719 2.45312 14.5781 2.54688 14.2031C2.73438 13.5938 2.73438 13.4531 2.54688 12.8438C2.45312 12.4688 2.40625 12.375 2.73438 12.0469C3.25 11.4844 3.34375 11.3906 3.53125 10.6406C3.625 10.2656 3.67188 10.2188 4.04688 10.0781C4.79688 9.89062 4.9375 9.84375 5.45312 9.28125C5.73438 9 5.78125 8.95312 6.15625 9.09375C6.90625 9.28125 7.04688 9.28125 7.79688 9.09375C8.17188 8.95312 8.21875 9 8.5 9.28125C9.01562 9.84375 9.15625 9.89062 9.90625 10.0781C10.2812 10.2188 10.3281 10.2656 10.4219 10.6406C10.6094 11.3906 10.7031 11.4844 11.2188 12.0469C11.5469 12.375 11.5 12.4688 11.4062 12.8438C11.2188 13.4531 11.2188 13.5938 11.4062 14.2031ZM24.1094 5.90625L19.0938 0.890625C18.5312 0.328125 17.7812 0 16.9844 0H9.95312C8.26562 0 6.95312 1.35938 6.95312 3L7 5.25C7 5.67188 7.32812 6 7.75 6C8.125 6 8.5 5.67188 8.5 5.25V3C8.5 2.20312 9.15625 1.5 10 1.5H16V6.75C16 8.01562 16.9844 9 18.25 9H23.5V21C23.5 21.8438 22.7969 22.5 22 22.5H12.25C11.8281 22.5 11.5 22.875 11.5 23.25C11.5 23.6719 11.8281 24 12.25 24H21.9531C23.5938 24 24.9531 22.6875 24.9531 21V8.01562C25 7.21875 24.6719 6.46875 24.1094 5.90625ZM18.25 7.5C17.8281 7.5 17.5 7.17188 17.5 6.75V1.64062C17.6875 1.6875 17.875 1.78125 18.0625 1.96875L23.0312 6.9375C23.2188 7.125 23.3125 7.3125 23.3594 7.5H18.25Z" fill="#194CBB"/>
</svg>
