<svg xmlns="http://www.w3.org/2000/svg" width="64" height="64" viewBox="0 0 64 64"><path fill="#194cbb" d="m60.39 47.48-11.83-4.39 6.75-2.51c.39-.15.65-.52.65-.94s-.26-.79-.65-.94l-15.56-5.78c1.26-1.11 2.31-2.23 3.13-3.35 1.52-1.96 2.49-4.26 2.82-6.67v-.08c.03-.36.04-4.3 0-11.71V9.12h-2c-5.83 0-10.36-3.81-10.4-3.85l-1.29-1.11-1.29 1.1c-.05.05-4.67 3.86-10.45 3.86h-1.99v1.99c-.04 7.41-.03 11.35 0 11.71v.08c.33 2.4 1.31 4.71 2.82 6.67.82 1.13 1.87 2.24 3.13 3.36L8.67 38.71c-.39.15-.65.52-.65.94s.26.79.65.94l6.75 2.51-11.83 4.39c-.39.15-.65.52-.65.94s.26.79.65.94l28.04 10.41a1.03 1.03 0 0 0 .7 0l28.04-10.41c.39-.15.65-.52.65-.94s-.26-.79-.65-.94Zm-37.67-19.1c-1.26-1.61-2.15-3.6-2.44-5.74-.04-.44 0-11.52 0-11.52 6.63 0 11.74-4.33 11.74-4.33s5.07 4.33 11.7 4.33c0 0 .04 11.07 0 11.52-.29 2.13-1.19 4.13-2.44 5.74-.96 1.32-2.22 2.57-3.68 3.76-2.13 1.73-4.85 3.37-5.58 3.8h-.04c-.69-.41-3.72-2.28-5.58-3.8-1.46-1.19-2.72-2.44-3.68-3.76m-10.8 11.27 14.13-5.25c1.42 1.08 3.05 2.16 4.92 3.26l.47.27h1.08l.51-.27c1.87-1.1 3.5-2.18 4.92-3.26l14.13 5.25L32 47.11zM32 57.76 6.83 48.42l11.48-4.26 13.33 4.95c.22.08.47.08.7 0l13.33-4.95 11.48 4.26-25.17 9.34Z"/></svg>
