<svg width="50" height="44" viewBox="0 0 27 24" fill="none" xmlns="http://www.w3.org/2000/svg">
    <g opacity="0.9" clip-path="url(#clip0_11890_16852)">
        <path fill-rule="evenodd" clip-rule="evenodd"
              d="M9 6C9 5.44772 9.44772 5 10 5H13.143V8.64286C13.143 9.47128 13.8146 10.1429 14.643 10.1429H17.5714V13.038L16 13.2999V14.9999H16.5821C16.5786 15 16.575 15 16.5714 15H10C9.44771 15 9 14.5523 9 14V6ZM14.143 8.64286V5.20863C14.2001 5.25277 14.2528 5.30334 14.2998 5.35982L17.3396 9.00758C17.3752 9.05021 17.4069 9.09548 17.4346 9.14286H14.643C14.3668 9.14286 14.143 8.919 14.143 8.64286Z"
              fill="#194CBB"/>
        <path d="M4.70695 6.76975C4.70695 -1.06824 14.2741 -1.80643 17.4184 3.04184C20.754 1.07797 25.0472 4.31047 23.6312 7.6805C23.503 7.98541 23.3282 8.29145 23.1017 8.59487C23.4833 8.63765 23.8349 8.71165 24.1573 8.81271C26.3319 9.49435 27.1791 11.4073 26.9689 13.2781L26.5569 13.2276L26.5406 13.2256L26.4773 13.2176C26.4221 13.2106 26.3421 13.2002 26.2438 13.1869C26.1654 13.1764 26.0755 13.1641 25.9772 13.1502C26.0692 12.293 25.883 11.4745 25.4391 10.8504C24.9941 10.2247 24.2295 9.70727 22.988 9.56811L21.2791 9.37657L22.2945 8.01659C22.8344 7.29347 22.9693 6.60798 22.8863 6.01676C22.8011 5.40985 22.4745 4.82673 21.9645 4.35909C20.9293 3.40984 19.3093 3.07147 17.9336 3.88146L17.0975 4.37372L16.5744 3.56714C15.2616 1.54295 12.5343 0.616964 10.0841 1.10815C8.88135 1.34925 7.79694 1.92522 7.01446 2.83144C6.23814 3.73054 5.70695 5.01468 5.70695 6.76975V7.57389L4.90179 7.73057C2.18118 8.25998 0.908119 10.3847 1.00509 12.4465C1.10053 14.4758 2.52576 16.4324 5.43223 16.6531H16V17.6327H5.39486C-1.54986 17.1405 -1.80103 8.03614 4.70695 6.76975Z"
              fill="#194CBB"/>
        <path fill-rule="evenodd" clip-rule="evenodd"
              d="M16.5 13.7143C16.5 13.7143 17.0341 13.6489 17.6538 13.5519C18.2333 13.4612 18.8876 13.3428 19.25 13.2245C20 12.9796 21.5 12.2449 21.5 12.2449C21.5 12.2449 23 12.9796 23.75 13.2245C24.5 13.4694 26.5 13.7143 26.5 13.7143V21.551L21.5 24L16.5 21.551V13.7143ZM24.3957 15.7851C24.2544 15.6385 24.0228 15.6361 23.8784 15.7793L20.451 19.181L19.1349 17.7303C18.9981 17.5794 18.7665 17.5697 18.618 17.7088C18.4694 17.8476 18.4599 18.0824 18.5967 18.2332L20.1279 19.921C20.1405 19.9348 20.1545 19.9461 20.1685 19.9574L20.1712 19.9596L20.1736 19.9626L20.1748 19.9643C20.1762 19.9662 20.1777 19.9682 20.1794 19.97C20.2511 20.0444 20.346 20.0816 20.441 20.0816C20.5333 20.0816 20.6255 20.0465 20.6968 19.9758L24.39 16.31C24.5344 16.1666 24.537 15.9317 24.3957 15.7851Z"
              fill="#194CBB"/>
    </g>
    <defs>
        <clipPath id="clip0_11890_16852">
            <rect width="27" height="24" fill="white"/>
        </clipPath>
    </defs>
</svg>
