<svg xmlns="http://www.w3.org/2000/svg"  width="42" height="42" viewBox="0 0 32 30" stroke="#194cbb" stroke-width="0.5">
<path fill="#194cbb" d="M21.973 7.39a.503.503 0 0 0-.671.747l1.28 1.152a.5.5 0 0 0 .336.13l.028-.002a.5.5 0 0 0 .347-.167l2.61-2.934a.503.503 0 0 0-.75-.668l-2.274 2.557zM5.964 19.487l.044.002a.5.5 0 0 0 .5-.459q.039-.437.17-.856a.502.502 0 1 0-.956-.303 5 5 0 0 0-.214 1.072c-.024.276.18.52.456.544m.176-5.201a.502.502 0 0 0 .486-.631A3.97 3.97 0 0 1 9.75 8.723c.044-.008.206-.034.285-.115s.11-.242.114-.262a3.176 3.176 0 0 1 3.1-2.44 3.2 3.2 0 0 1 2.206.887v5.986a.502.502 0 1 0 1.004 0V6.793q.37-.356.831-.576a.502.502 0 0 0-.433-.906 4.2 4.2 0 0 0-.904.61 4.2 4.2 0 0 0-2.704-1.02 4.17 4.17 0 0 0-3.98 2.917 4.96 4.96 0 0 0-3.614 6.095c.06.224.263.373.485.373m19.42.182a.5.5 0 0 0 .631-.325l.052-.172a.502.502 0 1 0-.968-.268l-.04.134a.5.5 0 0 0 .325.631"/>
<path fill="#194cbb" d="M9.31 10.958c-.895 0-1.624.729-1.624 1.624s.729 1.624 1.624 1.624 1.624-.728 1.624-1.624-.729-1.624-1.624-1.624m0 2.287a.663.663 0 1 1 0-1.327.663.663 0 0 1 0 1.327m13.346 7.801c.895 0 1.624-.729 1.624-1.624s-.729-1.624-1.624-1.624-1.625.729-1.625 1.624.73 1.624 1.625 1.624m0-2.287a.664.664 0 1 1-.001 1.328.664.664 0 0 1 0-1.328m-10.106-5.513a.664.664 0 1 0-.002-1.329.664.664 0 0 0 .002 1.329m6.839 6.871a.664.664 0 1 0-.001-1.328.664.664 0 0 0 .001 1.328m-15.14-4.111c0-.895-.729-1.624-1.624-1.624S1 15.111 1 16.006s.729 1.624 1.624 1.624 1.624-.728 1.624-1.624m-2.287 0a.664.664 0 1 1 1.328.002.664.664 0 0 1-1.328-.002m27.415-1.624c-.895 0-1.624.729-1.624 1.624s.729 1.624 1.624 1.624S31 16.902 31 16.006s-.728-1.624-1.624-1.624m0 2.287a.664.664 0 1 1 .002-1.328.664.664 0 0 1-.002 1.329m-25.58 4.984a1.625 1.625 0 0 0 0 3.248c.896 0 1.624-.729 1.624-1.624s-.729-1.624-1.624-1.624m0 2.287a.664.664 0 1 1 .001-1.328.664.664 0 0 1-.001 1.328m13.298-8.584a.65.65 0 0 0-.653.653c0 .362.292.653.653.653a.652.652 0 1 0 0-1.306m-6.236.653a.658.658 0 0 0-1.316 0 .658.658 0 0 0 1.316 0m3.937-.653a.66.66 0 0 0-.654.653.658.658 0 0 0 1.316 0 .66.66 0 0 0-.662-.653m-2.29 1.306a.66.66 0 0 0 .652-.653.658.658 0 0 0-1.315 0 .66.66 0 0 0 .663.653m9.841-.653a.652.652 0 1 0-1.305 0 .652.652 0 1 0 1.305 0m2.3 0a.652.652 0 1 0-1.305 0 .652.652 0 1 0 1.305 0m2.3 0a.652.652 0 1 0-1.306 0 .652.652 0 1 0 1.306 0m-18.388 0a.652.652 0 1 0-1.305 0 .652.652 0 1 0 1.305 0m-2.3 0a.652.652 0 1 0-1.305 0 .652.652 0 1 0 1.305 0m13.136.653a.652.652 0 1 0 0-1.306.65.65 0 0 0-.653.653c0 .362.291.653.653.653m-9.139 3.415a.65.65 0 0 0 .653-.653.652.652 0 1 0-.653.653m2.34 0a.65.65 0 0 0 .653-.653.652.652 0 1 0-.653.653m-4.69 0a.65.65 0 0 0 .653-.653.652.652 0 1 0-.653.653m-1.727 1.579a.65.65 0 0 0 .653-.653.652.652 0 1 0-.653.653M28.598 3.84a.5.5 0 0 0-.344-.477L23.74 1.867a.5.5 0 0 0-.316 0l-4.513 1.496a.5.5 0 0 0-.345.476v3.849c0 2.88 3.862 5.16 4.818 5.57a.5.5 0 0 0 .396 0c.956-.41 4.817-2.69 4.817-5.57zm-1.004 3.848c0 2.023-2.792 3.957-4.011 4.555-1.22-.598-4.011-2.532-4.011-4.555V4.202l4.01-1.33 4.012 1.33z"/><path fill="#194cbb" d="M22.654 24.21a4.97 4.97 0 0 0 3.77-4.83c0-.433-.056-.863-.165-1.28a.502.502 0 0 0-.97.257c.087.333.131.677.131 1.023a3.97 3.97 0 0 1-3.257 3.91.5.5 0 0 0-.399.377 3.18 3.18 0 0 1-3.1 2.44 3.2 3.2 0 0 1-2.205-.887v-5.986a.502.502 0 1 0-1.004 0v5.986a3.2 3.2 0 0 1-2.206.886 3.18 3.18 0 0 1-3.1-2.44.5.5 0 0 0-.398-.376 3.96 3.96 0 0 1-1.949-.962.502.502 0 1 0-.673.745 4.96 4.96 0 0 0 2.13 1.138 4.18 4.18 0 0 0 3.99 2.9 4.2 4.2 0 0 0 2.708-1.022 4.2 4.2 0 0 0 2.708 1.022 4.18 4.18 0 0 0 3.99-2.9"/>
</svg>