<svg width="54" height="54" viewBox="0 0 54 54" fill="none" xmlns="http://www.w3.org/2000/svg">
<path fill-rule="evenodd" clip-rule="evenodd" d="M38.5 28C37 28.5 33 29 33 29V45L43 50L53 45V29C53 29 49 28.5 47.5 28C46 27.5 43 26 43 26C43 26 40 27.5 38.5 28ZM47.7569 33.216C48.0457 32.9236 48.5088 32.9285 48.7914 33.2279C49.0739 33.5271 49.0688 34.0069 48.78 34.2997L41.3935 41.784C41.2511 41.9282 41.0665 42 40.882 42C40.6919 42 40.5023 41.924 40.3589 41.772C40.3553 41.7684 40.3525 41.7644 40.3497 41.7604C40.3474 41.7571 40.345 41.7538 40.3424 41.7508L40.3371 41.7464C40.309 41.7233 40.281 41.7002 40.2559 41.672L37.1934 38.2262C36.9198 37.9183 36.9388 37.4389 37.236 37.1554C37.533 36.8716 37.9961 36.8913 38.2698 37.1994L40.9021 40.1612L47.7569 33.216Z" fill="#194CBB"/>
<path fill-rule="evenodd" clip-rule="evenodd" d="M25.0252 3.00055C25.1091 2.99685 25.1937 3.0118 25.2718 3.0454L25.2736 3.04618L25.2765 3.04745L25.2856 3.05147L25.317 3.06555C25.3436 3.07765 25.3815 3.09522 25.43 3.11848C25.5269 3.165 25.666 3.23433 25.8413 3.32838C26.1918 3.51645 26.6872 3.80351 27.2791 4.20474C28.4627 5.00714 30.0335 6.26717 31.6019 8.10639C33.0807 9.84055 34.5524 12.0838 35.6962 14.934H44.2857C44.5788 14.934 44.8163 15.1567 44.8163 15.4313C44.8163 15.7059 44.5788 15.9285 44.2857 15.9285H36.0727C37.1395 18.9224 37.841 22.5361 37.855 26.8681H38.8641C38.5678 26.9851 38.2913 27.0875 38.05 27.1667C37.2896 27.4163 35.945 27.6659 34.7163 27.8626H25.5306V38.8021H32V39.7966H25.5306V49.6965C25.8305 49.5307 26.2148 49.3027 26.6596 49.0048C27.7768 48.2567 29.2739 47.0685 30.7736 45.3173C31.1844 44.8376 31.5958 44.3152 32 43.7473V45.4612C31.8673 45.6249 31.7343 45.7844 31.6012 45.9398C30.0323 47.7719 28.4609 49.0208 27.2766 49.814C26.6844 50.2105 26.1887 50.4934 25.8379 50.6784C25.6625 50.7709 25.5232 50.839 25.4262 50.8847C25.3776 50.9075 25.3397 50.9247 25.313 50.9366L25.2815 50.9504L25.2723 50.9544L25.2694 50.9556L25.2676 50.9564C25.1294 51.0145 24.9707 51.0142 24.8325 50.9562C24.8325 50.9562 24.8331 50.9565 24.9401 50.733L24.8325 50.9562L24.8315 50.9558L24.8285 50.9545L24.8193 50.9506L24.7879 50.9368C24.7612 50.9249 24.7232 50.9077 24.6746 50.8849C24.5776 50.8393 24.4383 50.7713 24.2628 50.6789C23.9119 50.4941 23.416 50.2116 22.8237 49.8154C21.6392 49.0229 20.0674 47.7748 18.4981 45.9433C17.1371 44.3547 15.7824 42.3325 14.6836 39.7966H5.6065C5.31346 39.7966 5.07589 39.574 5.07589 39.2993C5.07589 39.0247 5.31346 38.8021 5.6065 38.8021H14.2766C13.1329 35.8385 12.3441 32.2285 12.2519 27.8626H2.53061C2.23756 27.8626 2 27.6399 2 27.3653C2 27.0907 2.23756 26.8681 2.53061 26.8681H12.2431C12.2571 22.5361 12.9587 18.9224 14.0257 15.9285H5.71429C5.42124 15.9285 5.18367 15.7059 5.18367 15.4313C5.18367 15.1567 5.42124 14.934 5.71429 14.934H14.4023C15.5463 12.0838 17.0183 9.84052 18.4974 8.10635C20.0661 6.26714 21.6372 5.00711 22.821 4.20471C23.413 3.80348 23.9085 3.51643 24.2591 3.32836C24.415 3.24471 24.5424 3.18062 24.6368 3.13473C24.7317 3.05118 24.8595 3 25 3C25.0085 3 25.0169 3.00019 25.0252 3.00055ZM25.2622 3.06487L25.2718 3.0454ZM30.7729 8.72724C32.1217 10.3089 33.4771 12.3482 34.5594 14.934H25.5306V4.31049C25.8303 4.47901 26.2137 4.70991 26.6571 5.01051C27.7749 5.76829 29.2727 6.96804 30.7729 8.72724ZM25.5306 15.9285H34.9516C36.0465 18.8817 36.7793 22.4904 36.7937 26.8681H25.5306V15.9285ZM24.4694 39.7966V49.641C24.1858 49.4812 23.8371 49.2714 23.4403 49.0059C22.323 48.2585 20.8255 47.0712 19.3256 45.3206C18.0964 43.8859 16.8614 42.0682 15.8326 39.7966H24.4694ZM24.4694 38.8021H15.4078C14.2338 35.8831 13.4088 32.279 13.3134 27.8626H24.4694V38.8021ZM24.4694 26.8681H13.3043C13.3188 22.4904 14.0518 18.8817 15.1469 15.9285H24.4694V26.8681ZM24.4694 14.934H15.5391C16.6217 12.3482 17.9773 10.309 19.3264 8.72728C20.8268 6.96808 22.3249 5.76832 23.443 5.01054C23.8384 4.74249 24.1862 4.52987 24.4694 4.36748V14.934Z" fill="#194CBB"/>
<path d="M34.5353 46.8318C31.6506 48.2213 28.4162 49 25 49C12.8497 49 3 39.1503 3 27C3 14.8497 12.8497 5 25 5C37.0881 5 46.8991 14.7492 46.9992 26.8136C47.3472 26.9534 47.672 27.0754 47.95 27.1667C48.2308 27.2588 48.5912 27.351 48.996 27.4405C48.9987 27.294 49 27.1472 49 27C49 13.7452 38.2548 3 25 3C11.7452 3 1 13.7452 1 27C1 40.2548 11.7452 51 25 51C29.2723 51 33.2839 49.8837 36.759 47.9268L34.5353 46.8318Z" fill="#194CBB"/>
<path d="M33 29L32.938 28.5039L32.5 28.5586V29H33ZM33 45H32.5V45.309L32.7764 45.4472L33 45ZM43 50L42.7764 50.4472L43 50.559L43.2236 50.4472L43 50ZM53 45L53.2236 45.4472L53.5 45.309V45H53ZM53 29H53.5V28.5586L53.062 28.5039L53 29ZM43 26L43.2236 25.5528L43 25.441L42.7764 25.5528L43 26ZM48.7914 33.2279L48.4277 33.5711L48.4279 33.5712L48.7914 33.2279ZM47.7569 33.216L47.4011 32.8646L47.401 32.8648L47.7569 33.216ZM48.78 34.2997L49.1359 34.6509L49.136 34.6508L48.78 34.2997ZM41.3935 41.784L41.7492 42.1354L41.7494 42.1352L41.3935 41.784ZM40.3589 41.772L40.7225 41.4289L40.7186 41.4248L40.3589 41.772ZM40.3497 41.7604L39.9413 42.0489L39.9413 42.0489L40.3497 41.7604ZM40.3424 41.7508L40.7173 41.42L40.6912 41.3904L40.6607 41.3653L40.3424 41.7508ZM40.3371 41.7464L40.6554 41.3609L40.6553 41.3608L40.3371 41.7464ZM40.2559 41.672L39.8822 42.0042L39.8827 42.0048L40.2559 41.672ZM37.1934 38.2262L36.8196 38.5583L36.8197 38.5583L37.1934 38.2262ZM37.236 37.1554L37.5811 37.5172L37.5814 37.5169L37.236 37.1554ZM38.2698 37.1994L37.8959 37.5314L37.896 37.5315L38.2698 37.1994ZM40.9021 40.1612L40.5283 40.4934L40.883 40.8924L41.2579 40.5125L40.9021 40.1612ZM24.8133 2.84474C24.6917 3.09269 24.7942 3.39224 25.0421 3.51381C25.29 3.63538 25.5896 3.53293 25.7112 3.28499L24.8133 2.84474ZM25.2718 3.0454L25.4701 2.58642L25.4695 2.58616L25.2718 3.0454ZM25.0252 3.00055L25.0033 3.50007C25.018 3.50072 25.0327 3.50071 25.0473 3.50006L25.0252 3.00055ZM25.2736 3.04618L25.473 2.58769L25.4719 2.5872L25.2736 3.04618ZM25.2765 3.04745L25.4777 2.58972L25.476 2.58896L25.2765 3.04745ZM25.2856 3.05147L25.4904 2.59531L25.4868 2.59375L25.2856 3.05147ZM25.317 3.06555L25.5239 2.61035L25.5218 2.60941L25.317 3.06555ZM25.43 3.11848L25.2136 3.56924L25.2136 3.56924L25.43 3.11848ZM25.8413 3.32838L25.6049 3.76897L25.6049 3.76897L25.8413 3.32838ZM27.2791 4.20474L26.9985 4.6186L26.9985 4.6186L27.2791 4.20474ZM31.6019 8.10639L31.9824 7.78196L31.9824 7.78196L31.6019 8.10639ZM35.6962 14.934L35.2322 15.1202C35.3083 15.3098 35.492 15.434 35.6962 15.434V14.934ZM36.0727 15.9285V15.4285C35.9102 15.4285 35.7578 15.5075 35.6641 15.6404C35.5704 15.7732 35.5471 15.9433 35.6017 16.0964L36.0727 15.9285ZM37.855 26.8681L37.355 26.8697C37.3559 27.1452 37.5795 27.3681 37.855 27.3681V26.8681ZM38.8641 26.8681L39.0478 27.3331C39.2711 27.2449 39.4002 27.0104 39.3553 26.7746C39.3104 26.5387 39.1042 26.3681 38.8641 26.3681V26.8681ZM38.05 27.1667L37.894 26.6916L37.894 26.6916L38.05 27.1667ZM34.7163 27.8626V28.3626C34.7428 28.3626 34.7692 28.3605 34.7953 28.3563L34.7163 27.8626ZM25.5306 27.8626V27.3626C25.2545 27.3626 25.0306 27.5864 25.0306 27.8626H25.5306ZM25.5306 38.8021H25.0306C25.0306 39.0782 25.2545 39.3021 25.5306 39.3021V38.8021ZM32 38.8021H32.5C32.5 38.5259 32.2761 38.3021 32 38.3021V38.8021ZM32 39.7966V40.2966C32.2761 40.2966 32.5 40.0727 32.5 39.7966H32ZM25.5306 39.7966V39.2966C25.2545 39.2966 25.0306 39.5204 25.0306 39.7966H25.5306ZM25.5306 49.6965H25.0306C25.0306 49.8735 25.1242 50.0373 25.2766 50.1272C25.4291 50.2171 25.6177 50.2197 25.7726 50.1341L25.5306 49.6965ZM26.6596 49.0048L26.9378 49.4203L26.9378 49.4203L26.6596 49.0048ZM30.7736 45.3173L31.1534 45.6426L31.1534 45.6426L30.7736 45.3173ZM32 43.7473H32.5C32.5 43.5297 32.3594 43.3372 32.1522 43.271C31.945 43.2048 31.7188 43.2801 31.5926 43.4573L32 43.7473ZM32 45.4612L32.3884 45.776C32.4606 45.6869 32.5 45.5758 32.5 45.4612H32ZM31.6012 45.9398L31.2215 45.6146L31.2215 45.6146L31.6012 45.9398ZM27.2766 49.814L27.5548 50.2294L27.5548 50.2294L27.2766 49.814ZM25.8379 50.6784L26.0712 51.1207L26.0712 51.1207L25.8379 50.6784ZM25.4262 50.8847L25.2133 50.4322L25.2133 50.4323L25.4262 50.8847ZM25.313 50.9366L25.514 51.3944L25.5162 51.3934L25.313 50.9366ZM25.2815 50.9504L25.4789 51.4098L25.4826 51.4082L25.2815 50.9504ZM25.2723 50.9544L25.4678 51.4146L25.4697 51.4137L25.2723 50.9544ZM25.2694 50.9556L25.4637 51.4163L25.4648 51.4158L25.2694 50.9556ZM25.2676 50.9564L25.4614 51.4173L25.4619 51.4171L25.2676 50.9564ZM24.9401 50.733L25.3911 50.9489C25.5102 50.7 25.4053 50.4017 25.1566 50.2823C24.9079 50.1628 24.6095 50.2674 24.4897 50.5159L24.9401 50.733ZM24.8315 50.9558L24.6361 51.416L24.6374 51.4166L24.8315 50.9558ZM24.8285 50.9545L24.6313 51.414L24.6332 51.4148L24.8285 50.9545ZM24.8193 50.9506L24.6186 51.4085L24.6221 51.41L24.8193 50.9506ZM24.7879 50.9368L24.5849 51.3938L24.5871 51.3947L24.7879 50.9368ZM24.6746 50.8849L24.8872 50.4324L24.8872 50.4324L24.6746 50.8849ZM24.2628 50.6789L24.4958 50.2365L24.4958 50.2365L24.2628 50.6789ZM22.8237 49.8154L22.5457 50.231L22.5457 50.231L22.8237 49.8154ZM18.4981 45.9433L18.1184 46.2686L18.1184 46.2686L18.4981 45.9433ZM14.6836 39.7966L15.1424 39.5978C15.0631 39.4149 14.8829 39.2966 14.6836 39.2966V39.7966ZM14.2766 38.8021V39.3021C14.4414 39.3021 14.5956 39.2208 14.6889 39.0849C14.7821 38.949 14.8024 38.7759 14.743 38.6221L14.2766 38.8021ZM12.2519 27.8626L12.7518 27.852C12.7461 27.58 12.524 27.3626 12.2519 27.3626V27.8626ZM12.2431 26.8681V27.3681C12.5186 27.3681 12.7422 27.1452 12.7431 26.8697L12.2431 26.8681ZM14.0257 15.9285L14.4967 16.0964C14.5513 15.9433 14.528 15.7732 14.4344 15.6404C14.3407 15.5075 14.1883 15.4285 14.0257 15.4285V15.9285ZM14.4023 14.934V15.434C14.6065 15.434 14.7902 15.3098 14.8663 15.1203L14.4023 14.934ZM18.4974 8.10635L18.8778 8.43082L18.8778 8.43082L18.4974 8.10635ZM22.821 4.20471L22.5405 3.79082L22.5405 3.79082L22.821 4.20471ZM24.2591 3.32836L24.4955 3.76896L24.4955 3.76896L24.2591 3.32836ZM24.6368 3.13473L24.8553 3.58447C24.8958 3.56481 24.9334 3.53978 24.9672 3.51006L24.6368 3.13473ZM34.5594 14.934V15.434C34.7267 15.434 34.883 15.3503 34.9757 15.211C35.0684 15.0717 35.0852 14.8953 35.0206 14.741L34.5594 14.934ZM30.7729 8.72724L30.3924 9.05168L30.3924 9.05168L30.7729 8.72724ZM25.5306 14.934H25.0306C25.0306 15.2102 25.2545 15.434 25.5306 15.434V14.934ZM25.5306 4.31049L25.7757 3.87467C25.6209 3.78761 25.4315 3.78922 25.2782 3.8789C25.1248 3.96858 25.0306 4.13287 25.0306 4.31049H25.5306ZM26.6571 5.01051L26.3765 5.42438L26.3765 5.42438L26.6571 5.01051ZM34.9516 15.9285L35.4204 15.7547C35.3477 15.5587 35.1607 15.4285 34.9516 15.4285V15.9285ZM25.5306 15.9285V15.4285C25.2545 15.4285 25.0306 15.6524 25.0306 15.9285H25.5306ZM36.7937 26.8681V27.3681C36.9266 27.3681 37.0541 27.3151 37.1479 27.221C37.2417 27.1269 37.2942 26.9993 37.2937 26.8664L36.7937 26.8681ZM25.5306 26.8681H25.0306C25.0306 27.1442 25.2545 27.3681 25.5306 27.3681V26.8681ZM24.4694 49.641L24.2239 50.0766C24.3787 50.1639 24.5682 50.1624 24.7216 50.0727C24.8751 49.9831 24.9694 49.8187 24.9694 49.641H24.4694ZM24.4694 39.7966H24.9694C24.9694 39.5204 24.7455 39.2966 24.4694 39.2966V39.7966ZM23.4403 49.0059L23.1623 49.4215L23.1623 49.4215L23.4403 49.0059ZM19.3256 45.3206L18.9459 45.6459L18.9459 45.6459L19.3256 45.3206ZM15.8326 39.7966V39.2966C15.6627 39.2966 15.5045 39.3828 15.4124 39.5256C15.3203 39.6684 15.3071 39.8481 15.3771 40.0029L15.8326 39.7966ZM15.4078 38.8021L14.9439 38.9887C15.0201 39.178 15.2037 39.3021 15.4078 39.3021V38.8021ZM24.4694 38.8021V39.3021C24.7455 39.3021 24.9694 39.0782 24.9694 38.8021H24.4694ZM13.3134 27.8626V27.3626C13.1789 27.3626 13.0501 27.4167 12.956 27.5128C12.862 27.609 12.8106 27.7389 12.8135 27.8734L13.3134 27.8626ZM24.4694 27.8626H24.9694C24.9694 27.5864 24.7455 27.3626 24.4694 27.3626V27.8626ZM13.3043 26.8681L12.8043 26.8664C12.8039 26.9993 12.8564 27.1269 12.9502 27.221C13.044 27.3151 13.1714 27.3681 13.3043 27.3681V26.8681ZM24.4694 26.8681V27.3681C24.7455 27.3681 24.9694 27.1442 24.9694 26.8681H24.4694ZM15.1469 15.9285V15.4285C14.9378 15.4285 14.7507 15.5586 14.678 15.7547L15.1469 15.9285ZM24.4694 15.9285H24.9694C24.9694 15.6524 24.7455 15.4285 24.4694 15.4285V15.9285ZM15.5391 14.934L15.0779 14.7409C15.0133 14.8953 15.0302 15.0717 15.1228 15.211C15.2155 15.3503 15.3718 15.434 15.5391 15.434V14.934ZM24.4694 14.934V15.434C24.7455 15.434 24.9694 15.2102 24.9694 14.934H24.4694ZM19.3264 8.72728L19.7068 9.05175L19.7068 9.05175L19.3264 8.72728ZM23.443 5.01054L23.7235 5.42443L23.7235 5.42443L23.443 5.01054ZM24.4694 4.36748H24.9694C24.9694 4.18911 24.8744 4.02424 24.72 3.93483C24.5657 3.84542 24.3754 3.845 24.2207 3.93373L24.4694 4.36748ZM34.5353 46.8318L34.7562 46.3832L34.5378 46.2757L34.3184 46.3813L34.5353 46.8318ZM46.9992 26.8136L46.4992 26.8177L46.502 27.1527L46.8128 27.2776L46.9992 26.8136ZM47.95 27.1667L48.106 26.6916L48.106 26.6916L47.95 27.1667ZM48.996 27.4405L48.8881 27.9287L49.485 28.0607L49.496 27.4495L48.996 27.4405ZM36.759 47.9268L37.0043 48.3625L37.8306 47.8971L36.9799 47.4782L36.759 47.9268ZM33 29C33.062 29.4961 33.0621 29.4961 33.0621 29.4961C33.0621 29.4961 33.0622 29.4961 33.0623 29.4961C33.0624 29.4961 33.0626 29.4961 33.0629 29.496C33.0634 29.496 33.0642 29.4959 33.0652 29.4957C33.0673 29.4955 33.0702 29.4951 33.0741 29.4946C33.082 29.4936 33.0935 29.4922 33.1086 29.4902C33.1387 29.4864 33.1828 29.4807 33.2395 29.4733C33.3528 29.4586 33.516 29.4369 33.7164 29.4094C34.1172 29.3544 34.6675 29.2758 35.2655 29.1814C36.4456 28.995 37.8622 28.7397 38.6581 28.4743L38.3419 27.5257C37.6378 27.7603 36.3044 28.005 35.1095 28.1936C34.52 28.2867 33.9766 28.3643 33.5804 28.4187C33.3825 28.4459 33.2215 28.4672 33.1101 28.4817C33.0545 28.489 33.0112 28.4946 32.982 28.4983C32.9674 28.5001 32.9563 28.5016 32.9489 28.5025C32.9452 28.503 32.9424 28.5033 32.9406 28.5035C32.9397 28.5036 32.939 28.5037 32.9386 28.5038C32.9383 28.5038 32.9382 28.5038 32.9381 28.5038C32.938 28.5039 32.938 28.5039 32.938 28.5039C32.938 28.5039 32.938 28.5039 33 29ZM33.5 45V29H32.5V45H33.5ZM43.2236 49.5528L33.2236 44.5528L32.7764 45.4472L42.7764 50.4472L43.2236 49.5528ZM52.7764 44.5528L42.7764 49.5528L43.2236 50.4472L53.2236 45.4472L52.7764 44.5528ZM52.5 29V45H53.5V29H52.5ZM47.3419 28.4743C48.1378 28.7397 49.5544 28.995 50.7345 29.1814C51.3325 29.2758 51.8828 29.3544 52.2836 29.4094C52.484 29.4369 52.6472 29.4586 52.7605 29.4733C52.8172 29.4807 52.8613 29.4864 52.8914 29.4902C52.9065 29.4922 52.918 29.4936 52.9259 29.4946C52.9298 29.4951 52.9327 29.4955 52.9348 29.4957C52.9358 29.4959 52.9366 29.496 52.9371 29.496C52.9374 29.4961 52.9376 29.4961 52.9377 29.4961C52.9378 29.4961 52.9379 29.4961 52.9379 29.4961C52.9379 29.4961 52.938 29.4961 53 29C53.062 28.5039 53.062 28.5039 53.062 28.5039C53.062 28.5039 53.062 28.5039 53.0619 28.5038C53.0618 28.5038 53.0617 28.5038 53.0614 28.5038C53.061 28.5037 53.0603 28.5036 53.0594 28.5035C53.0576 28.5033 53.0548 28.503 53.0511 28.5025C53.0437 28.5016 53.0326 28.5001 53.018 28.4983C52.9888 28.4946 52.9455 28.489 52.8899 28.4817C52.7785 28.4672 52.6175 28.4459 52.4196 28.4187C52.0234 28.3643 51.48 28.2867 50.8905 28.1936C49.6956 28.005 48.3622 27.7603 47.6581 27.5257L47.3419 28.4743ZM43 26C42.7764 26.4472 42.7764 26.4472 42.7765 26.4472C42.7765 26.4473 42.7765 26.4473 42.7766 26.4473C42.7767 26.4474 42.7769 26.4474 42.7771 26.4475C42.7775 26.4477 42.778 26.448 42.7788 26.4484C42.7803 26.4492 42.7826 26.4503 42.7855 26.4518C42.7914 26.4547 42.8001 26.459 42.8114 26.4647C42.8341 26.4759 42.8674 26.4925 42.9103 26.5137C42.996 26.556 43.1199 26.617 43.2732 26.6917C43.5797 26.841 44.0042 27.0454 44.4761 27.2656C45.4119 27.7023 46.5611 28.2141 47.3419 28.4743L47.6581 27.5257C46.9389 27.2859 45.8381 26.7977 44.8989 26.3594C44.4333 26.1421 44.0141 25.9403 43.7112 25.7927C43.5598 25.7189 43.4376 25.6588 43.3534 25.6172C43.3113 25.5964 43.2787 25.5802 43.2567 25.5693C43.2457 25.5638 43.2373 25.5596 43.2318 25.5569C43.229 25.5555 43.2269 25.5544 43.2256 25.5538C43.2249 25.5534 43.2244 25.5532 43.224 25.553C43.2239 25.5529 43.2238 25.5529 43.2237 25.5528C43.2236 25.5528 43.2236 25.5528 43.2236 25.5528C43.2236 25.5528 43.2236 25.5528 43 26ZM38.6581 28.4743C39.4389 28.2141 40.5881 27.7023 41.5239 27.2656C41.9958 27.0454 42.4203 26.841 42.7268 26.6917C42.8801 26.617 43.004 26.556 43.0897 26.5137C43.1326 26.4925 43.1659 26.4759 43.1886 26.4647C43.1999 26.459 43.2086 26.4547 43.2145 26.4518C43.2174 26.4503 43.2197 26.4492 43.2212 26.4484C43.222 26.448 43.2225 26.4477 43.2229 26.4475C43.2231 26.4474 43.2233 26.4474 43.2234 26.4473C43.2235 26.4473 43.2235 26.4473 43.2235 26.4472C43.2236 26.4472 43.2236 26.4472 43 26C42.7764 25.5528 42.7764 25.5528 42.7764 25.5528C42.7764 25.5528 42.7764 25.5528 42.7763 25.5528C42.7762 25.5529 42.7761 25.5529 42.776 25.553C42.7756 25.5532 42.7751 25.5534 42.7744 25.5538C42.7731 25.5544 42.771 25.5555 42.7682 25.5569C42.7627 25.5596 42.7543 25.5638 42.7433 25.5693C42.7213 25.5802 42.6887 25.5964 42.6466 25.6172C42.5624 25.6588 42.4402 25.7189 42.2888 25.7927C41.9859 25.9403 41.5667 26.1421 41.1011 26.3594C40.1619 26.7977 39.0611 27.2859 38.3419 27.5257L38.6581 28.4743ZM49.155 32.8847C48.6781 32.3795 47.8888 32.371 47.4011 32.8646L48.1126 33.5674C48.2026 33.4763 48.3395 33.4776 48.4277 33.5711L49.155 32.8847ZM49.136 34.6508C49.614 34.1662 49.6222 33.3794 49.1549 32.8846L48.4279 33.5712C48.5257 33.6749 48.5236 33.8476 48.4241 33.9485L49.136 34.6508ZM41.7494 42.1352L49.1359 34.6509L48.4241 33.9484L41.0377 41.4328L41.7494 42.1352ZM40.882 42.5C41.1975 42.5 41.5109 42.3765 41.7492 42.1354L41.0379 41.4326C40.9912 41.4798 40.9355 41.5 40.882 41.5V42.5ZM39.9952 42.1152C40.2351 42.3695 40.5573 42.5 40.882 42.5V41.5C40.8265 41.5 40.7694 41.4786 40.7225 41.4289L39.9952 42.1152ZM39.9413 42.0489C39.9417 42.0495 39.9487 42.0595 39.9571 42.0704C39.9662 42.0823 39.9803 42.0998 39.9991 42.1193L40.7186 41.4248C40.7339 41.4407 40.7448 41.4543 40.751 41.4623C40.7563 41.4693 40.7604 41.4753 40.7581 41.4719L39.9413 42.0489ZM39.9675 42.0817C39.9572 42.07 39.9497 42.0602 39.9457 42.0549C39.9422 42.0502 39.9395 42.0463 39.9413 42.0489L40.7581 41.4719C40.7575 41.4711 40.7525 41.464 40.7466 41.4561C40.7402 41.4475 40.7303 41.4347 40.7173 41.42L39.9675 42.0817ZM40.0187 42.132L40.024 42.1364L40.6607 41.3653L40.6554 41.3609L40.0187 42.132ZM39.8827 42.0048C39.9373 42.066 39.995 42.1124 40.0188 42.1321L40.6553 41.3608C40.648 41.3547 40.6429 41.3505 40.6381 41.3465C40.6336 41.3427 40.6306 41.3401 40.6285 41.3382C40.6243 41.3345 40.6255 41.3352 40.629 41.3392L39.8827 42.0048ZM36.8197 38.5583L39.8822 42.0042L40.6296 41.3398L37.5671 37.894L36.8197 38.5583ZM36.8909 36.7936C36.3978 37.2639 36.3681 38.0502 36.8196 38.5583L37.5671 37.8941C37.4714 37.7864 37.4798 37.6139 37.5811 37.5172L36.8909 36.7936ZM38.6436 36.8674C38.1829 36.3485 37.3935 36.3133 36.8906 36.7939L37.5814 37.5169C37.6726 37.4298 37.8094 37.434 37.8959 37.5314L38.6436 36.8674ZM41.2758 39.8291L38.6435 36.8672L37.896 37.5315L40.5283 40.4934L41.2758 39.8291ZM47.401 32.8648L40.5462 39.81L41.2579 40.5125L48.1127 33.5672L47.401 32.8648ZM25.7112 3.28499L25.7207 3.26553L24.8228 2.82528L24.8133 2.84474L25.7112 3.28499ZM25.4695 2.58616C25.3206 2.52204 25.1607 2.49408 25.0032 2.50104L25.0473 3.50006C25.0575 3.49961 25.0668 3.50155 25.074 3.50465L25.4695 2.58616ZM25.4719 2.5872L25.4701 2.58642L25.0734 3.50439L25.0752 3.50516L25.4719 2.5872ZM25.476 2.58896L25.473 2.58769L25.0741 3.50467L25.077 3.50593L25.476 2.58896ZM25.4868 2.59375L25.4777 2.58972L25.0753 3.50517L25.0844 3.5092L25.4868 2.59375ZM25.5218 2.60941L25.4904 2.59533L25.0809 3.50762L25.1122 3.5217L25.5218 2.60941ZM25.6464 2.66772C25.5947 2.64291 25.5536 2.62387 25.5239 2.61036L25.1101 3.52075C25.1336 3.53144 25.1684 3.54752 25.2136 3.56924L25.6464 2.66772ZM26.0777 2.8878C25.8955 2.79005 25.7497 2.71733 25.6464 2.66772L25.2136 3.56924C25.3041 3.61267 25.4365 3.67862 25.6049 3.76897L26.0777 2.8878ZM27.5597 3.79088C26.9523 3.37911 26.442 3.08324 26.0777 2.8878L25.6049 3.76897C25.9417 3.94966 26.4222 4.2279 26.9985 4.6186L27.5597 3.79088ZM31.9824 7.78196C30.3803 5.90321 28.7741 4.61417 27.5597 3.79088L26.9985 4.6186C28.1514 5.40011 29.6868 6.63114 31.2215 8.43082L31.9824 7.78196ZM36.1602 14.7478C34.9946 11.8433 33.4935 9.55395 31.9824 7.78196L31.2215 8.43082C32.668 10.1272 34.1102 12.3243 35.2322 15.1202L36.1602 14.7478ZM44.2857 14.434H35.6962V15.434H44.2857V14.434ZM45.3163 15.4313C45.3163 14.8504 44.8238 14.434 44.2857 14.434V15.434C44.3046 15.434 44.3152 15.4409 44.319 15.4445C44.3208 15.4462 44.3202 15.4462 44.3189 15.4434C44.3174 15.4401 44.3163 15.4356 44.3163 15.4313H45.3163ZM44.2857 16.4285C44.8238 16.4285 45.3163 16.0121 45.3163 15.4313H44.3163C44.3163 15.427 44.3174 15.4224 44.3189 15.4191C44.3202 15.4163 44.3208 15.4163 44.319 15.4181C44.3152 15.4216 44.3046 15.4285 44.2857 15.4285V16.4285ZM36.0727 16.4285H44.2857V15.4285H36.0727V16.4285ZM38.355 26.8664C38.3408 22.4804 37.6304 18.8102 36.5437 15.7607L35.6017 16.0964C36.6487 19.0345 37.3412 22.5918 37.355 26.8697L38.355 26.8664ZM38.8641 26.3681H37.855V27.3681H38.8641V26.3681ZM38.206 27.6417C38.4598 27.5584 38.7461 27.4522 39.0478 27.3331L38.6804 26.403C38.3894 26.518 38.1227 26.6165 37.894 26.6916L38.206 27.6417ZM34.7953 28.3563C36.0185 28.1605 37.4019 27.9057 38.206 27.6417L37.894 26.6916C37.1773 26.9269 35.8715 27.1713 34.6373 27.3688L34.7953 28.3563ZM34.7163 27.3626H25.5306V28.3626H34.7163V27.3626ZM25.0306 27.8626V38.8021H26.0306V27.8626H25.0306ZM25.5306 39.3021H32V38.3021H25.5306V39.3021ZM32.5 39.7966V38.8021H31.5V39.7966H32.5ZM32 39.2966H25.5306V40.2966H32V39.2966ZM25.0306 39.7966V49.6965H26.0306V39.7966H25.0306ZM25.7726 50.1341C26.084 49.9619 26.4805 49.7266 26.9378 49.4203L26.3814 48.5894C25.9492 48.8788 25.5771 49.0995 25.2886 49.259L25.7726 50.1341ZM26.9378 49.4203C28.0864 48.6511 29.6195 47.4337 31.1534 45.6426L30.3938 44.9921C28.9284 46.7034 27.4671 47.8623 26.3814 48.5894L26.9378 49.4203ZM31.1534 45.6426C31.5735 45.1519 31.9942 44.6177 32.4074 44.0372L31.5926 43.4573C31.1974 44.0126 30.7952 44.5234 30.3938 44.9921L31.1534 45.6426ZM32.5 45.4612V43.7473H31.5V45.4612H32.5ZM31.981 46.265C32.117 46.1062 32.2529 45.9433 32.3884 45.776L31.6116 45.1463C31.4817 45.3065 31.3516 45.4626 31.2215 45.6146L31.981 46.265ZM27.5548 50.2294C28.7705 49.4152 30.3779 48.137 31.981 46.265L31.2215 45.6146C29.6867 47.4067 28.1513 48.6264 26.9984 49.3985L27.5548 50.2294ZM26.0712 51.1207C26.436 50.9283 26.9468 50.6366 27.5548 50.2294L26.9984 49.3985C26.422 49.7845 25.9415 50.0585 25.6047 50.2361L26.0712 51.1207ZM25.639 51.3371C25.7426 51.2884 25.8887 51.2169 26.0712 51.1207L25.6047 50.2361C25.4363 50.3249 25.3038 50.3897 25.2133 50.4322L25.639 51.3371ZM25.5162 51.3934C25.546 51.3802 25.5872 51.3615 25.6391 51.3371L25.2133 50.4323C25.1681 50.4535 25.1333 50.4693 25.1097 50.4798L25.5162 51.3934ZM25.4826 51.4082L25.514 51.3944L25.1119 50.4788L25.0805 50.4926L25.4826 51.4082ZM25.4697 51.4137L25.4789 51.4098L25.0841 50.491L25.0749 50.495L25.4697 51.4137ZM25.4648 51.4158L25.4678 51.4146L25.0769 50.4942L25.0739 50.4954L25.4648 51.4158ZM25.4619 51.4171L25.4637 51.4163L25.075 50.4949L25.0732 50.4957L25.4619 51.4171ZM24.639 51.4172C24.9003 51.5269 25.1987 51.5278 25.4614 51.4173L25.0737 50.4955C25.0602 50.5012 25.0411 50.5015 25.0261 50.4952L24.639 51.4172ZM24.8325 50.9562C24.6385 51.417 24.7198 51.4433 24.8043 51.4554C24.8291 51.4562 24.8964 51.4521 24.9383 51.4449C25.0089 51.4296 25.0607 51.4024 25.0892 51.3853C25.1445 51.3522 25.1801 51.3161 25.1919 51.3039C25.2199 51.2749 25.238 51.2489 25.2422 51.2429C25.2546 51.2252 25.2631 51.2105 25.2648 51.2075C25.2704 51.1979 25.2744 51.1901 25.2753 51.1885C25.2781 51.1831 25.2805 51.1784 25.2817 51.1759C25.2847 51.1699 25.2891 51.161 25.296 51.1467C25.3102 51.1176 25.3375 51.0608 25.3911 50.9489L24.4891 50.5171C24.4357 50.6287 24.4093 50.6835 24.3964 50.7101C24.3898 50.7237 24.3873 50.7286 24.3868 50.7296C24.3863 50.7306 24.3878 50.7276 24.3902 50.7231C24.3909 50.7219 24.3948 50.7143 24.4004 50.7048C24.402 50.7019 24.4105 50.6872 24.4229 50.6695C24.4271 50.6635 24.4451 50.6375 24.4732 50.6085C24.485 50.5964 24.5205 50.5602 24.5758 50.5271C24.6044 50.51 24.6562 50.4828 24.7267 50.4675C24.7687 50.4603 24.8359 50.4562 24.8607 50.457C24.9453 50.4691 25.0266 50.4954 24.8325 50.9562ZM24.4897 50.5159L24.3821 50.7391L25.2829 51.1733L25.3905 50.9501L24.4897 50.5159ZM24.6374 51.4166L24.6385 51.417L25.0266 50.4954L25.0255 50.495L24.6374 51.4166ZM24.6332 51.4148L24.6361 51.416L25.0268 50.4955L25.0239 50.4943L24.6332 51.4148ZM24.6221 51.41L24.6313 51.414L25.0258 50.4951L25.0166 50.4911L24.6221 51.41ZM24.5871 51.3947L24.6186 51.4085L25.0201 50.4926L24.9886 50.4788L24.5871 51.3947ZM24.462 51.3375C24.5139 51.3618 24.5551 51.3805 24.5849 51.3937L24.9908 50.4798C24.9672 50.4693 24.9324 50.4536 24.8872 50.4324L24.462 51.3375ZM24.0298 51.1213C24.2123 51.2174 24.3584 51.2888 24.4621 51.3375L24.8872 50.4324C24.7967 50.3898 24.6642 50.3252 24.4958 50.2365L24.0298 51.1213ZM22.5457 50.231C23.1539 50.6378 23.6649 50.9292 24.0298 51.1213L24.4958 50.2365C24.1589 50.0591 23.6782 49.7854 23.1017 49.3998L22.5457 50.231ZM18.1184 46.2686C19.722 48.1401 21.3297 49.4175 22.5457 50.231L23.1017 49.3998C21.9486 48.6284 20.4128 47.4095 18.8778 45.6179L18.1184 46.2686ZM14.2248 39.9954C15.345 42.5805 16.7273 44.6449 18.1184 46.2686L18.8778 45.6179C17.5468 44.0645 16.2199 42.0845 15.1424 39.5978L14.2248 39.9954ZM5.6065 40.2966H14.6836V39.2966H5.6065V40.2966ZM4.57589 39.2993C4.57589 39.8802 5.0684 40.2966 5.6065 40.2966V39.2966C5.58762 39.2966 5.57703 39.2897 5.5732 39.2861C5.57139 39.2844 5.57205 39.2844 5.57332 39.2872C5.5748 39.2905 5.57589 39.295 5.57589 39.2993H4.57589ZM5.6065 38.3021C5.0684 38.3021 4.57589 38.7185 4.57589 39.2993H5.57589C5.57589 39.3036 5.5748 39.3082 5.57332 39.3115C5.57205 39.3143 5.57139 39.3143 5.5732 39.3126C5.57703 39.309 5.58762 39.3021 5.6065 39.3021V38.3021ZM14.2766 38.3021H5.6065V39.3021H14.2766V38.3021ZM11.7521 27.8731C11.8454 32.2945 12.6447 35.9621 13.8101 38.9821L14.743 38.6221C13.6212 35.7149 12.8428 32.1625 12.7518 27.852L11.7521 27.8731ZM2.53061 28.3626H12.2519V27.3626H2.53061V28.3626ZM1.5 27.3653C1.5 27.9462 1.9925 28.3626 2.53061 28.3626V27.3626C2.51173 27.3626 2.50114 27.3557 2.49731 27.3521C2.49549 27.3504 2.49616 27.3503 2.49743 27.3532C2.49891 27.3564 2.5 27.361 2.5 27.3653H1.5ZM2.53061 26.3681C1.9925 26.3681 1.5 26.7845 1.5 27.3653H2.5C2.5 27.3696 2.49891 27.3742 2.49743 27.3774C2.49616 27.3803 2.49549 27.3802 2.49731 27.3785C2.50114 27.3749 2.51173 27.3681 2.53061 27.3681V26.3681ZM12.2431 26.3681H2.53061V27.3681H12.2431V26.3681ZM13.5548 15.7607C12.4679 18.8102 11.7573 22.4804 11.7431 26.8664L12.7431 26.8697C12.7569 22.5918 13.4495 19.0345 14.4967 16.0964L13.5548 15.7607ZM5.71429 16.4285H14.0257V15.4285H5.71429V16.4285ZM4.68367 15.4313C4.68367 16.0121 5.17618 16.4285 5.71429 16.4285V15.4285C5.6954 15.4285 5.68481 15.4216 5.68098 15.4181C5.67917 15.4163 5.67983 15.4163 5.6811 15.4191C5.68258 15.4224 5.68367 15.427 5.68367 15.4313H4.68367ZM5.71429 14.434C5.17617 14.434 4.68367 14.8504 4.68367 15.4313H5.68367C5.68367 15.4356 5.68258 15.4401 5.6811 15.4434C5.67983 15.4462 5.67917 15.4462 5.68098 15.4445C5.68481 15.4409 5.6954 15.434 5.71429 15.434V14.434ZM14.4023 14.434H5.71429V15.434H14.4023V14.434ZM18.117 7.78188C16.6056 9.55388 15.1041 11.8433 13.9383 14.7478L14.8663 15.1203C15.9885 12.3243 17.431 10.1272 18.8778 8.43082L18.117 7.78188ZM22.5405 3.79082C21.3258 4.61411 19.7194 5.90314 18.117 7.78188L18.8778 8.43082C20.4128 6.63114 21.9485 5.40011 23.1016 4.6186L22.5405 3.79082ZM24.0228 2.88775C23.6584 3.0832 23.148 3.37907 22.5405 3.79082L23.1016 4.6186C23.678 4.22789 24.1587 3.94966 24.4955 3.76896L24.0228 2.88775ZM24.4183 2.68499C24.3181 2.73368 24.1848 2.80082 24.0228 2.88776L24.4955 3.76896C24.6453 3.68861 24.7666 3.62755 24.8553 3.58447L24.4183 2.68499ZM25 2.5C24.7371 2.5 24.4921 2.59603 24.3065 2.75941L24.9672 3.51006C24.9714 3.50633 24.9819 3.5 25 3.5V2.5ZM25.0472 2.50103C25.0315 2.50035 25.0158 2.5 25 2.5V3.5C25.0011 3.5 25.0023 3.50003 25.0033 3.50007L25.0472 2.50103ZM35.0206 14.741C33.9167 12.1036 32.5329 10.0206 31.1534 8.40281L30.3924 9.05168C31.7105 10.5973 33.0374 12.5928 34.0982 15.1271L35.0206 14.741ZM25.5306 15.434H34.5594V14.434H25.5306V15.434ZM25.0306 4.31049V14.934H26.0306V4.31049H25.0306ZM26.9377 4.59665C26.4819 4.28768 26.0866 4.04951 25.7757 3.87467L25.2855 4.74631C25.574 4.90851 25.9455 5.13214 26.3765 5.42438L26.9377 4.59665ZM31.1534 8.40281C29.6195 6.60408 28.0863 5.37533 26.9377 4.59665L26.3765 5.42438C27.4635 6.16126 28.926 7.332 30.3924 9.05168L31.1534 8.40281ZM34.9516 15.4285H25.5306V16.4285H34.9516V15.4285ZM37.2937 26.8664C37.2791 22.4327 36.5366 18.7655 35.4204 15.7547L34.4828 16.1023C35.5563 18.9979 36.2795 22.5481 36.2937 26.8697L37.2937 26.8664ZM25.5306 27.3681H36.7937V26.3681H25.5306V27.3681ZM25.0306 15.9285V26.8681H26.0306V15.9285H25.0306ZM24.9694 49.641V39.7966H23.9694V49.641H24.9694ZM23.1623 49.4215C23.5704 49.6945 23.93 49.911 24.2239 50.0766L24.7148 49.2054C24.4416 49.0515 24.1038 48.8483 23.7183 48.5904L23.1623 49.4215ZM18.9459 45.6459C20.4801 47.4365 22.0135 48.653 23.1623 49.4215L23.7183 48.5904C22.6324 47.8639 21.171 46.7059 19.7053 44.9953L18.9459 45.6459ZM15.3771 40.0029C16.4269 42.3207 17.6883 44.1781 18.9459 45.6459L19.7053 44.9953C18.5045 43.5937 17.2959 41.8156 16.2881 39.5903L15.3771 40.0029ZM24.4694 39.2966H15.8326V40.2966H24.4694V39.2966ZM15.4078 39.3021H24.4694V38.3021H15.4078V39.3021ZM12.8135 27.8734C12.9102 32.3474 13.7464 36.0113 14.9439 38.9887L15.8717 38.6155C14.7212 35.7549 13.9075 32.2106 13.8133 27.8518L12.8135 27.8734ZM24.4694 27.3626H13.3134V28.3626H24.4694V27.3626ZM24.9694 38.8021V27.8626H23.9694V38.8021H24.9694ZM13.3043 27.3681H24.4694V26.3681H13.3043V27.3681ZM14.678 15.7547C13.5616 18.7655 12.819 22.4327 12.8043 26.8664L13.8043 26.8697C13.8186 22.5481 14.5419 18.9979 15.6157 16.1024L14.678 15.7547ZM24.4694 15.4285H15.1469V16.4285H24.4694V15.4285ZM24.9694 26.8681V15.9285H23.9694V26.8681H24.9694ZM15.5391 15.434H24.4694V14.434H15.5391V15.434ZM18.9459 8.40281C17.5661 10.0205 16.182 12.1036 15.0779 14.7409L16.0003 15.1271C17.0613 12.5929 18.3885 10.5974 19.7068 9.05175L18.9459 8.40281ZM23.1624 4.59665C22.0136 5.37533 20.4801 6.60408 18.9459 8.40281L19.7068 9.05175C21.1735 7.33207 22.6363 6.16132 23.7235 5.42443L23.1624 4.59665ZM24.2207 3.93373C23.9273 4.10194 23.5689 4.32114 23.1624 4.59665L23.7235 5.42443C24.108 5.16385 24.445 4.95781 24.7181 4.80122L24.2207 3.93373ZM24.9694 14.934V4.36748H23.9694V14.934H24.9694ZM25 49.5C28.493 49.5 31.8014 48.7037 34.7523 47.2823L34.3184 46.3813C31.4999 47.739 28.3395 48.5 25 48.5V49.5ZM2.5 27C2.5 39.4264 12.5736 49.5 25 49.5V48.5C13.1259 48.5 3.5 38.8741 3.5 27H2.5ZM25 4.5C12.5736 4.5 2.5 14.5736 2.5 27H3.5C3.5 15.1259 13.1259 5.5 25 5.5V4.5ZM47.4992 26.8094C47.3968 14.4707 37.3628 4.5 25 4.5V5.5C36.8133 5.5 46.4014 15.0276 46.4992 26.8177L47.4992 26.8094ZM46.8128 27.2776C47.1661 27.4195 47.5019 27.5458 47.794 27.6417L48.106 26.6916C47.8422 26.605 47.5283 26.4873 47.1856 26.3496L46.8128 27.2776ZM47.794 27.6417C48.0977 27.7414 48.4765 27.8377 48.8881 27.9287L49.104 26.9523C48.706 26.8643 48.3639 26.7763 48.106 26.6916L47.794 27.6417ZM48.5 27C48.5 27.1441 48.4987 27.288 48.4961 27.4315L49.496 27.4495C49.4986 27.3 49.5 27.1502 49.5 27H48.5ZM25 3.5C37.9787 3.5 48.5 14.0213 48.5 27H49.5C49.5 13.469 38.531 2.5 25 2.5V3.5ZM1.5 27C1.5 14.0213 12.0213 3.5 25 3.5V2.5C11.469 2.5 0.5 13.469 0.5 27H1.5ZM25 50.5C12.0213 50.5 1.5 39.9787 1.5 27H0.5C0.5 40.531 11.469 51.5 25 51.5V50.5ZM36.5137 47.4911C33.1115 49.4069 29.1842 50.5 25 50.5V51.5C29.3605 51.5 33.4563 50.3604 37.0043 48.3625L36.5137 47.4911ZM36.9799 47.4782L34.7562 46.3832L34.3145 47.2804L36.5381 48.3753L36.9799 47.4782Z" fill="#194CBB"/>
</svg>
