<svg width="45" height="45" viewBox="3 3 35 35" fill="none" xmlns="http://www.w3.org/2000/svg">
<path d="M20.6831 4.73059C20.9706 4.73059 21.2581 4.79343 21.5206 4.91284L33.2893 9.93405C34.6643 10.5185 35.6893 11.8822 35.6831 13.5287C35.6518 19.7628 33.1018 31.1689 22.3331 36.3535C21.2894 36.8563 20.0769 36.8563 19.0331 36.3535C8.26438 31.1689 5.71438 19.7628 5.68313 13.5287C5.67688 11.8822 6.70188 10.5185 8.07688 9.93405L19.8519 4.91284C20.1081 4.79343 20.3956 4.73059 20.6831 4.73059Z" fill="#2160E1"/>
<path d="M11.6977 12.7903L15.1784 14.2903C15.5576 14.4528 15.7316 14.8934 15.57 15.2746C15.4084 15.6559 14.9702 15.8309 14.5911 15.6684L11.1103 14.1684C10.7311 14.0059 10.554 13.5653 10.7156 13.1872C10.8772 12.8091 11.3185 12.6278 11.6977 12.7903ZM15.1784 19.1683L11.6977 20.6683C11.3185 20.8308 10.8803 20.6558 10.7187 20.2745C10.5571 19.8933 10.7311 19.4527 11.1103 19.2902L14.5911 17.7902C14.9702 17.6277 15.4084 17.8027 15.57 18.1839C15.7316 18.5652 15.5576 19.0058 15.1784 19.1683ZM20.1013 12.8684C20.412 12.6872 20.7943 12.6872 21.102 12.8684L24.0855 14.6184C24.561 14.8965 24.7195 15.509 24.4429 15.9871C24.2595 16.3027 23.927 16.4809 23.5851 16.4809V17.7308C24.1352 17.7308 24.5796 18.1777 24.5796 18.7308C24.5796 19.1464 24.3279 19.5027 23.9674 19.6527L25.3753 26.7306H25.5742C26.1242 26.7306 26.5687 27.1775 26.5687 27.7306C26.5687 28.2837 26.1242 28.7306 25.5742 28.7306H21.5961V26.7306C21.5961 26.1775 21.1517 25.7307 20.6016 25.7307C20.0515 25.7307 19.6071 26.1775 19.6071 26.7306V28.7306H15.6291C15.079 28.7306 14.6346 28.2837 14.6346 27.7306C14.6346 27.1775 15.079 26.7306 15.6291 26.7306H15.828L17.2358 19.6527C16.8753 19.5027 16.6236 19.1464 16.6236 18.7308C16.6236 18.1777 17.068 17.7308 17.6181 17.7308V16.4809C17.2762 16.4809 16.9437 16.3027 16.7603 15.984C16.4837 15.5059 16.6453 14.8934 17.1177 14.6153L20.1013 12.8653V12.8684ZM21.5961 15.4715L20.6016 14.8903L19.6071 15.4715V17.7308H21.5961V15.4715ZM30.4876 13.1872C30.6493 13.5684 30.4752 14.009 30.0961 14.1715L26.6153 15.6715C26.2361 15.834 25.7979 15.659 25.6363 15.2778C25.4747 14.8965 25.6487 14.4559 26.0279 14.2934L29.5087 12.7934C29.8878 12.6309 30.326 12.8059 30.4876 13.1872ZM25.6363 18.1871C25.7979 17.8058 26.2361 17.6308 26.6153 17.7933L30.0961 19.2933C30.4752 19.4558 30.6493 19.8964 30.4876 20.2776C30.326 20.6589 29.8878 20.8339 29.5087 20.6714L26.0279 19.1714C25.6487 19.0089 25.4747 18.5683 25.6363 18.1871Z" fill="white"/>
</svg>
