<svg width="75" height="75" viewBox="0 0 25 25" fill="none" xmlns="http://www.w3.org/2000/svg">
<path d="M9.95312 11.5C9.95312 10.7031 9.25 10 8.45312 10H6.95312C5.26562 10 3.95312 11.3594 3.95312 13V16C3.95312 17.6406 5.3125 19 6.95312 19H8.45312C9.29688 19 9.95312 18.3438 9.95312 17.5V11.5ZM8.45312 17.5H6.95312C6.10938 17.5 5.45312 16.8438 5.45312 16V13C5.45312 12.2031 6.10938 11.5 6.95312 11.5H8.45312V17.5ZM18.9531 19C20.5938 19 21.9531 17.6406 21.9531 16V13C21.9531 11.3594 20.5938 10.0469 18.9531 10.0469H17.5C16.6562 10.0469 16 10.75 16 11.5469V17.5469C16 18.3906 16.6562 19.0469 17.5 19.0469H18.9531V19ZM17.4531 11.5H18.9062C19.7031 11.5 20.4062 12.2031 20.4062 13V16C20.4062 16.8438 19.7031 17.5 18.9062 17.5H17.4062L17.4531 11.5ZM14.125 1.09375C6.90625 0.390625 1.1875 6.15625 1 13.0469L0.953125 13.75C0.953125 14.1719 1.32812 14.5 1.75 14.5C2.125 14.5 2.45312 14.1719 2.5 13.7969V13C2.64062 7.04688 7.65625 1.98438 13.9375 2.54688C19.4219 3.0625 23.5 7.84375 23.5 13.3281V21.25C23.5 22.4688 22.4688 23.5 21.25 23.5H17.3125C17.5469 22.9844 17.5469 22.375 17.2188 21.7656C16.7969 20.9688 15.9062 20.5 15.0156 20.5H12.2969C11.2188 20.5 10.2344 21.25 10 22.3281C9.76562 23.7812 10.8438 25 12.2031 25H21.1562C23.2188 25 24.9062 23.3594 24.9062 21.2969V13.3281C25 7.09375 20.3125 1.65625 14.125 1.09375ZM15.2031 23.5H12.2031C11.7812 23.5 11.4531 23.1719 11.4531 22.75C11.4531 22.375 11.7812 22 12.2031 22H15.2031C15.5781 22 15.9531 22.375 15.9531 22.75C15.9531 23.1719 15.625 23.5 15.2031 23.5Z" fill="#194CBB"/>
</svg>
