<svg width="48" height="48" viewBox="0 0 48 48" fill="none" xmlns="http://www.w3.org/2000/svg">
<rect x="0.5" y="0.5" width="47" height="47" rx="23.5" fill="white"/>
<path d="M29.9873 30.0005C30.3468 30.0005 30.605 30.3472 30.4674 30.6793C30.1156 31.5286 29.6 32.3002 28.95 32.9502C28.2999 33.6002 27.5283 34.1158 26.6791 34.4677C25.8297 34.8195 24.9196 35.0005 24.0002 35.0005C23.0809 35.0005 22.1708 34.8195 21.3214 34.4677C20.4722 34.1158 19.7006 33.6002 19.0505 32.9502C18.4005 32.3002 17.8849 31.5286 17.5331 30.6793C17.3955 30.3472 17.6545 30.0005 18.0139 30.0005C22.7099 30.0005 26.0017 30.0005 29.9873 30.0005Z" fill="#8590A6"/>
<circle cx="16" cy="21" r="3" fill="#8590A6"/>
<circle cx="32" cy="21" r="3" fill="#8590A6"/>
<rect x="0.5" y="0.5" width="47" height="47" rx="23.5" stroke="#8590A6"/>
</svg>
