<svg width="48" height="48" viewBox="0 0 48 48" fill="none" xmlns="http://www.w3.org/2000/svg">
<rect x="0.5" y="0.5" width="47" height="47" rx="23.5" fill="white"/>
<path d="M12.5856 16.5C12.1074 16.2239 11.4857 16.3863 11.3029 16.9074C11.1807 17.2558 11.0944 17.6167 11.046 17.9846C10.9539 18.6839 11.0005 19.3945 11.183 20.0759C11.3656 20.7572 11.6806 21.3959 12.11 21.9555C12.5394 22.5151 13.0748 22.9847 13.6857 23.3374C14.2965 23.69 14.9709 23.919 15.6702 24.011C16.3696 24.1031 17.0802 24.0565 17.7615 23.874C18.4429 23.6914 19.0816 23.3764 19.6412 22.947C19.9355 22.7212 20.2049 22.466 20.4455 22.1859C20.8054 21.767 20.6353 21.1475 20.157 20.8713L12.5856 16.5Z" fill="#8590A6"/>
<path d="M35.4378 16.5C35.9161 16.2239 36.5377 16.3863 36.7206 16.9074C36.8428 17.2558 36.9291 17.6167 36.9775 17.9846C37.0696 18.6839 37.023 19.3945 36.8404 20.0759C36.6579 20.7572 36.3429 21.3959 35.9135 21.9555C35.4841 22.5151 34.9486 22.9847 34.3378 23.3374C33.7269 23.69 33.0526 23.919 32.3532 24.011C31.6539 24.1031 30.9433 24.0565 30.2619 23.874C29.5806 23.6914 28.9419 23.3764 28.3823 22.947C28.0879 22.7212 27.8185 22.466 27.5779 22.1859C27.218 21.767 27.3882 21.1475 27.8664 20.8713L35.4378 16.5Z" fill="#8590A6"/>
<path d="M28.2388 34.3787C28.4632 34.7416 28.8406 35 29.2672 35H29.9878C30.3473 35 30.605 34.6533 30.4674 34.3212C30.1156 33.4719 29.6 32.7003 28.95 32.0503C28.2999 31.4003 27.5283 30.8846 26.6791 30.5328C25.8297 30.181 24.9196 30 24.0002 30C23.0809 30 22.1708 30.181 21.3214 30.5328C20.4722 30.8846 19.7006 31.4003 19.0505 32.0503C18.4005 32.7003 17.8849 33.4719 17.5331 34.3212C17.3955 34.6533 17.6532 35 18.0127 35H18.7333C19.1599 35 19.5373 34.7416 19.7617 34.3787C19.9638 34.052 20.2034 33.749 20.4763 33.4761C20.9391 33.0133 21.4885 32.6462 22.0931 32.3958C22.6978 32.1454 23.3458 32.0165 24.0002 32.0165C24.6547 32.0165 25.3027 32.1454 25.9073 32.3958C26.512 32.6462 27.0614 33.0133 27.5242 33.4761C27.7971 33.749 28.0367 34.052 28.2388 34.3787Z" fill="#8590A6"/>
<rect x="0.5" y="0.5" width="47" height="47" rx="23.5" stroke="#8590A6"/>
</svg>
